<svg xmlns="http://www.w3.org/2000/svg" viewBox="0 0 422 422"><defs><style>.cls-1{font-size:58px;font-family:Poppins-SemiBold, Poppins;font-weight:600;}.cls-2{fill:#090909;}.cls-3{fill:none;stroke:#000;stroke-miterlimit:10;stroke-width:11px;}</style></defs><title>Asset 1</title><g id="Layer_2" data-name="Layer 2"><g id="Layer_1-2" data-name="Layer 1"><text class="cls-1" transform="translate(62.4 315.32)">BlackSkull</text><path class="cls-2" d="M266.93,153.12c0-28.54-25-51.68-55.89-51.68s-55.89,23.14-55.89,51.68a48.29,48.29,0,0,0,5.6,22.57A24.35,24.35,0,0,0,156,190.2c0,13.18,10.23,23.86,22.85,23.86.55,0,1.09,0,1.63-.06v18.65c0,8.86,7.77,16,17.35,16h26.35c9.58,0,17.35-7.18,17.35-16V214c.64.05,1.27.08,1.92.08,12.62,0,22.86-10.68,22.86-23.86a24.44,24.44,0,0,0-4.89-14.75A48.24,48.24,0,0,0,266.93,153.12Zm-63.78-1.9h5.45V138.88a2.29,2.29,0,0,1,4.56,0v12.34h5.13a2.11,2.11,0,1,1,.32,4.21h-5.45v5.7a2.29,2.29,0,0,1-4.56,0v-5.7h-5.13a2.11,2.11,0,1,1-.32-4.21Zm15.71,51.89c0,4-3.56,4.9-7.94,4.9h0c-4.39,0-7.95-.84-7.95-4.9s3.56-13.71,7.95-13.71S218.86,199.05,218.86,203.11Zm-46-20.64h0c-2.36-6.18,1.13-13,7.81-15.15s19.86-.86,22.23,5.31-7,14.87-13.66,17.06S175.2,188.64,172.83,182.47Zm58.93,45.85h-3.84V230a2.29,2.29,0,0,1-4.56,0v-1.68h-5.19V230a2.29,2.29,0,0,1-4.56,0v-1.68h-5.18V230a2.29,2.29,0,0,1-4.56,0v-1.68h-5.19V230a2.29,2.29,0,0,1-4.56,0v-1.68h-4.36a2,2,0,0,1,0-4h4.36v-1.93a2.29,2.29,0,0,1,4.56,0v1.93h5.19v-1.93a2.29,2.29,0,0,1,4.56,0v1.93h5.18v-1.93a2.29,2.29,0,0,1,4.56,0v1.93h5.19v-1.93a2.29,2.29,0,0,1,4.56,0v1.93h3.84a2,2,0,0,1,0,4Zm17.58-45.85h0c-2.36,6.17-9.7,9.41-16.38,7.22s-16-10.88-13.66-17.06,15.54-7.5,22.23-5.31S251.71,176.29,249.34,182.47Z"/><rect class="cls-3" x="5.5" y="5.5" width="411" height="411"/></g></g></svg>