<svg xmlns="http://www.w3.org/2000/svg" width="65" height="58.24" viewBox="0 0 65 58.24"><defs><style>.a{fill:#090909;}.b,.c{fill:#292929;}.b{font-size:20px;font-family:Poppins-Bold, Poppins;font-weight:700;}.c{font-size:12px;font-family:Poppins-SemiBold, Poppins;font-weight:600;letter-spacing:0.559em;}</style></defs><g transform="translate(-4800 -795.76)"><path class="a" d="M5153.321,811.63c0-6.975-6.116-12.63-13.661-12.63S5126,804.655,5126,811.63a11.8,11.8,0,0,0,1.369,5.516,5.967,5.967,0,0,0-1.153,3.548,5.714,5.714,0,0,0,5.587,5.832c.134,0,.266-.005.4-.015v4.559a4.09,4.09,0,0,0,4.24,3.92h6.442a4.09,4.09,0,0,0,4.24-3.92V826.5c.155.013.311.021.468.021a5.713,5.713,0,0,0,5.587-5.832,5.97,5.97,0,0,0-1.194-3.6A11.8,11.8,0,0,0,5153.321,811.63Zm-15.511-.464h1.254V808.15a.558.558,0,0,1,1.113,0v3.016h1.255a.516.516,0,1,1,0,1.03h-1.255v1.394a.558.558,0,0,1-1.113,0V812.2h-1.254a.517.517,0,1,1,0-1.03Zm-7.489,7.638a2.849,2.849,0,0,1,1.91-3.7c1.633-.534,4.854-.212,5.432,1.3s-1.706,3.635-3.338,4.169A3.209,3.209,0,0,1,5130.322,818.8Zm6.319,11.619a.559.559,0,0,1-1.114,0v-1.86a.559.559,0,0,1,1.114,0Zm2.381,0a.559.559,0,0,1-1.114,0v-1.86a.559.559,0,0,1,1.114,0Zm2.381,0a.558.558,0,0,1-1.113,0v-1.86a.558.558,0,0,1,1.113,0Zm-1.772-5.376c-1.072,0-1.942-.205-1.942-1.2s.87-3.351,1.942-3.351,1.941,2.359,1.941,3.351S5140.7,825.047,5139.631,825.047Zm4.155,5.376a.559.559,0,0,1-1.114,0v-1.86a.559.559,0,0,1,1.114,0Zm5.237-11.619a3.21,3.21,0,0,1-4,1.766c-1.632-.535-3.916-2.659-3.338-4.169s3.8-1.832,5.433-1.3A2.849,2.849,0,0,1,5149.022,818.8Z" transform="translate(-307.426 -3.24)"/><text class="b" transform="translate(4800 825)"><tspan x="0" y="0">B</tspan></text><text class="b" transform="translate(4852 825)"><tspan x="0" y="0">S</tspan></text><text class="c" transform="translate(4800 850)"><tspan x="0" y="0">MEDIA</tspan></text></g></svg>