<svg xmlns="http://www.w3.org/2000/svg" width="87" height="77.865" viewBox="0 0 87 77.865"><defs><style>.a,.b{fill:#191919;}.a{font-size:17px;font-family:Poppins-SemiBold, Poppins;font-weight:600;}</style></defs><g transform="translate(15953.484 -6223.053)"><text class="a" transform="translate(-15953.484 6276.918)"><tspan x="0" y="18">BlackSkull</tspan></text><path class="b" d="M191.939,118.449c0-9.393-8.228-17.009-18.394-17.009s-18.394,7.616-18.394,17.009a15.892,15.892,0,0,0,1.843,7.428,8.014,8.014,0,0,0-1.563,4.776,7.691,7.691,0,0,0,7.52,7.853,4.842,4.842,0,0,0,.536-.02v6.138a5.5,5.5,0,0,0,5.71,5.266h8.672a5.506,5.506,0,0,0,5.71-5.266v-6.138c.211.016.418.026.632.026a7.694,7.694,0,0,0,7.524-7.853,8.044,8.044,0,0,0-1.609-4.855A15.877,15.877,0,0,0,191.939,118.449Zm-20.991-.625h1.794v-4.061a.754.754,0,0,1,1.5,0v4.061h1.688a.695.695,0,1,1,.105,1.386h-1.794v1.876a.754.754,0,0,1-1.5,0v-1.876h-1.688a.695.695,0,1,1-.105-1.386Zm5.17,17.078c0,1.316-1.172,1.613-2.613,1.613h0c-1.445,0-2.616-.276-2.616-1.613s1.172-4.512,2.616-4.512S176.118,133.565,176.118,134.9Zm-15.139-6.793h0a3.834,3.834,0,0,1,2.57-4.986c2.2-.708,6.536-.283,7.316,1.748s-2.3,4.894-4.5,5.615a4.337,4.337,0,0,1-5.4-2.376Zm19.4,15.09H179.11v.553a.754.754,0,0,1-1.5,0V143.2H175.9v.553a.754.754,0,0,1-1.5,0V143.2h-1.7v.553a.754.754,0,0,1-1.5,0V143.2h-1.708v.553a.754.754,0,0,1-1.5,0V143.2h-1.435a.658.658,0,1,1,0-1.316h1.435v-.635a.754.754,0,0,1,1.5,0v.635h1.708v-.635a.754.754,0,0,1,1.5,0v.635h1.7v-.635a.754.754,0,0,1,1.5,0v.635h1.708v-.635a.754.754,0,0,1,1.5,0v.635h1.264a.658.658,0,1,1,0,1.316Zm5.786-15.09h0a4.321,4.321,0,0,1-5.391,2.376c-2.2-.721-5.266-3.581-4.5-5.615s5.115-2.468,7.316-1.748a3.828,3.828,0,0,1,2.561,4.986Z" transform="translate(-16083.932 6121.613)"/></g></svg>