<svg xmlns="http://www.w3.org/2000/svg" width="111.782" height="147.247" viewBox="0 0 111.782 147.247"><path d="M5237.782,850.673c0-28.538-25.022-51.673-55.892-51.673S5126,822.135,5126,850.673a48.266,48.266,0,0,0,5.6,22.57,24.418,24.418,0,0,0-4.719,14.515c0,13.177,10.236,23.859,22.857,23.859.55,0,1.088-.021,1.623-.061v18.652c0,8.858,7.769,16.039,17.35,16.039h26.356c9.581,0,17.348-7.181,17.348-16.039V911.532c.636.055,1.271.084,1.917.084,12.624,0,22.858-10.682,22.858-23.859a24.429,24.429,0,0,0-4.888-14.748A48.287,48.287,0,0,0,5237.782,850.673Zm-63.461-1.9h5.133V836.436a2.284,2.284,0,0,1,4.554,0v12.339h5.135a2.113,2.113,0,1,1,0,4.214h-5.135v5.7a2.284,2.284,0,0,1-4.554,0v-5.7h-5.133a2.113,2.113,0,1,1,0-4.214Zm-30.639,31.249c-2.364-6.177,1.133-12.956,7.814-15.143s19.857-.866,22.224,5.31-6.979,14.87-13.658,17.057S5146.049,886.2,5143.683,880.025Zm25.854,47.537a2.286,2.286,0,0,1-4.559,0v-7.611a2.286,2.286,0,0,1,4.559,0Zm9.742,0a2.285,2.285,0,0,1-4.557,0v-7.611a2.285,2.285,0,0,1,4.557,0Zm9.742,0a2.284,2.284,0,0,1-4.554,0v-7.611a2.284,2.284,0,0,1,4.554,0Zm-7.252-21.994c-4.388,0-7.947-.84-7.947-4.9s3.56-13.709,7.947-13.709,7.941,9.653,7.941,13.709S5186.155,905.567,5181.77,905.567Zm17,21.994a2.285,2.285,0,0,1-4.557,0v-7.611a2.285,2.285,0,0,1,4.557,0Zm21.425-47.537c-2.364,6.177-9.7,9.41-16.381,7.224s-16.022-10.881-13.658-17.057,15.543-7.5,22.228-5.31S5222.558,873.848,5220.193,880.025Z" transform="translate(-5126 -799)" fill="#090909"/></svg>