<svg xmlns="http://www.w3.org/2000/svg" width="71.935" height="71.935" viewBox="0 0 71.935 71.935"><defs><style>.a{fill:#fff;}</style></defs><path class="a" d="M68.69,11.8H53.951a1.054,1.054,0,0,0,0,2.107H68.69a1.138,1.138,0,0,1,1.137,1.137V55.624a1.138,1.138,0,0,1-1.137,1.137H3.245a1.138,1.138,0,0,1-1.137-1.137V15.046a1.138,1.138,0,0,1,1.137-1.137H26.4v2.107H5.269A1.053,1.053,0,0,0,4.215,17.07V44.913a1.054,1.054,0,0,0,2.107,0V18.124H26.4v5.653l-4.511,2.155a1.061,1.061,0,0,0-.6.951V44.068a1.054,1.054,0,0,0,.6.951L35.513,51.53a1.068,1.068,0,0,0,.909,0l7.662-3.661a1.054,1.054,0,1,0-.909-1.9l-6.153,2.94V34.059l11.521-5.5V43.4l-1.565.747a1.054,1.054,0,0,0,.908,1.9l2.165-1.034a1.054,1.054,0,0,0,.6-.951V26.883a1.06,1.06,0,0,0-.6-.951l-4.511-2.155V18.124H65.612V52.546H6.322V49.408a1.054,1.054,0,0,0-2.107,0V53.6a1.053,1.053,0,0,0,1.054,1.054h61.4A1.053,1.053,0,0,0,67.72,53.6V17.07a1.053,1.053,0,0,0-1.054-1.054H45.539V13.909h3.916a1.054,1.054,0,1,0,0-2.107H45.539V9.694h9.448a1.053,1.053,0,0,0,1.054-1.054v-2.5a3.161,3.161,0,1,0-2.107,0V7.587H44.485a1.053,1.053,0,0,0-1.054,1.054V11.8h-6.41V6.141a3.161,3.161,0,1,0-2.107,0V11.8H28.5V8.641A1.053,1.053,0,0,0,27.45,7.587H18V6.141a3.161,3.161,0,1,0-2.107,0v2.5a1.053,1.053,0,0,0,1.054,1.054H26.4V11.8H3.245A3.248,3.248,0,0,0,0,15.046V55.624a3.248,3.248,0,0,0,3.245,3.245H26.09a10.043,10.043,0,0,1-3.769,6.744H17.843a3.161,3.161,0,1,0,0,6.322H54.092a3.161,3.161,0,1,0,0-6.322H49.617a10.142,10.142,0,0,1-3.771-6.744H68.69a3.248,3.248,0,0,0,3.245-3.245V15.046A3.248,3.248,0,0,0,68.69,11.8Zm-13.7-9.694a1.054,1.054,0,1,1-1.054,1.054A1.055,1.055,0,0,1,54.987,2.107Zm-19.02,0a1.054,1.054,0,1,1-1.054,1.054A1.055,1.055,0,0,1,35.967,2.107Zm-19.02,0a1.054,1.054,0,1,1-1.054,1.054A1.055,1.055,0,0,1,16.948,2.107ZM28.5,18.124h6.41v1.583L28.5,22.77Zm18.648,8.759L35.967,32.226,24.783,26.883,35.967,21.54ZM23.393,28.554l11.521,5.5V48.908L23.393,43.4ZM43.431,22.77l-6.41-3.063V18.124h6.41Zm0-8.861v2.107h-6.41V13.909Zm-8.518,0v2.107H28.5V13.909ZM55.145,68.774a1.055,1.055,0,0,1-1.054,1.054H17.843a1.054,1.054,0,1,1,0-2.107H54.092A1.055,1.055,0,0,1,55.145,68.774Zm-8.551-3.161H25.34a11.884,11.884,0,0,0,2.869-6.744H43.726A11.884,11.884,0,0,0,46.595,65.612Zm0,0"/></svg>