<svg xmlns="http://www.w3.org/2000/svg" width="82.81" height="84.189" viewBox="0 0 82.81 84.189"><path d="M50.306,62.363h-2.76V48.838a1.38,1.38,0,0,0-2.76,0V62.363H8.9V34.76H20.384a1.38,1.38,0,1,0,0-2.76H7.521a1.38,1.38,0,0,0-1.38,1.38V62.363H3.38A1.38,1.38,0,0,0,2,63.744V66.5a6.9,6.9,0,0,0,6.9,6.9H44.785a6.9,6.9,0,0,0,6.9-6.9v-2.76A1.38,1.38,0,0,0,50.306,62.363Zm-1.38,4.14a4.14,4.14,0,0,1-4.14,4.14h-2.76v-1.38a1.38,1.38,0,0,0-2.76,0v1.38H14.421v-1.38a1.38,1.38,0,0,0-2.76,0v1.38H8.9A4.14,4.14,0,0,1,4.76,66.5v-1.38H48.925Z" transform="translate(-2 10.785)" fill="#191919"/><path d="M55.9,8.76h2.76a1.38,1.38,0,1,0,0-2.76H55.9a4.14,4.14,0,0,0-4.14,4.14v1.38H50.38a1.38,1.38,0,1,0,0,2.76h1.38v4.14a1.38,1.38,0,0,0,2.76,0v-4.14H55.9a1.38,1.38,0,1,0,0-2.76h-1.38V10.14A1.38,1.38,0,0,1,55.9,8.76Z" transform="translate(15.867 0.901)" fill="#191919"/><path d="M64.7,2H48.14A4.14,4.14,0,0,0,44,6.14V8.9a1.38,1.38,0,0,0,2.76,0V6.14a1.38,1.38,0,0,1,1.38-1.38H64.7a1.38,1.38,0,0,1,1.38,1.38V22.7a1.38,1.38,0,0,1-1.38,1.38H48.14a1.38,1.38,0,0,1-1.38-1.38V14.421a1.38,1.38,0,1,0-2.76,0V22.7a4.14,4.14,0,0,0,4.14,4.14H64.7a4.14,4.14,0,0,0,4.14-4.14V6.14A4.14,4.14,0,0,0,64.7,2Z" transform="translate(13.967 -0.62)" fill="#191919"/><path d="M49,43.521A5.521,5.521,0,1,0,54.521,38,5.521,5.521,0,0,0,49,43.521Zm8.281,0a2.76,2.76,0,1,1-2.76-2.76A2.76,2.76,0,0,1,57.281,43.521Z" transform="translate(15.867 13.066)" fill="#191919"/><path d="M64.7,33H48.14A4.14,4.14,0,0,0,44,37.14V53.7a4.14,4.14,0,0,0,4.14,4.14H64.7a4.14,4.14,0,0,0,4.14-4.14v-2.76a1.38,1.38,0,0,0-2.76,0V53.7a1.38,1.38,0,0,1-1.38,1.38H48.14a1.38,1.38,0,0,1-1.38-1.38V37.14a1.38,1.38,0,0,1,1.38-1.38H64.7a1.38,1.38,0,0,1,1.38,1.38v8.281a1.38,1.38,0,0,0,2.76,0V37.14A4.14,4.14,0,0,0,64.7,33Z" transform="translate(13.967 11.165)" fill="#191919"/><path d="M24.649,16.833A1.373,1.373,0,0,0,26,16.888l8.281-4.14a1.38,1.38,0,0,0,0-2.457L26,6.151a1.38,1.38,0,0,0-2,1.228V15.66A1.38,1.38,0,0,0,24.649,16.833ZM26.76,9.615l3.809,1.9-3.809,1.9Z" transform="translate(6.363 0.902)" fill="#191919"/><path d="M30.421,25.843A12.421,12.421,0,1,0,18,13.421,12.421,12.421,0,0,0,30.421,25.843Zm0-22.082a9.661,9.661,0,1,1-9.661,9.661A9.661,9.661,0,0,1,30.421,3.76Z" transform="translate(4.083 -1)" fill="#191919"/><path d="M37.38,25.281a1.38,1.38,0,0,0,1.1-.552l4.14-5.521a1.38,1.38,0,0,0-2.208-1.656l-4.14,5.521a1.38,1.38,0,0,0,1.1,2.208Z" transform="translate(10.925 5.082)" fill="#191919"/><path d="M39.276,28.349a1.38,1.38,0,0,0,1.932.276l5.521-4.14a1.38,1.38,0,1,0-1.656-2.208l-5.521,4.14a1.38,1.38,0,0,0-.276,1.932Z" transform="translate(12.066 6.983)" fill="#191919"/><path d="M51.7,29.113a1.38,1.38,0,0,0-1.656-1.1l-6.9,1.38a1.387,1.387,0,1,0,.276,2.76H43.7l6.9-1.38a1.38,1.38,0,0,0,1.1-1.656Z" transform="translate(13.166 9.255)" fill="#191919"/><path d="M3.38,35.843H19.942a1.38,1.38,0,0,0,1.38-1.38V12.38A1.38,1.38,0,0,0,19.942,11H3.38A1.38,1.38,0,0,0,2,12.38V34.463A1.38,1.38,0,0,0,3.38,35.843ZM4.76,13.76h13.8V33.082H4.76Z" transform="translate(-2 2.802)" fill="#191919"/><path d="M12.14,15H9.38a1.38,1.38,0,1,0,0,2.76h2.76a1.38,1.38,0,1,0,0-2.76Z" transform="translate(0.281 4.322)" fill="#191919"/><path d="M12.9,19H7.38a1.38,1.38,0,1,0,0,2.76H12.9a1.38,1.38,0,1,0,0-2.76Z" transform="translate(-0.479 5.843)" fill="#191919"/><path d="M12.9,23H7.38a1.38,1.38,0,1,0,0,2.76H12.9a1.38,1.38,0,1,0,0-2.76Z" transform="translate(-0.479 7.363)" fill="#191919"/><path d="M46.417,30.866a1.385,1.385,0,1,0-2.4,1.38L50.1,42.777,28.019,51.057h-.207l-3.588,2.07-2.388,1.38A2.756,2.756,0,0,1,18.069,53.5l-2.76-4.775a2.76,2.76,0,0,1,1.035-3.644l4.775-2.76,3.45,5.976a1.385,1.385,0,0,0,2.4-1.38L23.41,40.762,40.731,26.477l.566.98a1.385,1.385,0,0,0,2.4-1.38l-1.38-2.388a1.4,1.4,0,0,0-2.084-.373L20.912,39.243l-5.879,3.4a5.521,5.521,0,0,0-2.539,6.252l-1.38.787a4.137,4.137,0,0,0,2.07,7.729,4.223,4.223,0,0,0,2.07-.552l1.38-.787A5.355,5.355,0,0,0,19.048,57.5,5.231,5.231,0,0,0,20.5,57.7a5.438,5.438,0,0,0,2.76-.745l1.2-.69,2.76,4.789a4.137,4.137,0,1,0,7.163-4.14L31.87,52.534l20.7-7.77a1.384,1.384,0,0,0,.718-1.974Zm-32.6,23.587a1.379,1.379,0,1,1-1.38-2.388l1.2-.69,1.38,2.388Zm18.163,3.864a1.379,1.379,0,0,1-2.388,1.38l-2.76-4.789L29.124,53.6h.11Z" transform="translate(0.674 7.364)" fill="#191919"/></svg>