<svg xmlns="http://www.w3.org/2000/svg" width="40.535" height="50.152" viewBox="0 0 40.535 50.152"><defs><style>.a{fill:#2f4859;}.b{fill:#fcd462;}.c{fill:#f6c358;}.d{fill:#d5d6db;}.e{fill:#dc8744;}.f{fill:#3a556a;}.g{fill:#64798a;}</style></defs><g transform="translate(-44.902)"><path class="a" d="M195.791,440c0,1.673,1.9,3.03,4.233,3.03s4.233-1.356,4.233-3.03Z" transform="translate(-134.73 -392.88)"/><path class="b" d="M112.473,62.378a15.1,15.1,0,0,0-13.5,13.5,14.439,14.439,0,0,0,4.6,11.561,8.213,8.213,0,0,1,2.692,6.006h14.307a7.87,7.87,0,0,1,2.535-5.863,14.477,14.477,0,0,0-10.64-25.205Z" transform="translate(-48.255 -55.67)"/><circle class="c" cx="10.936" cy="10.936" r="10.936" transform="translate(54.233 10.329)"/><path class="d" d="M226.9,4.637h0a.87.87,0,0,1-.87-.87V.87A.87.87,0,0,1,226.9,0h0a.87.87,0,0,1,.87.87v2.9A.87.87,0,0,1,226.9,4.637Z" transform="translate(-161.727)"/><path class="d" d="M117.171,40.29h0a.869.869,0,0,1-1.214-.192l-1.7-2.345a.869.869,0,0,1,.192-1.214h0a.869.869,0,0,1,1.214.192l1.7,2.345A.869.869,0,0,1,117.171,40.29Z" transform="translate(-61.776 -32.477)"/><g transform="translate(52.311 3.895)"><path class="d" d="M117.171,40.29h0a.869.869,0,0,1-1.214-.192l-1.7-2.345a.869.869,0,0,1,.192-1.214h0a.869.869,0,0,1,1.214.192l1.7,2.345A.869.869,0,0,1,117.171,40.29Z" transform="translate(-114.087 -36.372)"/></g><path class="d" d="M49.355,133.627h0a.87.87,0,0,1-1.1.558l-2.756-.9a.87.87,0,0,1-.558-1.1h0a.87.87,0,0,1,1.1-.558l2.756.9A.869.869,0,0,1,49.355,133.627Z" transform="translate(0 -117.5)"/><g transform="translate(44.902 14.093)"><path class="d" d="M49.355,133.627h0a.87.87,0,0,1-1.1.558l-2.756-.9a.87.87,0,0,1-.558-1.1h0a.87.87,0,0,1,1.1-.558l2.756.9A.869.869,0,0,1,49.355,133.627Z" transform="translate(-44.902 -131.593)"/></g><path class="d" d="M381.453,133.626h0a.869.869,0,0,1,.558-1.1l2.756-.9a.869.869,0,0,1,1.1.558h0a.869.869,0,0,1-.558,1.1l-2.756.9A.87.87,0,0,1,381.453,133.626Z" transform="translate(-300.47 -117.499)"/><g transform="translate(80.94 14.093)"><path class="d" d="M381.453,133.626h0a.869.869,0,0,1,.558-1.1l2.756-.9a.869.869,0,0,1,1.1.558h0a.869.869,0,0,1-.558,1.1l-2.756.9A.87.87,0,0,1,381.453,133.626Z" transform="translate(-381.41 -131.592)"/></g><path class="d" d="M322.419,40.289h0a.869.869,0,0,1-.192-1.214l1.7-2.345a.869.869,0,0,1,1.214-.192h0a.869.869,0,0,1,.192,1.214l-1.7,2.345A.869.869,0,0,1,322.419,40.289Z" transform="translate(-247.476 -32.476)"/><path class="e" d="M200.782,220.765h-2.619a.5.5,0,0,1-.492-.406l-2.348-12.112a.491.491,0,0,1-.009-.1v-3.928a.5.5,0,0,1,.856-.355,4.664,4.664,0,0,0,6.605,0,.5.5,0,0,1,.856.355v3.928a.49.49,0,0,1-.009.1l-2.348,12.112A.5.5,0,0,1,200.782,220.765Zm-2.205-1h1.791l2.26-11.659v-2.819a5.673,5.673,0,0,1-6.311,0V208.1Z" transform="translate(-134.304 -181.904)"/><path class="f" d="M171.61,354.338A1.609,1.609,0,0,0,170,352.729h-14.4a1.6,1.6,0,0,0-1.359.755l16.432,2.309A1.606,1.606,0,0,0,171.61,354.338Z" transform="translate(-97.634 -314.953)"/><path class="g" d="M152.163,359.782a1.6,1.6,0,0,0,1.359,2.463h14.4a1.6,1.6,0,0,0,.677-.154Z" transform="translate(-95.551 -321.251)"/><path class="f" d="M171.61,382.95A1.609,1.609,0,0,0,170,381.341h-14.4a1.6,1.6,0,0,0-1.359.755l16.432,2.309A1.606,1.606,0,0,0,171.61,382.95Z" transform="translate(-97.634 -340.501)"/><path class="g" d="M152.163,388.393a1.6,1.6,0,0,0,1.359,2.463h14.4a1.6,1.6,0,0,0,.677-.154Z" transform="translate(-95.551 -346.798)"/><path class="f" d="M171.61,411.561A1.609,1.609,0,0,0,170,409.952h-14.4a1.6,1.6,0,0,0-1.359.755l16.432,2.309A1.606,1.606,0,0,0,171.61,411.561Z" transform="translate(-97.634 -366.048)"/><path class="g" d="M152.163,417.005a1.6,1.6,0,0,0,1.359,2.463h14.4a1.6,1.6,0,0,0,.677-.154Z" transform="translate(-95.551 -372.345)"/></g></svg>