<svg xmlns="http://www.w3.org/2000/svg" width="82.678" height="82.768" viewBox="0 0 82.678 82.768"><g transform="translate(0 0)"><path d="M71.407,60.7a18.537,18.537,0,0,0-.033-7.035l6.318-15.247a.224.224,0,0,0,0-.03,25.906,25.906,0,0,1,4.435-7.7,2.057,2.057,0,0,0,.509-1.883L80.046,17.613a1.348,1.348,0,0,0-.138-.334c-.011-.021-.015-.046-.026-.065s-.059-.066-.087-.1a1.392,1.392,0,0,0-.195-.228,1.282,1.282,0,0,0-.15-.091,1.406,1.406,0,0,0-.214-.13,1.363,1.363,0,0,0-.323-.079c-.032,0-.059-.021-.091-.023a1.379,1.379,0,0,0-.76.17c-.021.011-.046.015-.066.028h-.014l-9.74,6.079a2.058,2.058,0,0,0-.974,1.7,25.894,25.894,0,0,1-2.319,8.6v.015l-3.158,7.633A18.506,18.506,0,0,0,56.864,39a74.53,74.53,0,0,0,.715-13.564A15.055,15.055,0,0,0,61,14.385C60.14,6.346,52.874.54,52.564.3a1.379,1.379,0,0,0-2.186,1.439c.71,2.668.1,5.483-5.152,11.273a8.073,8.073,0,0,0-1.891,8.8A10.709,10.709,0,0,0,45.3,24.977c-.334,2.131-.6,4.149-.777,6.115a69.082,69.082,0,0,0-.24,9.783,18.771,18.771,0,0,0-3.435,2.393l-6.69-28.61c0-.029-.028-.05-.036-.076a1.3,1.3,0,0,0-.1-.266L27.19,1.7a3.185,3.185,0,0,0-5.984,1.4l-.519,14.339a1.425,1.425,0,0,0,.034.308v.062l6.826,29.13a15.534,15.534,0,0,0-3.189.476L16.85,29.279a2.788,2.788,0,0,0-3.6-1.475L1.774,32.555A2.767,2.767,0,0,0,.28,36.16L10.463,60.725a11.029,11.029,0,0,0,.568,22.042h60.7a11.037,11.037,0,1,0-.32-22.071ZM70,24.99l5.783-3.609-2.047,4.944a1.38,1.38,0,0,0,2.549,1.057l2.047-4.944,1.533,6.639a27.283,27.283,0,0,0-4,6.6,5.674,5.674,0,0,1-7.711-3.189A27.25,27.25,0,0,0,70,24.99Zm-3.173,10.83a8.4,8.4,0,0,0,3.439,2.5,8.755,8.755,0,0,0,3.376.712,7.3,7.3,0,0,0,.836-.051l-4.4,10.622a18.722,18.722,0,0,0-5.923-7.324Zm-18.9-9.852,6.93.423c.043,1.288.028,2.621-.015,3.974a29,29,0,0,1-6.911-.334c-.174-.025-.343-.044-.516-.068.138-1.3.306-2.615.509-4ZM47.272,14.86c3.662-4.04,5.561-7.148,6-10.07a18.449,18.449,0,0,1,4.978,9.888,12.36,12.36,0,0,1-2.792,8.983q-4.087-.248-8.085-.5a5.754,5.754,0,0,1-.106-8.3Zm-.1,17.854.4.052a39.3,39.3,0,0,0,5.37.457c.571,0,1.173-.046,1.775-.092-.126,1.775-.331,3.629-.592,5.545-.341-.018-.675-.051-1.017-.051a18.476,18.476,0,0,0-6.114,1.053,66.566,66.566,0,0,1,.174-6.964ZM36.5,48.845,32.551,32.034a1.379,1.379,0,0,0-2.686.629l3.547,15.131a15.624,15.624,0,0,0-3.007-.749L24.35,21.208a6.537,6.537,0,0,0,2.7.588c.087,0,.179-.012.268-.017l.975,4.165a1.379,1.379,0,1,0,2.686-.629L30,21.147a6.533,6.533,0,0,0,2.41-1.835l6.155,26.319A18.508,18.508,0,0,0,36.5,48.845ZM28.069,18.911a4.58,4.58,0,0,1-4.606-1.844l.175-4.858a8.118,8.118,0,0,0,1.455.138,6.147,6.147,0,0,0,1.4-.156,7.028,7.028,0,0,0,2.558-1.272l2.323,4.287a4.576,4.576,0,0,1-3.307,3.708ZM24.291,2.8a.43.43,0,0,1,.475.212l2.958,5.47A4.707,4.707,0,0,1,25.86,9.513a4.69,4.69,0,0,1-2.126-.1L23.959,3.2A.428.428,0,0,1,24.291,2.8ZM14.307,30.348l1.054,2.546-5.1,2.113a1.379,1.379,0,0,0,.531,2.651,1.4,1.4,0,0,0,.528-.1l5.1-2.115,1.055,2.549-2.553,1.058a1.379,1.379,0,0,0,.53,2.654,1.4,1.4,0,0,0,.527-.1l2.553-1.058,1.055,2.549L14.48,45.205a1.379,1.379,0,0,0,.53,2.654,1.4,1.4,0,0,0,.527-.1l5.1-2.113,1.116,2.694a16.014,16.014,0,0,0-8.932,10.872L2.826,35.1Zm57.42,49.661h-60.7a8.277,8.277,0,1,1,0-16.554,8.126,8.126,0,0,1,2.36.342,1.379,1.379,0,0,0,1.778-1.3,13.1,13.1,0,0,1,20.968-10.22,1.38,1.38,0,0,0,2.115-.621A15.867,15.867,0,0,1,68.272,61.9a1.379,1.379,0,0,0,1.614,1.755,8.613,8.613,0,0,1,1.842-.2,8.277,8.277,0,1,1,0,16.554Z" transform="translate(-0.012 0)" fill="#191919"/><path d="M39.062,18.374a1.379,1.379,0,0,0,1.1-.545A10.346,10.346,0,0,0,42,9.707a1.379,1.379,0,1,0-2.665.71,7.663,7.663,0,0,1-1.368,5.747,1.38,1.38,0,0,0,1.1,2.207Z" transform="translate(14.286 3.284)" fill="#191919"/><path d="M42.3,46.744a6.781,6.781,0,0,0-2.959.69,8.277,8.277,0,0,0-14.3,8.125,1.38,1.38,0,0,0,1.269.839,1.365,1.365,0,0,0,.541-.11,1.379,1.379,0,0,0,.728-1.81,5.619,5.619,0,0,1-.455-2.215,5.518,5.518,0,0,1,5.518-5.518,5.463,5.463,0,0,1,4.987,3.173,1.5,1.5,0,0,0,.1.13,1.4,1.4,0,0,0,.073.138c.025.03.061.044.088.073a1.938,1.938,0,0,0,.435.317,1.374,1.374,0,0,0,.248.077,1.269,1.269,0,0,0,.259.04,1.7,1.7,0,0,0,.527-.088,1.05,1.05,0,0,0,.109-.026,1.25,1.25,0,0,0,.128-.1,1.433,1.433,0,0,0,.145-.074,4.068,4.068,0,0,1,2.56-.9,4.138,4.138,0,0,1,3.752,2.407,1.38,1.38,0,1,0,2.511-1.145A6.9,6.9,0,0,0,42.3,46.744Z" transform="translate(9.235 16.712)" fill="#191919"/><path d="M19.082,39.072C18.874,39.14,14,40.826,14,45.9a1.379,1.379,0,0,0,2.759,0,4.743,4.743,0,0,1,3.2-4.212,1.382,1.382,0,1,0-.88-2.621Z" transform="translate(5.296 14.797)" fill="#191919"/><path d="M32.044,40.235a1.347,1.347,0,0,0,.335.041,1.38,1.38,0,0,0,1.337-1.044,5.884,5.884,0,0,1,5.568-4.474A1.379,1.379,0,1,0,39.277,32a8.593,8.593,0,0,0-8.235,6.562A1.379,1.379,0,0,0,32.044,40.235Z" transform="translate(11.747 12.143)" fill="#191919"/></g></svg>