<svg xmlns="http://www.w3.org/2000/svg" width="73.364" height="73.444" viewBox="0 0 73.364 73.444"><defs><style>.a{fill:#fff;}</style></defs><g transform="translate(0 0)"><path class="a" d="M63.364,53.859a16.449,16.449,0,0,0-.029-6.243l5.606-13.53a.2.2,0,0,0,0-.027,22.988,22.988,0,0,1,3.935-6.833,1.825,1.825,0,0,0,.452-1.671l-2.3-9.927a1.2,1.2,0,0,0-.122-.3c-.01-.018-.013-.04-.023-.058s-.053-.059-.077-.091a1.235,1.235,0,0,0-.173-.2A1.138,1.138,0,0,0,70.5,14.9a1.248,1.248,0,0,0-.19-.115,1.21,1.21,0,0,0-.286-.07c-.028,0-.053-.018-.081-.021a1.223,1.223,0,0,0-.674.151c-.018.01-.04.013-.059.024H69.2l-8.643,5.394a1.826,1.826,0,0,0-.864,1.506,22.977,22.977,0,0,1-2.058,7.63v.013l-2.8,6.773a16.421,16.421,0,0,0-4.372-1.579,66.133,66.133,0,0,0,.634-12.036,13.359,13.359,0,0,0,3.038-9.807C53.366,5.631,46.919.479,46.644.262A1.224,1.224,0,0,0,44.7,1.539c.63,2.367.084,4.866-4.572,10a7.163,7.163,0,0,0-1.678,7.806A9.5,9.5,0,0,0,40.2,22.163c-.3,1.891-.529,3.682-.689,5.426a61.3,61.3,0,0,0-.213,8.681,16.656,16.656,0,0,0-3.048,2.124L30.31,13.007c0-.026-.024-.044-.032-.067a1.158,1.158,0,0,0-.086-.236L24.128,1.5a2.826,2.826,0,0,0-5.31,1.244l-.46,12.724a1.264,1.264,0,0,0,.031.273V15.8l6.057,25.848a13.784,13.784,0,0,0-2.83.422l-6.663-16.09a2.474,2.474,0,0,0-3.195-1.309L1.575,28.888a2.455,2.455,0,0,0-1.326,3.2l9.036,21.8a9.786,9.786,0,0,0,.5,19.559H63.648a9.794,9.794,0,1,0-.284-19.585ZM62.117,22.175l5.131-3.2L65.432,23.36a1.224,1.224,0,1,0,2.262.938l1.817-4.387L70.87,25.8a24.209,24.209,0,0,0-3.55,5.86,5.034,5.034,0,0,1-6.842-2.83A24.18,24.18,0,0,0,62.117,22.175ZM59.3,31.785a7.456,7.456,0,0,0,3.052,2.222,7.768,7.768,0,0,0,3,.632,6.477,6.477,0,0,0,.742-.045l-3.906,9.425a16.613,16.613,0,0,0-5.256-6.5Zm-16.77-8.742,6.15.376c.038,1.143.024,2.326-.013,3.527a25.732,25.732,0,0,1-6.133-.3c-.154-.022-.3-.039-.458-.06.122-1.153.272-2.321.452-3.546Zm-.584-9.857C45.2,9.6,46.882,6.843,47.274,4.25a16.371,16.371,0,0,1,4.418,8.774A10.968,10.968,0,0,1,49.214,21q-3.627-.22-7.174-.441a5.106,5.106,0,0,1-.094-7.369Zm-.093,15.843.355.047a34.868,34.868,0,0,0,4.765.405c.507,0,1.04-.04,1.575-.082-.111,1.575-.294,3.221-.525,4.921-.3-.016-.6-.045-.9-.045a16.4,16.4,0,0,0-5.425.934,59.067,59.067,0,0,1,.154-6.179ZM32.387,43.343l-3.5-14.918a1.224,1.224,0,0,0-2.383.558L29.649,42.41a13.863,13.863,0,0,0-2.668-.665L21.608,18.819a5.8,5.8,0,0,0,2.4.521c.077,0,.159-.011.237-.015l.865,3.7a1.224,1.224,0,1,0,2.383-.558l-.867-3.7a5.8,5.8,0,0,0,2.138-1.628l5.462,23.354A16.423,16.423,0,0,0,32.387,43.343ZM24.908,16.781a4.064,4.064,0,0,1-4.087-1.637l.155-4.311a7.2,7.2,0,0,0,1.291.122,5.454,5.454,0,0,0,1.244-.138,6.236,6.236,0,0,0,2.269-1.129l2.061,3.8a4.06,4.06,0,0,1-2.934,3.29Zm-3.353-14.3a.382.382,0,0,1,.421.189L24.6,7.523a4.177,4.177,0,0,1-1.652.918,4.162,4.162,0,0,1-1.886-.089l.2-5.516A.379.379,0,0,1,21.555,2.481ZM12.7,26.929l.935,2.26L9.1,31.064a1.224,1.224,0,0,0,.471,2.353,1.242,1.242,0,0,0,.469-.093l4.529-1.876.936,2.262-2.266.939A1.224,1.224,0,0,0,13.713,37a1.245,1.245,0,0,0,.468-.093l2.266-.939.936,2.262L12.85,40.112a1.224,1.224,0,0,0,.47,2.355,1.24,1.24,0,0,0,.468-.093L18.317,40.5l.99,2.391a14.21,14.21,0,0,0-7.926,9.647L2.509,31.145ZM63.648,71H9.79a7.344,7.344,0,0,1,0-14.689,7.211,7.211,0,0,1,2.094.3,1.224,1.224,0,0,0,1.578-1.149,11.629,11.629,0,0,1,18.606-9.069,1.224,1.224,0,0,0,1.876-.551,14.08,14.08,0,0,1,26.638,9.087,1.224,1.224,0,0,0,1.432,1.557,7.642,7.642,0,0,1,1.634-.179,7.344,7.344,0,1,1,0,14.689Z" transform="translate(-0.012 0)"/><path class="a" d="M38.908,17.279a1.224,1.224,0,0,0,.979-.484,9.181,9.181,0,0,0,1.628-7.207,1.224,1.224,0,1,0-2.365.63,6.8,6.8,0,0,1-1.214,5.1,1.224,1.224,0,0,0,.979,1.958Z" transform="translate(8.43 1.939)"/><path class="a" d="M40.281,46.439a6.017,6.017,0,0,0-2.626.612,7.344,7.344,0,0,0-12.687,7.21,1.224,1.224,0,0,0,1.126.744,1.211,1.211,0,0,0,.48-.1A1.224,1.224,0,0,0,27.22,53.3a4.986,4.986,0,0,1-.4-1.966,4.9,4.9,0,0,1,4.9-4.9,4.847,4.847,0,0,1,4.425,2.815,1.331,1.331,0,0,0,.086.115,1.244,1.244,0,0,0,.065.122c.022.027.054.039.078.065a1.166,1.166,0,0,0,.19.159,1.179,1.179,0,0,0,.2.122,1.22,1.22,0,0,0,.22.069,1.127,1.127,0,0,0,.23.035,1.5,1.5,0,0,0,.468-.078.934.934,0,0,0,.1-.023,1.112,1.112,0,0,0,.114-.084,1.274,1.274,0,0,0,.129-.066,3.61,3.61,0,0,1,2.272-.8,3.672,3.672,0,0,1,3.329,2.136,1.224,1.224,0,1,0,2.228-1.016A6.12,6.12,0,0,0,40.281,46.439Z" transform="translate(5.448 9.868)"/><path class="a" d="M18.509,39.064c-.185.06-4.509,1.556-4.509,6.058a1.224,1.224,0,1,0,2.448,0,4.208,4.208,0,0,1,2.842-3.737,1.227,1.227,0,0,0-.781-2.326Z" transform="translate(3.122 8.738)"/><path class="a" d="M31.927,39.308a1.2,1.2,0,0,0,.3.037,1.224,1.224,0,0,0,1.186-.927,5.221,5.221,0,0,1,4.94-3.97A1.224,1.224,0,1,0,38.344,32a7.625,7.625,0,0,0-7.308,5.823A1.224,1.224,0,0,0,31.927,39.308Z" transform="translate(6.931 7.17)"/></g></svg>