<svg xmlns="http://www.w3.org/2000/svg" width="230" height="50" viewBox="0 0 230 50"><defs><style>.a{fill:#ffd500;}</style></defs><g transform="translate(514 -1120) rotate(90)"><circle class="a" cx="2.5" cy="2.5" r="2.5" transform="translate(1120 284)"/><circle class="a" cx="2.5" cy="2.5" r="2.5" transform="translate(1120 299)"/><circle class="a" cx="2.5" cy="2.5" r="2.5" transform="translate(1120 314)"/><circle class="a" cx="2.5" cy="2.5" r="2.5" transform="translate(1120 329)"/><circle class="a" cx="2.5" cy="2.5" r="2.5" transform="translate(1120 344)"/><circle class="a" cx="2.5" cy="2.5" r="2.5" transform="translate(1120 359)"/><circle class="a" cx="2.5" cy="2.5" r="2.5" transform="translate(1120 374)"/><circle class="a" cx="2.5" cy="2.5" r="2.5" transform="translate(1120 389)"/><circle class="a" cx="2.5" cy="2.5" r="2.5" transform="translate(1120 404)"/><circle class="a" cx="2.5" cy="2.5" r="2.5" transform="translate(1120 419)"/><circle class="a" cx="2.5" cy="2.5" r="2.5" transform="translate(1120 434)"/><circle class="a" cx="2.5" cy="2.5" r="2.5" transform="translate(1120 449)"/><circle class="a" cx="2.5" cy="2.5" r="2.5" transform="translate(1120 464)"/><circle class="a" cx="2.5" cy="2.5" r="2.5" transform="translate(1120 479)"/><circle class="a" cx="2.5" cy="2.5" r="2.5" transform="translate(1120 494)"/><circle class="a" cx="2.5" cy="2.5" r="2.5" transform="translate(1120 509)"/><circle class="a" cx="2.5" cy="2.5" r="2.5" transform="translate(1135 284)"/><circle class="a" cx="2.5" cy="2.5" r="2.5" transform="translate(1135 299)"/><circle class="a" cx="2.5" cy="2.5" r="2.5" transform="translate(1135 314)"/><circle class="a" cx="2.5" cy="2.5" r="2.5" transform="translate(1135 329)"/><circle class="a" cx="2.5" cy="2.5" r="2.5" transform="translate(1135 344)"/><circle class="a" cx="2.5" cy="2.5" r="2.5" transform="translate(1135 359)"/><circle class="a" cx="2.5" cy="2.5" r="2.5" transform="translate(1135 374)"/><circle class="a" cx="2.5" cy="2.5" r="2.5" transform="translate(1135 389)"/><circle class="a" cx="2.5" cy="2.5" r="2.5" transform="translate(1135 404)"/><circle class="a" cx="2.5" cy="2.5" r="2.5" transform="translate(1135 419)"/><circle class="a" cx="2.5" cy="2.5" r="2.5" transform="translate(1135 434)"/><circle class="a" cx="2.5" cy="2.5" r="2.5" transform="translate(1135 449)"/><circle class="a" cx="2.5" cy="2.5" r="2.5" transform="translate(1135 464)"/><circle class="a" cx="2.5" cy="2.5" r="2.5" transform="translate(1135 479)"/><circle class="a" cx="2.5" cy="2.5" r="2.5" transform="translate(1135 494)"/><circle class="a" cx="2.5" cy="2.5" r="2.5" transform="translate(1135 509)"/><circle class="a" cx="2.5" cy="2.5" r="2.5" transform="translate(1150 284)"/><circle class="a" cx="2.5" cy="2.5" r="2.5" transform="translate(1150 299)"/><circle class="a" cx="2.5" cy="2.5" r="2.5" transform="translate(1150 314)"/><circle class="a" cx="2.5" cy="2.5" r="2.5" transform="translate(1150 329)"/><circle class="a" cx="2.5" cy="2.5" r="2.5" transform="translate(1150 344)"/><circle class="a" cx="2.5" cy="2.5" r="2.5" transform="translate(1150 359)"/><circle class="a" cx="2.5" cy="2.5" r="2.5" transform="translate(1150 374)"/><circle class="a" cx="2.5" cy="2.5" r="2.5" transform="translate(1150 389)"/><circle class="a" cx="2.5" cy="2.5" r="2.5" transform="translate(1150 404)"/><circle class="a" cx="2.5" cy="2.5" r="2.5" transform="translate(1150 419)"/><circle class="a" cx="2.5" cy="2.5" r="2.5" transform="translate(1150 434)"/><circle class="a" cx="2.5" cy="2.5" r="2.5" transform="translate(1150 449)"/><circle class="a" cx="2.5" cy="2.5" r="2.5" transform="translate(1150 464)"/><circle class="a" cx="2.5" cy="2.5" r="2.5" transform="translate(1150 479)"/><circle class="a" cx="2.5" cy="2.5" r="2.5" transform="translate(1150 494)"/><circle class="a" cx="2.5" cy="2.5" r="2.5" transform="translate(1150 509)"/><circle class="a" cx="2.5" cy="2.5" r="2.5" transform="translate(1165 284)"/><circle class="a" cx="2.5" cy="2.5" r="2.5" transform="translate(1165 299)"/><circle class="a" cx="2.5" cy="2.5" r="2.5" transform="translate(1165 314)"/><circle class="a" cx="2.5" cy="2.5" r="2.5" transform="translate(1165 329)"/><circle class="a" cx="2.5" cy="2.5" r="2.5" transform="translate(1165 344)"/><circle class="a" cx="2.5" cy="2.5" r="2.5" transform="translate(1165 359)"/><circle class="a" cx="2.5" cy="2.5" r="2.5" transform="translate(1165 374)"/><circle class="a" cx="2.5" cy="2.5" r="2.5" transform="translate(1165 389)"/><circle class="a" cx="2.5" cy="2.5" r="2.5" transform="translate(1165 404)"/><circle class="a" cx="2.5" cy="2.5" r="2.5" transform="translate(1165 419)"/><circle class="a" cx="2.5" cy="2.5" r="2.5" transform="translate(1165 434)"/><circle class="a" cx="2.5" cy="2.5" r="2.5" transform="translate(1165 449)"/><circle class="a" cx="2.5" cy="2.5" r="2.5" transform="translate(1165 464)"/><circle class="a" cx="2.5" cy="2.5" r="2.5" transform="translate(1165 479)"/><circle class="a" cx="2.5" cy="2.5" r="2.5" transform="translate(1165 494)"/><circle class="a" cx="2.5" cy="2.5" r="2.5" transform="translate(1165 509)"/></g></svg>