<svg xmlns="http://www.w3.org/2000/svg" width="52" height="52" viewBox="0 0 52 52"><defs><style>.a{fill:#ffd500;}.b{fill:#191919;}</style></defs><g transform="translate(0 0.067)"><circle class="a" cx="26" cy="26" r="26" transform="translate(0 -0.067)"/><g transform="translate(10.338 13.136)"><g transform="translate(0 0)"><path class="b" d="M3.055,61.756q.6.383,3.641,2.277t4.654,2.916q.178.112.755.488t.959.607q.382.232.924.519a5.652,5.652,0,0,0,1.021.431,3.1,3.1,0,0,0,.888.144h.036a3.1,3.1,0,0,0,.888-.144,5.657,5.657,0,0,0,1.021-.431q.542-.288.924-.519t.959-.607q.577-.376.755-.488,1.634-1.023,8.313-5.194a8.058,8.058,0,0,0,2.167-1.966,3.939,3.939,0,0,0,.871-2.413,2.335,2.335,0,0,0-.844-1.806,2.906,2.906,0,0,0-2-.751H2.842a2.666,2.666,0,0,0-2.1.831A3.016,3.016,0,0,0,0,57.728,3.531,3.531,0,0,0,.977,59.91,8.456,8.456,0,0,0,3.055,61.756Z" transform="translate(0 -54.82)"/><path class="b" d="M30.055,186.056q-5.826,4.131-8.846,6.421-1.012.781-1.643,1.219a9.974,9.974,0,0,1-1.679.893,4.916,4.916,0,0,1-1.954.456H15.9a4.917,4.917,0,0,1-1.954-.456,9.979,9.979,0,0,1-1.679-.893q-.63-.437-1.643-1.219-2.4-1.842-8.828-6.421A9.549,9.549,0,0,1,0,184.437v14.777a2.937,2.937,0,0,0,.835,2.1,2.675,2.675,0,0,0,2.007.875H28.99A2.675,2.675,0,0,0,31,201.317a2.937,2.937,0,0,0,.835-2.1V184.437A9.948,9.948,0,0,1,30.055,186.056Z" transform="translate(0 -177.182)"/></g></g></g></svg>