<svg xmlns="http://www.w3.org/2000/svg" width="102.791" height="102.793" viewBox="0 0 102.791 102.793"><g transform="translate(0 0)"><path d="M87.755,15.036a51.42,51.42,0,1,0,0,72.719A51.478,51.478,0,0,0,87.755,15.036ZM71.673,71.673a3.954,3.954,0,0,1-5.593,0L51.4,56.989,36.014,72.371a3.955,3.955,0,0,1-5.593-5.593L45.8,51.4,31.119,36.712a3.955,3.955,0,0,1,5.593-5.593L51.4,45.8,65.38,31.819a3.955,3.955,0,1,1,5.593,5.593L56.989,51.4,71.673,66.08A3.954,3.954,0,0,1,71.673,71.673Z" transform="translate(0 0)" fill="#fff"/></g></svg>