<svg xmlns="http://www.w3.org/2000/svg" width="124.34" height="149.208" viewBox="0 0 124.34 149.208"><defs><style>.a{fill:#191919;}</style></defs><circle class="a" cx="2.5" cy="2.5" r="2.5" transform="translate(59.572 62.875)"/><circle class="a" cx="2.5" cy="2.5" r="2.5" transform="translate(67.572 57.875)"/><circle class="a" cx="2.5" cy="2.5" r="2.5" transform="translate(52.572 57.875)"/><circle class="a" cx="2.5" cy="2.5" r="2.5" transform="translate(44.572 52.875)"/><circle class="a" cx="2.5" cy="2.5" r="2.5" transform="translate(74.572 52.875)"/><circle class="a" cx="2.5" cy="2.5" r="2.5" transform="translate(82.572 47.875)"/><circle class="a" cx="2.5" cy="2.5" r="2.5" transform="translate(37.572 47.875)"/><circle class="a" cx="2.5" cy="2.5" r="2.5" transform="translate(59.572 52.875)"/><circle class="a" cx="2.5" cy="2.5" r="2.5" transform="translate(59.572 82.875)"/><circle class="a" cx="2.5" cy="2.5" r="2.5" transform="translate(59.572 89.875)"/><circle class="a" cx="2.5" cy="2.5" r="2.5" transform="translate(59.572 97.875)"/><circle class="a" cx="2.5" cy="2.5" r="2.5" transform="translate(59.572 104.875)"/><circle class="a" cx="2.5" cy="2.5" r="2.5" transform="translate(59.572 110.875)"/><circle class="a" cx="2.5" cy="2.5" r="2.5" transform="translate(59.572 118.875)"/><path class="a" d="M126.853,144.234h-7.46v-9.947H106.959v-25.42A20.007,20.007,0,0,0,98.034,92.19L71.654,74.6l26.38-17.587a20.007,20.007,0,0,0,8.925-16.676V14.921h12.434V4.974h7.46a2.487,2.487,0,0,0,0-4.974H7.487a2.487,2.487,0,1,0,0,4.974h7.46v9.947H27.381v25.42a20.007,20.007,0,0,0,8.925,16.676L62.686,74.6,36.306,92.19a20.007,20.007,0,0,0-8.925,16.676v25.42H14.947v9.947H7.487a2.487,2.487,0,0,0,0,4.974H126.853a2.487,2.487,0,0,0,0-4.974ZM19.921,9.947V4.974h94.5V9.947h-94.5ZM39.064,52.879a15.046,15.046,0,0,1-6.709-12.538V14.921h69.63v25.42a15.046,15.046,0,0,1-6.709,12.538L67.17,71.615Zm-6.709,55.988a15.046,15.046,0,0,1,6.709-12.538L67.17,77.593,95.276,96.328a15.046,15.046,0,0,1,6.709,12.538v25.42H32.355ZM19.921,139.261h94.5v4.974h-94.5Z" transform="translate(-5)"/></svg>