<svg xmlns="http://www.w3.org/2000/svg" width="52" height="52" viewBox="0 0 52 52"><defs><style>.a{fill:#ffd500;}.b{fill:#191919;}</style></defs><g transform="translate(0.38 0.067)"><circle class="a" cx="26" cy="26" r="26" transform="translate(-0.38 -0.067)"/><g transform="translate(11.101 11.55)"><path class="b" d="M20.948,0H7.984A7.993,7.993,0,0,0,0,7.984V20.948a7.993,7.993,0,0,0,7.984,7.984H20.948a7.993,7.993,0,0,0,7.984-7.984V7.984A7.993,7.993,0,0,0,20.948,0Zm5.418,20.948a5.423,5.423,0,0,1-5.417,5.417H7.984a5.423,5.423,0,0,1-5.417-5.417V7.984A5.423,5.423,0,0,1,7.984,2.567H20.948a5.423,5.423,0,0,1,5.417,5.417V20.948Z" transform="translate(0)"/><path class="b" d="M47.646,40.97a6.678,6.678,0,1,0,6.678,6.678A6.685,6.685,0,0,0,47.646,40.97Zm0,11.056a4.378,4.378,0,1,1,4.378-4.378A4.383,4.383,0,0,1,47.646,52.026Z" transform="translate(-33.18 -33.181)"/><path class="b" d="M121.012,28.251a2.09,2.09,0,1,0,1.479.612A2.1,2.1,0,0,0,121.012,28.251Z" transform="translate(-98.907 -23.497)"/></g></g></svg>