<svg xmlns="http://www.w3.org/2000/svg" width="52" height="52" viewBox="0 0 52 52"><defs><style>.a{fill:#ffd500;}.b{fill:#191919;}</style></defs><g transform="translate(-3698 -2439)"><circle class="a" cx="26" cy="26" r="26" transform="translate(3698 2439)"/><g transform="translate(3712 2451)"><path class="b" d="M25.026,25.093h.006V15.7c0-4.592-.989-8.13-6.358-8.13a5.574,5.574,0,0,0-5.02,2.759H13.58V8H8.489V25.092h5.3V16.63c0-2.228.422-4.382,3.181-4.382,2.719,0,2.759,2.543,2.759,4.525v8.32Z" transform="translate(0.565 0.504)"/><path class="b" d="M.4,7.977H5.7V25.066H.4Z" transform="translate(0.026 0.531)"/><path class="b" d="M3.074,0A3.088,3.088,0,1,0,6.147,3.074,3.075,3.075,0,0,0,3.074,0Z" transform="translate(0 0)"/></g></g></svg>