<svg xmlns="http://www.w3.org/2000/svg" width="54" height="54" viewBox="0 0 54 54"><defs><style>.a{fill:#ff0080;}.b{fill:#fff;}</style></defs><g transform="translate(-165.098 -668)"><circle class="a" cx="27" cy="27" r="27" transform="translate(165.098 668)"/><g transform="translate(181.613 681.053)"><path class="b" d="M76.5,11.416h-.551V8.838A8.788,8.788,0,0,0,67.435,0c-.129,0-.387,0-.517,0a8.788,8.788,0,0,0-8.513,8.836v2.578h-.551a1.789,1.789,0,0,0-1.541,1.958V26.3a1.8,1.8,0,0,0,1.541,1.965H76.5A1.8,1.8,0,0,0,78.04,26.3V13.374A1.789,1.789,0,0,0,76.5,11.416Zm-7.575,8.41v3.907a.834.834,0,0,1-.822.826H66.252a.834.834,0,0,1-.822-.826V19.825A2.366,2.366,0,0,1,66.918,15.8c.129-.005.388-.005.517,0a2.366,2.366,0,0,1,1.488,4.025Zm3.394-8.41H62.036V8.838a5.141,5.141,0,1,1,10.282,0v2.578Z" transform="translate(-56.313 0)"/></g></g></svg>