<svg xmlns="http://www.w3.org/2000/svg" width="452.275" height="161.477" viewBox="0 0 452.275 161.477"><defs><style>.a{fill:#fd21bf;}.b{fill:#090909;}.c,.d{fill:#fff;font-family:Poppins-Bold, Poppins;font-weight:700;}.c{font-size:32px;}.d{font-size:31px;}</style></defs><g transform="translate(-103.086 -81.679)"><path class="a" d="M.1,0H351.125V74.553L0,78.935Z" transform="matrix(0.998, -0.07, 0.07, 0.998, 103.086, 120.976)"/><rect class="b" width="356.591" height="74.553" transform="matrix(0.996, -0.087, 0.087, 0.996, 115.503, 112.758)"/><text class="c" transform="matrix(0.996, -0.087, 0.087, 0.996, 205.85, 151.765)"><tspan x="0" y="0">BlackSkull</tspan></text><g transform="translate(251.769 131.769)"><path class="a" d="M0,0,281.526.781V67.875H.979Z" transform="matrix(-0.996, 0.087, -0.087, -0.996, 286.371, 86.85)"/><rect class="b" width="286.115" height="74.553" transform="matrix(0.996, -0.087, 0.087, 0.996, 12.068, 24.937)"/><text class="d" transform="matrix(0.996, -0.087, 0.087, 0.996, 103.478, 62.845)"><tspan x="0" y="0">Media</tspan></text></g></g></svg>