<svg xmlns="http://www.w3.org/2000/svg" width="62.07" height="153.76" viewBox="0 0 62.07 153.76"><defs><style>.a{fill:#00c6fb;}</style></defs><g transform="translate(-816 -1077.933)"><g transform="translate(816 1077.933)"><path class="a" d="M31.035,0A31.07,31.07,0,0,0,0,31.035v43.44a31.035,31.035,0,0,0,62.07,0V31.035A31.07,31.07,0,0,0,31.035,0Zm24.7,74.475a24.7,24.7,0,0,1-49.41,0V31.035a24.7,24.7,0,1,1,49.41,0Zm0,0" transform="translate(0 0)"/><path class="a" d="M138.411,101.852a3.165,3.165,0,0,0-3.165,3.165v14.568a3.165,3.165,0,0,0,6.33,0V105.017A3.165,3.165,0,0,0,138.411,101.852Zm0,0" transform="translate(-107.375 -80.863)"/></g><g transform="translate(859.077 1196.583) rotate(90)"><path class="a" d="M34.632,10.926,24.184.478a1.633,1.633,0,0,0-2.309,2.309l7.661,7.661H1.633a1.633,1.633,0,0,0,0,3.265h27.9l-7.661,7.661a1.633,1.633,0,0,0,2.309,2.309L34.632,13.235A1.633,1.633,0,0,0,34.632,10.926Z" transform="translate(0 0)"/></g></g></svg>