<svg xmlns="http://www.w3.org/2000/svg" width="155.64" height="149.207" viewBox="0 0 155.64 149.207"><defs><style>.a{fill:#191919;}</style></defs><path class="a" d="M346.3,186.884H339.81a9.729,9.729,0,0,1-9.728-9.728v-3.243a3.243,3.243,0,0,1,6.486,0v3.243a3.243,3.243,0,0,0,3.242,3.243H346.3a3.243,3.243,0,0,0,3.242-3.243V162.141a3.243,3.243,0,0,1,1.154-2.484,50.655,50.655,0,0,0,16.633-25.5,3.242,3.242,0,0,1,3.129-2.4h5.027a3.243,3.243,0,0,0,3.242-3.243V115.542a3.242,3.242,0,0,0-3.242-3.242h-5.027a3.245,3.245,0,0,1-3.129-2.394,50.862,50.862,0,0,0-17.4-26.124,3.241,3.241,0,0,1-1.2-2.552,35.475,35.475,0,0,1,6.913-20.815,28.943,28.943,0,0,0-20.218,8.548,3.243,3.243,0,1,1-4.586-4.585A35.4,35.4,0,0,1,356.024,53.93a37.046,37.046,0,0,1,6.9.673,3.243,3.243,0,0,1,1.6,5.559,29.032,29.032,0,0,0-9.26,19.631,57.327,57.327,0,0,1,17.621,26.02h2.595a9.729,9.729,0,0,1,9.728,9.728v12.972a9.729,9.729,0,0,1-9.728,9.728h-2.595a57.227,57.227,0,0,1-16.862,25.385v13.529a9.729,9.729,0,0,1-9.728,9.728Zm0,0" transform="translate(-229.57 -37.676)"/><path class="a" d="M207.454,446.177a70.989,70.989,0,0,1-23.782-4.112,3.243,3.243,0,0,1,2.166-6.11,64.674,64.674,0,0,0,43.233,0,3.243,3.243,0,0,1,2.166,6.11,71,71,0,0,1-23.783,4.112Zm0,0" transform="translate(-126.399 -303.455)"/><path class="a" d="M88.955,217.172H82.47a9.729,9.729,0,0,1-9.728-9.728V193.918a55.005,55.005,0,0,1-19.457-41.6,56.368,56.368,0,0,1,.48-7.229c3-21.675,18.977-39.857,41.677-47.471a3.248,3.248,0,1,1,2.062,6.161C77.149,110.595,62.851,126.756,60.2,145.95a47.845,47.845,0,0,0,17.877,43.982,3.243,3.243,0,0,1,1.154,2.5v15.014a3.244,3.244,0,0,0,3.243,3.243h6.485a3.244,3.244,0,0,0,3.243-3.243V204.2a3.243,3.243,0,0,1,6.485,0v3.243a9.728,9.728,0,0,1-9.728,9.728Zm0,0" transform="translate(-37.085 -67.965)"/><path class="a" d="M6.759,258.966a3.245,3.245,0,0,1-2.053-.736,12.964,12.964,0,1,1,17.506-19.077,3.243,3.243,0,0,1-4.631,4.54,6.478,6.478,0,1,0-8.762,9.521,3.243,3.243,0,0,1-2.059,5.752Zm0,0" transform="translate(0.001 -163.881)"/><path class="a" d="M234.156,137.917a3.251,3.251,0,0,1-.954-.142c-1.621-.5-3.272-.924-4.883-1.255a65.919,65.919,0,0,0-27.181,0c-1.577.324-3.189.727-4.956,1.262a3.243,3.243,0,0,1-1.881-6.207c1.972-.6,3.779-1.053,5.513-1.407a72.569,72.569,0,0,1,29.835,0c1.793.369,3.641.843,5.467,1.4a3.243,3.243,0,0,1-.961,6.346Zm0,0" transform="translate(-133.644 -89.658)"/><path class="a" d="M192.988,47.4a3.22,3.22,0,0,1-2.043-.73,25.856,25.856,0,0,1-8.48-12.524,25.431,25.431,0,0,1-1.18-7.694,25.942,25.942,0,1,1,42.292,20.105,3.244,3.244,0,0,1-4.1-5.03,19.372,19.372,0,0,0,7.04-12.481,19.729,19.729,0,0,0,.165-2.594,19.457,19.457,0,0,0-38.913,0,18.975,18.975,0,0,0,.886,5.762,19.489,19.489,0,0,0,6.382,9.43,3.243,3.243,0,0,1-2.05,5.756Zm0,0" transform="translate(-126.172 -0.467)"/><path class="a" d="M244.345,62.719a9.728,9.728,0,1,1,9.728-9.728,3.243,3.243,0,1,1-6.485,0,3.243,3.243,0,1,0-3.243,3.243,3.243,3.243,0,1,1,0,6.485Zm0,0" transform="translate(-163.29 -30.252)"/><path class="a" d="M244.345,105.387a9.729,9.729,0,0,1-9.728-9.728,3.243,3.243,0,0,1,6.486,0,3.243,3.243,0,1,0,3.242-3.243,3.243,3.243,0,0,1,0-6.485,9.728,9.728,0,0,1,0,19.457Zm0,0" transform="translate(-163.29 -59.948)"/><path class="a" d="M259.195,42.322a3.242,3.242,0,0,1-3.242-3.242V35.837a3.243,3.243,0,1,1,6.485,0V39.08A3.243,3.243,0,0,1,259.195,42.322Zm0,0" transform="translate(-178.14 -22.827)"/><path class="a" d="M375.589,188.415a6.486,6.486,0,1,1-6.485-6.485A6.485,6.485,0,0,1,375.589,188.415Zm0,0" transform="translate(-252.377 -126.763)"/><path class="a" d="M184.528,422.143a3.243,3.243,0,0,1-3.243-3.243v-9.728a3.243,3.243,0,0,1,6.485,0V418.9A3.243,3.243,0,0,1,184.528,422.143Zm0,0" transform="translate(-126.172 -282.665)"/><path class="a" d="M333.86,422.143a3.244,3.244,0,0,1-3.243-3.243v-9.728a3.243,3.243,0,0,1,6.486,0V418.9A3.244,3.244,0,0,1,333.86,422.143Zm0,0" transform="translate(-230.105 -282.665)"/></svg>