<svg xmlns="http://www.w3.org/2000/svg" width="395" height="264.65" viewBox="0 0 395 264.65"><defs><style>.a{fill:rgba(41,41,41,0.81);}.b{fill:rgba(255,0,128,0.64);}.c{fill:#ff0080;}</style></defs><path class="a" d="M2901.5,555V673.5c-7.11,5.988-45.709,37.3-102.581,33.575-66.743-4.367-90.724-57.255-94.919-63.2,32.71-7.809,60.465-16.041,103.293-35.55A615.706,615.706,0,0,0,2901.5,555Z" transform="translate(-2506.5 -515.5)"/><path class="b" d="M2604,535V667.325a171.568,171.568,0,0,0,98.75,31.6c14.672,0,57.093-5.848,98.75-35.55-30.515-15.35-63.885-30.225-98.75-53.325A959.284,959.284,0,0,1,2604,535Z" transform="translate(-2604 -535)"/><path class="c" d="M2604,600V711.509a24.766,24.766,0,0,0,24.767,24.766H2978.1a20.9,20.9,0,0,0,20.9-20.9v-89.7a224.88,224.88,0,0,1-67.15,11.85c-62.472,1.333-109.319-24.15-130.35-37.525a414.824,414.824,0,0,1-197.5,0Z" transform="translate(-2604 -471.625)"/></svg>