<svg xmlns="http://www.w3.org/2000/svg" width="166.864" height="149.05" viewBox="0 0 166.864 149.05"><defs><style>.a{fill:#ffd500;}.b{fill:#fff;}</style></defs><g transform="translate(-7616 -2442.768)"><path class="a" d="M414.963,158.751c-29.887,46.191-44.8,70.481-70.482,70.481A70.481,70.481,0,0,1,274,158.751c0-45.912,56.235-65.477,70.481-70.481,34.311-12.052,84.148-12.085,94.548,9.885C445.427,111.668,434.534,128.5,414.963,158.751Z" transform="translate(7342 2362.586)"/><g transform="translate(6219 740)"><path class="b" d="M15.332,0,0,8.852v17.7l15.332,8.852,15.332-8.852V8.852ZM27.539,9.45,15.332,16.5,3.125,9.45,15.332,2.4ZM2.081,11.25,14.292,18.3V32.4L2.081,25.354ZM16.372,32.4V18.3l12.211-7.05v14.1Zm0,0" transform="translate(1435 1762.86)"/><path class="b" d="M15.332,0,0,8.852v17.7l15.332,8.852,15.332-8.852V8.852ZM27.539,9.45,15.332,16.5,3.125,9.45,15.332,2.4ZM2.081,11.25,14.292,18.3V32.4L2.081,25.354ZM16.372,32.4V18.3l12.211-7.05v14.1Zm0,0" transform="translate(1463.86 1734)"/><path class="b" d="M15.332,0,0,8.852v17.7l15.332,8.852,15.332-8.852V8.852ZM27.539,9.45,15.332,16.5,3.125,9.45,15.332,2.4ZM2.081,11.25,14.292,18.3V32.4L2.081,25.354ZM16.372,32.4V18.3l12.211-7.05v14.1Zm0,0" transform="translate(1473.48 1771.277)"/></g></g></svg>