<svg xmlns="http://www.w3.org/2000/svg" width="166.864" height="149.05" viewBox="0 0 166.864 149.05"><defs><style>.a{fill:#00c6fb;}.b{fill:#fff;}</style></defs><g transform="translate(4468 -12283.768)"><path class="a" d="M414.963,158.751c-29.887,46.191-44.8,70.481-70.482,70.481A70.481,70.481,0,0,1,274,158.751c0-45.912,56.235-65.477,70.481-70.481,34.311-12.052,84.148-12.085,94.548,9.885C445.427,111.668,434.534,128.5,414.963,158.751Z" transform="translate(-4742 12203.586)"/><g transform="translate(-5359 10604.143)"><path class="b" d="M19.885,0,0,11.481V34.442L19.885,45.922,39.77,34.442V11.481ZM35.717,12.257,19.885,21.4,4.053,12.257,19.885,3.116ZM2.7,14.591l15.837,9.143V42.027L2.7,32.884ZM21.234,42.027V23.734l15.837-9.143V32.884Zm0,0" transform="translate(935 1747.77)"/><path class="b" d="M19.885,0,0,11.481V34.442L19.885,45.922,39.77,34.442V11.481ZM35.717,12.257,19.885,21.4,4.053,12.257,19.885,3.116ZM2.7,14.591l15.837,9.143V42.027L2.7,32.884ZM21.234,42.027V23.734l15.837-9.143V32.884Zm0,0" transform="translate(972.607 1714)"/></g></g></svg>