<svg xmlns="http://www.w3.org/2000/svg" width="166.864" height="149.05" viewBox="0 0 166.864 149.05"><defs><style>.a{fill:#ff0080;}.b{fill:#fff;}</style></defs><g transform="translate(-378 -1713.768)"><path class="a" d="M414.963,158.751c-29.887,46.191-44.8,70.481-70.482,70.481A70.481,70.481,0,0,1,274,158.751c0-45.912,56.235-65.477,70.481-70.481,34.311-12.052,84.148-12.085,94.548,9.885C445.427,111.668,434.534,128.5,414.963,158.751Z" transform="translate(104 1633.586)"/><path class="b" d="M25.909,0,0,14.959V44.876L25.909,59.835,51.818,44.876V14.959ZM46.538,15.97,25.909,27.88,5.281,15.97,25.909,4.06ZM3.516,19.011,24.151,30.925V54.76L3.516,42.846ZM27.667,54.76V30.925L48.3,19.012V42.846Zm0,0" transform="translate(435 1758)"/></g></svg>