<svg xmlns="http://www.w3.org/2000/svg" width="49.798" height="49.798" viewBox="0 0 49.798 49.798"><defs><style>.a{fill:#00c6fb;}.b{fill:#fff;}</style></defs><g transform="translate(0 -0.003)"><path class="a" d="M49.8,24.9A24.9,24.9,0,1,0,24.9,49.8,24.9,24.9,0,0,0,49.8,24.9Z" transform="translate(0)"/><path class="b" d="M138.216,90.965a7.972,7.972,0,0,1,1.345-4.245,10.358,10.358,0,0,1,3.925-3.562,12.353,12.353,0,0,1,6.021-1.411,12.859,12.859,0,0,1,5.646,1.18,9.159,9.159,0,0,1,3.782,3.209,7.872,7.872,0,0,1,1.334,4.411,6.819,6.819,0,0,1-.761,3.286,10.058,10.058,0,0,1-1.808,2.437q-1.048,1.026-3.76,3.451a15.281,15.281,0,0,0-1.2,1.2,4.874,4.874,0,0,0-.673.948,4.627,4.627,0,0,0-.342.86q-.122.43-.364,1.511a2.455,2.455,0,0,1-2.624,2.294,2.682,2.682,0,0,1-1.93-.75,2.945,2.945,0,0,1-.783-2.227,7.819,7.819,0,0,1,2.1-5.59,34.851,34.851,0,0,1,2.558-2.437q1.411-1.235,2.04-1.864a6.32,6.32,0,0,0,1.059-1.4,3.387,3.387,0,0,0,.43-1.676,3.9,3.9,0,0,0-1.312-2.977,4.792,4.792,0,0,0-3.385-1.213,4.683,4.683,0,0,0-3.573,1.224,9.759,9.759,0,0,0-1.941,3.606q-.75,2.492-2.845,2.492a2.8,2.8,0,0,1-2.084-.871A2.664,2.664,0,0,1,138.216,90.965Zm10.762,24.171a3.471,3.471,0,0,1-2.349-.871,3.054,3.054,0,0,1-1-2.437,3.139,3.139,0,0,1,.97-2.338,3.277,3.277,0,0,1,2.382-.948,3.239,3.239,0,0,1,3.286,3.286,3.079,3.079,0,0,1-.992,2.426A3.349,3.349,0,0,1,148.978,115.136Z" transform="translate(-124.344 -73.54)"/></g></svg>