<svg xmlns="http://www.w3.org/2000/svg" width="76.992" height="76.992" viewBox="0 0 76.992 76.992"><g transform="translate(0)"><path d="M59.349,0H4.813A4.812,4.812,0,0,0,0,4.812v38.5A4.812,4.812,0,0,0,4.813,48.12H25.665V44.912H4.813a1.6,1.6,0,0,1-1.6-1.6V4.812a1.6,1.6,0,0,1,1.6-1.6H59.349a1.6,1.6,0,0,1,1.6,1.6V33.684h3.208V4.812A4.812,4.812,0,0,0,59.349,0Z" transform="translate(-0.001)" fill="#fff"/></g><g transform="translate(19.248 46.516)"><rect width="3.208" height="9.624" fill="#fff"/></g><g transform="translate(6.416 33.684)"><path d="M47.48,228.812a1.6,1.6,0,0,1-1.6-1.6V224H42.668v3.208a4.812,4.812,0,0,0,4.812,4.812h3.208v-3.208Z" transform="translate(-42.668 -224)" fill="#fff"/></g><g transform="translate(6.416 27.268)"><rect width="3.208" height="3.208" fill="#fff"/></g><g transform="translate(28.87 28.87)"><path d="M221.738,197.094a17.427,17.427,0,1,0,0,24.646A17.428,17.428,0,0,0,221.738,197.094ZM209.4,223.637a14.219,14.219,0,1,1,14.224-14.215A14.219,14.219,0,0,1,209.4,223.637Z" transform="translate(-191.986 -191.989)" fill="#fff"/></g><g transform="translate(59.241 59.239)"><path d="M411.237,404.477l-10.068-10.065a1.6,1.6,0,0,0-2.268,0l-4.475,4.475a1.6,1.6,0,0,0,0,2.268l10.068,10.07a1.6,1.6,0,0,0,1.134.47h0a1.6,1.6,0,0,0,1.134-.475l4.475-4.475A1.6,1.6,0,0,0,411.237,404.477Zm-5.609,3.346-7.8-7.8,2.207-2.207,7.8,7.8Z" transform="translate(-393.956 -393.942)" fill="#fff"/></g><g transform="translate(56.353 56.352)"><g transform="translate(0 0)"><rect width="3.208" height="7.911" transform="translate(0 2.268) rotate(-45)" fill="#fff"/></g></g><g transform="translate(46.516 35.288)"><path d="M309.334,234.667v3.208a8.029,8.029,0,0,1,8.02,8.02h3.208A11.241,11.241,0,0,0,309.334,234.667Z" transform="translate(-309.334 -234.667)" fill="#fff"/></g><g transform="translate(16.04 54.536)"><rect width="12.832" height="3.208" fill="#fff"/></g><g transform="translate(19.248 6.416)"><path d="M132.813,42.667a4.812,4.812,0,1,0,4.812,4.812A4.812,4.812,0,0,0,132.813,42.667Zm0,6.416a1.6,1.6,0,1,1,1.6-1.6A1.6,1.6,0,0,1,132.813,49.083Z" transform="translate(-128.001 -42.667)" fill="#fff"/></g><g transform="translate(30.476 17.644)"><path d="M207.48,117.333a4.812,4.812,0,1,0,4.812,4.812A4.812,4.812,0,0,0,207.48,117.333Zm0,6.416a1.6,1.6,0,1,1,1.6-1.6A1.6,1.6,0,0,1,207.48,123.749Z" transform="translate(-202.668 -117.333)" fill="#fff"/></g><g transform="translate(13.302 11.698)"><g transform="translate(0 0)"><rect width="11.342" height="3.208" transform="translate(0 8.02) rotate(-45)" fill="#fff"/></g></g><g transform="translate(24.523 11.702)"><g transform="translate(0 0)"><rect width="3.208" height="11.342" transform="translate(0 2.268) rotate(-45)" fill="#fff"/></g></g><g transform="translate(41.704 6.416)"><path d="M282.146,42.667a4.812,4.812,0,1,0,4.812,4.812A4.812,4.812,0,0,0,282.146,42.667Zm0,6.416a1.6,1.6,0,1,1,1.6-1.6A1.6,1.6,0,0,1,282.146,49.083Z" transform="translate(-277.334 -42.667)" fill="#fff"/></g><g transform="translate(35.757 11.704)"><g transform="translate(0 0)"><rect width="11.342" height="3.208" transform="translate(0 8.02) rotate(-45)" fill="#fff"/></g></g></svg>