<svg xmlns="http://www.w3.org/2000/svg" width="45.324" height="46.616" viewBox="0 0 45.324 46.616"><defs><style>.a{fill:#fff;}</style></defs><g transform="translate(-7.032)"><g transform="translate(7.032)"><g transform="translate(0)"><path class="a" d="M141.828,31.723a4.411,4.411,0,1,0-8.821,0v14.7a7.36,7.36,0,0,0-7.351,7.351v7.867l5.881,7.351v2.424h2.94V67.962L128.6,60.611V53.776a4.411,4.411,0,0,1,4.411-4.411V59.657h2.94V31.723a1.47,1.47,0,1,1,2.94,0V44.608l4.808,1.311.773-2.838-2.646-.72Z" transform="translate(-114.756 -24.802)"/><rect class="a" width="2.94" height="2.94" transform="matrix(-0.965, -0.263, 0.263, -0.965, 34.613, 22.671)"/><path class="a" d="M399.213,227.028l2.854.779V240.9l-4.411,5.881v3.43h2.94v-2.451l4.411-5.881V225.561l-5.021-1.369Z" transform="translate(-361.762 -203.591)"/><path class="a" d="M14.561,2.079,12.482,0,7.032,5.45l5.45,5.45,2.079-2.079-1.9-1.9h3.8V3.98h-3.8Z" transform="translate(-7.032)"/><rect class="a" width="2.94" height="2.94" transform="translate(12.37 3.98)"/><path class="a" d="M399.557,8.821l2.079,2.079,5.45-5.45L401.636,0l-2.079,2.079,1.9,1.9h-3.8V6.92h3.8Z" transform="translate(-361.762)"/><rect class="a" width="2.94" height="2.94" transform="translate(30.013 3.98)"/></g></g></g></svg>