<svg xmlns="http://www.w3.org/2000/svg" xmlns:xlink="http://www.w3.org/1999/xlink" width="748.372" height="513.136" viewBox="0 0 748.372 513.136"><defs><style>.a{fill:url(#a);}.b{fill:url(#b);}.c{fill:url(#c);}.d{fill:url(#d);}.e{fill:url(#e);}.f,.h{fill:#fff;}.g{fill:#5a5bae;}.h{fill-rule:evenodd;}.i{fill:#19034d;}.j{fill:#cce9f1;}.k{fill:#dcf3f9;}.l{fill:#fbb03b;}.m{fill:#ffd648;}.n{fill:#136d6a;}.o{fill:#9b9ad3;}.p{fill:#8888ba;}.q{fill:#c9937a;}.r{fill:#393768;}.s{fill:#fdcf9b;}</style><linearGradient id="a" x1="0.5" y1="1.783" x2="0.5" y2="0.155" gradientUnits="objectBoundingBox"><stop offset="0" stop-color="#f0f0fa"/><stop offset="0.998" stop-color="#dddcee"/></linearGradient><linearGradient id="b" x1="1.332" y1="0.5" x2="2.332" y2="0.5" xlink:href="#a"/><linearGradient id="c" x1="6.577" y1="0.024" x2="6.963" y2="0.668" xlink:href="#a"/><linearGradient id="d" x1="-5.573" y1="-0.103" x2="-5.555" y2="0.981" xlink:href="#a"/><linearGradient id="e" x1="-12.001" y1="-0.573" x2="-12.263" y2="0.736" xlink:href="#a"/></defs><g transform="translate(-35.61 -49.328)"><ellipse class="a" cx="292.735" cy="16.046" rx="292.735" ry="16.046" transform="translate(116.091 530.371)"/><path class="b" d="M446.81,393.432c-60.316,139.21-204.543,149.963-302.026,88.675S24.472,281.752,93.793,171.49,236.267,238.664,340.946,89.3C413.3-13.94,498.59,273.924,446.81,393.432Z" transform="translate(27.794 27.693)"/><path class="c" d="M599.107,308.6c0,131.341-106.472,237.814-237.814,237.814S123.479,439.946,123.479,308.6,373.826-79.654,361.293,126.825C353.673,252.385,599.107,177.266,599.107,308.6Z" transform="translate(135.022 0)"/><path class="d" d="M555.224,451.558c21.254-42.4,23.745-96.24,23.745-154.843,0-279.014-188.91-188.915-247.6-81.3-65.468,120.056-195.82-60.126-247.6,81.3-20.148,55.03,8.259,112.439,33.633,154.843Z" transform="translate(63.519 94.86)"/><ellipse class="e" cx="33.707" cy="62.093" rx="33.707" ry="62.093" transform="translate(506.649 163.29) rotate(-71.807)"/><rect class="f" width="3.883" height="3.883" transform="matrix(0.707, -0.707, 0.707, 0.707, 755.549, 504.374)"/><rect class="f" width="3.883" height="3.883" transform="translate(755.549 488.233) rotate(-45)"/><rect class="f" width="3.883" height="3.883" transform="translate(755.549 472.091) rotate(-45)"/><rect class="f" width="3.883" height="3.883" transform="translate(755.549 455.949) rotate(-45)"/><rect class="f" width="3.883" height="3.883" transform="matrix(0.707, -0.707, 0.707, 0.707, 755.549, 439.808)"/><rect class="f" width="3.883" height="3.883" transform="matrix(0.707, -0.707, 0.707, 0.707, 755.549, 520.516)"/><rect class="f" width="3.883" height="3.883" transform="matrix(0.707, -0.707, 0.707, 0.707, 732.609, 504.374)"/><rect class="f" width="3.883" height="3.883" transform="translate(732.609 488.233) rotate(-45)"/><rect class="f" width="3.883" height="3.883" transform="translate(732.609 472.091) rotate(-45)"/><rect class="f" width="3.883" height="3.883" transform="translate(732.609 455.949) rotate(-45)"/><rect class="f" width="3.883" height="3.883" transform="matrix(0.707, -0.707, 0.707, 0.707, 732.609, 439.808)"/><rect class="f" width="3.883" height="3.883" transform="matrix(0.707, -0.707, 0.707, 0.707, 732.609, 520.516)"/><rect class="f" width="3.883" height="3.883" transform="translate(709.668 504.374) rotate(-44.998)"/><rect class="f" width="3.883" height="3.883" transform="translate(709.668 488.233) rotate(-45.001)"/><rect class="f" width="3.883" height="3.883" transform="translate(709.668 472.091) rotate(-45.001)"/><rect class="f" width="3.883" height="3.883" transform="translate(709.668 455.949) rotate(-45.001)"/><rect class="f" width="3.883" height="3.883" transform="translate(709.668 439.808) rotate(-45.003)"/><rect class="f" width="3.883" height="3.883" transform="translate(709.668 520.516) rotate(-45.003)"/><rect class="f" width="3.883" height="3.883" transform="translate(686.727 504.374) rotate(-45)"/><rect class="f" width="3.883" height="3.883" transform="matrix(0.707, -0.707, 0.707, 0.707, 686.727, 488.233)"/><rect class="f" width="3.883" height="3.883" transform="matrix(0.707, -0.707, 0.707, 0.707, 686.727, 472.091)"/><rect class="f" width="3.883" height="3.883" transform="matrix(0.707, -0.707, 0.707, 0.707, 686.727, 455.949)"/><rect class="f" width="3.883" height="3.883" transform="translate(686.727 439.808) rotate(-45.005)"/><rect class="f" width="3.883" height="3.883" transform="matrix(0.707, -0.707, 0.707, 0.707, 686.727, 520.516)"/><rect class="f" width="3.883" height="3.883" transform="translate(663.787 504.374) rotate(-45)"/><rect class="f" width="3.883" height="3.883" transform="matrix(0.707, -0.707, 0.707, 0.707, 663.787, 488.233)"/><rect class="f" width="3.883" height="3.883" transform="matrix(0.707, -0.707, 0.707, 0.707, 663.787, 472.091)"/><rect class="f" width="3.883" height="3.883" transform="matrix(0.707, -0.707, 0.707, 0.707, 663.787, 455.949)"/><rect class="f" width="3.883" height="3.883" transform="translate(663.787 439.808) rotate(-45.005)"/><rect class="f" width="3.883" height="3.883" transform="matrix(0.707, -0.707, 0.707, 0.707, 663.787, 520.516)"/><rect class="f" width="3.883" height="3.883" transform="translate(640.846 504.374) rotate(-45)"/><rect class="f" width="3.883" height="3.883" transform="matrix(0.707, -0.707, 0.707, 0.707, 640.846, 488.233)"/><rect class="f" width="3.883" height="3.883" transform="matrix(0.707, -0.707, 0.707, 0.707, 640.846, 472.091)"/><rect class="f" width="3.883" height="3.883" transform="matrix(0.707, -0.707, 0.707, 0.707, 640.846, 455.949)"/><rect class="f" width="3.883" height="3.883" transform="translate(640.846 439.808) rotate(-45.005)"/><rect class="f" width="3.883" height="3.883" transform="matrix(0.707, -0.707, 0.707, 0.707, 640.846, 520.516)"/><rect class="f" width="3.883" height="3.883" transform="matrix(0.707, -0.707, 0.707, 0.707, 617.905, 504.374)"/><rect class="f" width="3.883" height="3.883" transform="translate(617.905 488.233) rotate(-45)"/><rect class="f" width="3.883" height="3.883" transform="translate(617.905 472.091) rotate(-45)"/><rect class="f" width="3.883" height="3.883" transform="translate(617.905 455.949) rotate(-45)"/><rect class="f" width="3.883" height="3.883" transform="matrix(0.707, -0.707, 0.707, 0.707, 617.905, 439.808)"/><rect class="f" width="3.883" height="3.883" transform="translate(617.905 520.516) rotate(-45)"/><rect class="f" width="3.883" height="3.883" transform="matrix(0.707, -0.707, 0.707, 0.707, 594.964, 504.374)"/><rect class="f" width="3.883" height="3.883" transform="translate(594.964 488.233) rotate(-45)"/><rect class="f" width="3.883" height="3.883" transform="translate(594.964 472.091) rotate(-45)"/><rect class="f" width="3.883" height="3.883" transform="translate(594.964 455.949) rotate(-45)"/><rect class="f" width="3.883" height="3.883" transform="matrix(0.707, -0.707, 0.707, 0.707, 594.964, 439.808)"/><rect class="f" width="3.883" height="3.883" transform="matrix(0.707, -0.707, 0.707, 0.707, 594.964, 520.516)"/><rect class="f" width="3.883" height="3.883" transform="matrix(0.707, -0.707, 0.707, 0.707, 572.024, 504.374)"/><rect class="f" width="3.883" height="3.883" transform="translate(572.024 488.233) rotate(-45)"/><rect class="f" width="3.883" height="3.883" transform="translate(572.024 472.091) rotate(-45)"/><rect class="f" width="3.883" height="3.883" transform="translate(572.024 455.949) rotate(-45)"/><rect class="f" width="3.883" height="3.883" transform="matrix(0.707, -0.707, 0.707, 0.707, 572.024, 439.808)"/><rect class="f" width="3.883" height="3.883" transform="matrix(0.707, -0.707, 0.707, 0.707, 572.024, 520.516)"/><rect class="f" width="3.883" height="3.883" transform="matrix(0.707, -0.707, 0.707, 0.707, 778.49, 504.374)"/><rect class="f" width="3.883" height="3.883" transform="translate(778.49 488.233) rotate(-45)"/><rect class="f" width="3.883" height="3.883" transform="translate(778.49 472.091) rotate(-45)"/><rect class="f" width="3.883" height="3.883" transform="translate(778.49 455.949) rotate(-45)"/><rect class="f" width="3.883" height="3.883" transform="matrix(0.707, -0.707, 0.707, 0.707, 778.49, 439.808)"/><rect class="f" width="3.883" height="3.883" transform="matrix(0.707, -0.707, 0.707, 0.707, 778.49, 520.516)"/><rect class="f" width="3.883" height="3.883" transform="matrix(0.707, -0.707, 0.707, 0.707, 549.083, 504.374)"/><rect class="f" width="3.883" height="3.883" transform="translate(549.083 488.233) rotate(-45)"/><rect class="f" width="3.883" height="3.883" transform="translate(549.083 472.091) rotate(-45)"/><rect class="f" width="3.883" height="3.883" transform="translate(549.083 455.949) rotate(-45)"/><rect class="f" width="3.883" height="3.883" transform="matrix(0.707, -0.707, 0.707, 0.707, 549.083, 439.808)"/><rect class="f" width="3.883" height="3.883" transform="translate(549.083 520.516) rotate(-45.002)"/><rect class="f" width="3.883" height="3.883" transform="matrix(0.707, -0.707, 0.707, 0.707, 58.551, 163.726)"/><rect class="f" width="3.883" height="3.883" transform="matrix(0.707, -0.707, 0.707, 0.707, 58.551, 179.868)"/><rect class="f" width="3.883" height="3.883" transform="translate(58.551 196.01) rotate(-45)"/><rect class="f" width="3.883" height="3.883" transform="translate(58.551 212.151) rotate(-45)"/><rect class="f" width="3.883" height="3.883" transform="translate(58.551 228.293) rotate(-45)"/><rect class="f" width="3.883" height="3.883" transform="matrix(0.707, -0.707, 0.707, 0.707, 58.551, 147.585)"/><rect class="f" width="3.883" height="3.883" transform="matrix(0.707, -0.707, 0.707, 0.707, 81.491, 163.726)"/><rect class="f" width="3.883" height="3.883" transform="matrix(0.707, -0.707, 0.707, 0.707, 81.491, 179.868)"/><rect class="f" width="3.883" height="3.883" transform="matrix(0.707, -0.707, 0.707, 0.707, 81.491, 196.01)"/><rect class="f" width="3.883" height="3.883" transform="matrix(0.707, -0.707, 0.707, 0.707, 81.491, 212.152)"/><rect class="f" width="3.883" height="3.883" transform="matrix(0.707, -0.707, 0.707, 0.707, 81.491, 228.293)"/><rect class="f" width="3.883" height="3.883" transform="matrix(0.707, -0.707, 0.707, 0.707, 81.491, 147.585)"/><rect class="f" width="3.883" height="3.883" transform="translate(104.432 163.726) rotate(-45)"/><rect class="f" width="3.883" height="3.883" transform="translate(104.432 179.868) rotate(-45)"/><rect class="f" width="3.883" height="3.883" transform="matrix(0.707, -0.707, 0.707, 0.707, 104.432, 196.01)"/><rect class="f" width="3.883" height="3.883" transform="matrix(0.707, -0.707, 0.707, 0.707, 104.432, 212.152)"/><rect class="f" width="3.883" height="3.883" transform="matrix(0.707, -0.707, 0.707, 0.707, 104.432, 228.293)"/><rect class="f" width="3.883" height="3.883" transform="matrix(0.707, -0.707, 0.707, 0.707, 104.432, 147.585)"/><rect class="f" width="3.883" height="3.883" transform="translate(127.373 163.726) rotate(-45)"/><rect class="f" width="3.883" height="3.883" transform="translate(127.373 179.868) rotate(-45)"/><rect class="f" width="3.883" height="3.883" transform="translate(127.373 196.01) rotate(-45.002)"/><rect class="f" width="3.883" height="3.883" transform="translate(127.373 212.152) rotate(-45.002)"/><rect class="f" width="3.883" height="3.883" transform="translate(127.373 228.293) rotate(-45.002)"/><rect class="f" width="3.883" height="3.883" transform="matrix(0.707, -0.707, 0.707, 0.707, 127.373, 147.585)"/><rect class="f" width="3.883" height="3.883" transform="matrix(0.707, -0.707, 0.707, 0.707, 150.314, 163.726)"/><rect class="f" width="3.883" height="3.883" transform="matrix(0.707, -0.707, 0.707, 0.707, 150.314, 179.868)"/><rect class="f" width="3.883" height="3.883" transform="translate(150.314 196.01) rotate(-45)"/><rect class="f" width="3.883" height="3.883" transform="translate(150.313 212.151) rotate(-45)"/><rect class="f" width="3.883" height="3.883" transform="translate(150.314 228.293) rotate(-45)"/><rect class="f" width="3.883" height="3.883" transform="translate(150.313 147.585) rotate(-45)"/><rect class="f" width="3.883" height="3.883" transform="matrix(0.707, -0.707, 0.707, 0.707, 173.254, 163.726)"/><rect class="f" width="3.883" height="3.883" transform="matrix(0.707, -0.707, 0.707, 0.707, 173.254, 179.868)"/><rect class="f" width="3.883" height="3.883" transform="translate(173.254 196.01) rotate(-45)"/><rect class="f" width="3.883" height="3.883" transform="translate(173.254 212.151) rotate(-45)"/><rect class="f" width="3.883" height="3.883" transform="translate(173.254 228.293) rotate(-45)"/><rect class="f" width="3.883" height="3.883" transform="matrix(0.707, -0.707, 0.707, 0.707, 173.254, 147.585)"/><rect class="f" width="3.883" height="3.883" transform="matrix(0.707, -0.707, 0.707, 0.707, 196.195, 163.726)"/><rect class="f" width="3.883" height="3.883" transform="matrix(0.707, -0.707, 0.707, 0.707, 196.195, 179.868)"/><rect class="f" width="3.883" height="3.883" transform="translate(196.195 196.01) rotate(-45)"/><rect class="f" width="3.883" height="3.883" transform="translate(196.195 212.151) rotate(-45)"/><rect class="f" width="3.883" height="3.883" transform="translate(196.195 228.293) rotate(-45)"/><rect class="f" width="3.883" height="3.883" transform="matrix(0.707, -0.707, 0.707, 0.707, 196.195, 147.585)"/><rect class="f" width="3.883" height="3.883" transform="matrix(0.707, -0.707, 0.707, 0.707, 219.136, 163.726)"/><rect class="f" width="3.883" height="3.883" transform="matrix(0.707, -0.707, 0.707, 0.707, 219.136, 179.868)"/><rect class="f" width="3.883" height="3.883" transform="translate(219.136 196.01) rotate(-45)"/><rect class="f" width="3.883" height="3.883" transform="translate(219.136 212.151) rotate(-45)"/><rect class="f" width="3.883" height="3.883" transform="translate(219.136 228.293) rotate(-45)"/><rect class="f" width="3.883" height="3.883" transform="matrix(0.707, -0.707, 0.707, 0.707, 219.136, 147.585)"/><rect class="f" width="3.883" height="3.883" transform="translate(242.076 163.726) rotate(-44.997)"/><rect class="f" width="3.883" height="3.883" transform="translate(242.076 179.868) rotate(-44.997)"/><rect class="f" width="3.883" height="3.883" transform="translate(242.076 196.01) rotate(-45)"/><rect class="f" width="3.883" height="3.883" transform="translate(242.076 212.151) rotate(-45)"/><rect class="f" width="3.883" height="3.883" transform="translate(242.076 228.293) rotate(-45)"/><rect class="f" width="3.883" height="3.883" transform="matrix(0.707, -0.707, 0.707, 0.707, 242.076, 147.585)"/><rect class="f" width="3.883" height="3.883" transform="matrix(0.707, -0.707, 0.707, 0.707, 35.61, 163.726)"/><rect class="f" width="3.883" height="3.883" transform="matrix(0.707, -0.707, 0.707, 0.707, 35.61, 179.868)"/><rect class="f" width="3.883" height="3.883" transform="translate(35.61 196.01) rotate(-45)"/><rect class="f" width="3.883" height="3.883" transform="translate(35.61 212.151) rotate(-45)"/><rect class="f" width="3.883" height="3.883" transform="translate(35.61 228.293) rotate(-45)"/><rect class="f" width="3.883" height="3.883" transform="matrix(0.707, -0.707, 0.707, 0.707, 35.61, 147.585)"/><rect class="f" width="3.883" height="3.883" transform="matrix(0.707, -0.707, 0.707, 0.707, 265.017, 163.726)"/><rect class="f" width="3.883" height="3.883" transform="matrix(0.707, -0.707, 0.707, 0.707, 265.017, 179.868)"/><rect class="f" width="3.883" height="3.883" transform="translate(265.017 196.01) rotate(-45)"/><rect class="f" width="3.883" height="3.883" transform="translate(265.017 212.151) rotate(-45)"/><rect class="f" width="3.883" height="3.883" transform="translate(265.017 228.293) rotate(-45)"/><rect class="f" width="3.883" height="3.883" transform="matrix(0.707, -0.707, 0.707, 0.707, 265.017, 147.585)"/><path class="g" d="M59.878,178.955v3.655a3.247,3.247,0,0,0,3.247,3.247h6.007a3.215,3.215,0,0,1,3.067,2.222,23.774,23.774,0,0,0,1.555,3.742,3.211,3.211,0,0,1-.591,3.752l-4.251,4.254a3.243,3.243,0,0,0,0,4.589L71.5,207a3.246,3.246,0,0,0,4.591,0l4.251-4.251a3.215,3.215,0,0,1,3.752-.591,24.02,24.02,0,0,0,3.742,1.557,3.21,3.21,0,0,1,2.222,3.067v6a3.247,3.247,0,0,0,3.247,3.247h3.655a3.247,3.247,0,0,0,3.247-3.247v-6a3.21,3.21,0,0,1,2.222-3.067,24.009,24.009,0,0,0,3.742-1.555,3.211,3.211,0,0,1,3.752.588L114.169,207a3.246,3.246,0,0,0,4.591,0l2.585-2.585a3.243,3.243,0,0,0,0-4.589l-4.251-4.254a3.215,3.215,0,0,1-.591-3.752,23.775,23.775,0,0,0,1.555-3.742,3.215,3.215,0,0,1,3.067-2.222h6.007a3.247,3.247,0,0,0,3.247-3.247v-3.655a3.247,3.247,0,0,0-3.247-3.247h-6.007a3.212,3.212,0,0,1-3.067-2.222,23.873,23.873,0,0,0-1.555-3.742,3.215,3.215,0,0,1,.591-3.752l4.251-4.251a3.246,3.246,0,0,0,0-4.591l-2.585-2.585a3.246,3.246,0,0,0-4.591,0l-4.251,4.251a3.214,3.214,0,0,1-3.752.591,23.768,23.768,0,0,0-3.742-1.555,3.21,3.21,0,0,1-2.222-3.067v-6.007a3.246,3.246,0,0,0-3.247-3.244H93.3a3.246,3.246,0,0,0-3.247,3.244v6.007a3.21,3.21,0,0,1-2.222,3.067,23.769,23.769,0,0,0-3.742,1.555,3.215,3.215,0,0,1-3.752-.591l-4.251-4.251a3.246,3.246,0,0,0-4.591,0l-2.585,2.585a3.246,3.246,0,0,0,0,4.591l4.251,4.251a3.211,3.211,0,0,1,.591,3.752,23.873,23.873,0,0,0-1.555,3.742,3.212,3.212,0,0,1-3.067,2.222H63.125A3.247,3.247,0,0,0,59.878,178.955Zm37.692-10.41a12.48,12.48,0,1,1-14.682,14.679A12.495,12.495,0,0,1,97.57,168.545Z" transform="translate(37.291 147.835)"/><path class="g" d="M202.959,89.8l-69.891.8,62.479,40.352,1.356-18.943,11.771-6.455L154.259,93.755l47.3,5.352,3.256-3.511,5.484-5.914Z" transform="translate(149.757 62.007)"/><path class="h" d="M172.476,97.869l-.55,1.984c-1.1-.312-2.2-.6-3.308-.885l.515-1.994Q170.807,97.4,172.476,97.869Z" transform="translate(204.384 73.215)"/><path class="h" d="M166.714,96.4l3.37.791-.485,2-3.335-.783Z" transform="translate(200.767 72.331)"/><path class="h" d="M164.276,95.906l3.4.674-.421,2.013-3.356-.665Z" transform="translate(197.137 71.574)"/><path class="h" d="M175.552,101.1l.73-1.923,3.23,1.278-.782,1.9Z" transform="translate(215.038 76.598)"/><path class="h" d="M173.921,98.357c1.091.378,2.194.725,3.277,1.131l-.693,1.935c-1.068-.4-2.159-.741-3.234-1.116Z" transform="translate(211.535 75.34)"/><path class="h" d="M174.863,98.636l-.619,1.963c-1.086-.353-2.179-.677-3.275-1l.578-1.973C172.656,97.951,173.762,98.281,174.863,98.636Z" transform="translate(207.996 74.221)"/><path class="h" d="M183.159,102.383c.974.647,1.976,1.253,2.93,1.935L184.9,106c-.918-.657-1.89-1.245-2.833-1.872Z" transform="translate(225.056 81.526)"/><path class="h" d="M183.99,102.834l-1.02,1.786c-.972-.586-1.989-1.1-3-1.623l.944-1.826C181.95,101.708,182.988,102.23,183.99,102.834Z" transform="translate(221.834 79.662)"/><path class="h" d="M177.8,102l.827-1.882c1.07.441,2.113.961,3.163,1.451l-.888,1.854C179.873,102.941,178.856,102.433,177.8,102Z" transform="translate(218.498 78.041)"/><path class="h" d="M187.23,108.566l1.778-1.035c.586,1.058,1.108,2.166,1.588,3.28l-1.918.743C188.237,110.542,187.765,109.535,187.23,108.566Z" transform="translate(232.984 89.437)"/><path class="h" d="M185.809,106.9l1.5-1.4c.822.86,1.537,1.831,2.308,2.745l-1.654,1.223C187.242,108.616,186.58,107.713,185.809,106.9Z" transform="translate(230.8 86.317)"/><path class="h" d="M184.055,105.429l1.272-1.616,2.7,2.291-1.4,1.511Z" transform="translate(228.105 83.723)"/><path class="h" d="M190.471,115.452c-.469,1.1-.989,2.176-1.486,3.265l-1.829-.944c.462-1.017.951-2.027,1.393-3.052Z" transform="translate(232.87 100.485)"/><path class="h" d="M188.614,112.437l2.05.2-.284,1.8a9.674,9.674,0,0,1-.375,1.778l-1.989-.515a8.307,8.307,0,0,0,.337-1.626Z" transform="translate(234.19 96.975)"/><path class="h" d="M188.363,112.032l-.251-1.631,2-.462.287,1.819a8.689,8.689,0,0,1,.175,1.826l-2.055.089A7.292,7.292,0,0,0,188.363,112.032Z" transform="translate(234.339 93.137)"/><path class="h" d="M186.544,122.012c-.845.807-1.656,1.656-2.562,2.39l-1.362-1.542c.885-.713,1.667-1.537,2.488-2.318Z" transform="translate(225.9 109.428)"/><path class="h" d="M188.189,120.1l-2.339,2.634-1.5-1.408,2.253-2.536Z" transform="translate(228.56 106.736)"/><path class="h" d="M187.762,116.85l1.753,1.076-.924,1.519-1.057,1.418-1.659-1.216,1.013-1.355Z" transform="translate(230.902 103.757)"/><path class="h" d="M180.743,126.7l-2.947,1.839-1.057-1.765,2.9-1.81Z" transform="translate(216.864 116.223)"/><path class="h" d="M182.789,125.292l-2.866,1.974-1.143-1.71,2.813-1.937Z" transform="translate(219.999 114.157)"/><path class="h" d="M184.731,123.748c-.875.771-1.837,1.428-2.75,2.149l-1.243-1.639c.893-.705,1.837-1.347,2.686-2.1Z" transform="translate(223.008 111.913)"/><path class="h" d="M173.4,128.47l.894,1.853-3.133,1.467-.864-1.867Z" transform="translate(206.966 121.612)"/><path class="h" d="M176.486,129.2c-1.015.558-2.052,1.06-3.085,1.573l-.921-1.839c1.022-.507,2.05-1,3.049-1.555Z" transform="translate(210.32 119.937)"/><path class="h" d="M178.629,128c-1,.578-2,1.167-3.024,1.7l-.984-1.809c1.015-.523,2-1.1,2.986-1.672Z" transform="translate(213.608 118.155)"/><path class="h" d="M166.779,131.361l.75,1.915-3.22,1.249-.727-1.924Z" transform="translate(196.645 126.055)"/><path class="h" d="M169.011,130.454l.793,1.9-3.2,1.314-.768-1.908Z" transform="translate(200.115 124.66)"/><path class="h" d="M171.212,129.5l.84,1.878-3.169,1.382-.813-1.889Z" transform="translate(203.542 123.191)"/><path class="h" d="M159.964,133.819l.64,1.955-3.285,1.053-.623-1.96Z" transform="translate(186.065 129.831)"/><path class="h" d="M162.25,133.042l.674,1.943-3.266,1.114-.655-1.95Z" transform="translate(189.608 128.637)"/><path class="h" d="M164.512,132.227l.71,1.93-3.245,1.178-.69-1.938Z" transform="translate(193.12 127.386)"/><path class="h" d="M153.013,135.924l.549,1.982-3.328.906-.533-1.986Z" transform="translate(175.317 133.066)"/><path class="h" d="M155.338,135.256l.579,1.974-3.314.957-.562-1.978Z" transform="translate(178.91 132.04)"/><path class="h" d="M157.644,134.559l.609,1.965-3.3,1.01-.592-1.97Z" transform="translate(182.478 130.968)"/><path class="h" d="M142.623,138.453l3.348-.741.456,2.006-3.374.747Z" transform="translate(164.439 135.814)"/><path class="h" d="M148.324,137.152l.49,2-3.354.808-.472-2Z" transform="translate(168.073 134.954)"/><path class="h" d="M150.661,136.558l.52,1.99-3.34.859-.5-1.994Z" transform="translate(171.683 134.04)"/><rect class="i" width="392.878" height="272.079" rx="4.897" transform="translate(185.12 246.498)"/><path class="i" d="M128.971,257.918l16.506-7.856a3.322,3.322,0,0,1,1.431-.322h66.774V234.325h54.674V249.74h66.579a3.334,3.334,0,0,1,1.415.317l16.7,7.853a3.328,3.328,0,0,1-1.415,6.339H130.4A3.327,3.327,0,0,1,128.971,257.918Z" transform="translate(140.539 284.272)"/><path class="j" d="M345.4,133.483V353.931H322.275L176.327,133.483Z" transform="translate(216.23 129.315)"/><path class="j" d="M167.468,133.483,313.415,353.931H281.45L135.5,133.483Z" transform="translate(153.497 129.315)"/><path class="j" d="M115.351,133.483H154.7L300.649,353.931H101V133.483Z" transform="translate(100.486 129.315)"/><path class="k" d="M219.7,133.483,365.644,353.931H294.051L148.1,133.483Z" transform="translate(172.861 129.315)"/><path class="k" d="M155.985,133.483,301.933,353.931H268.12L122.173,133.483Z" transform="translate(133.015 129.315)"/><path class="l" d="M278.411,277.4c1.623-2.057,3.5-3.983,4.518-6.4,1.418-3.374.946-7.255-.132-10.75s-2.724-6.806-3.663-10.342a27.514,27.514,0,0,1,6.146-25.146,40.275,40.275,0,0,0,3.967-4.467c2.575-3.851,2.59-8.858,1.905-13.436s-1.981-9.132-1.7-13.754a20.639,20.639,0,0,1,7.392-14.52c4.223-3.478,9.9-4.7,15.382-4.779V173.8c.058,0,.117,0,.172,0l.175,0v.005c5.482.015,11.171,1.174,15.435,4.6a20.664,20.664,0,0,1,7.557,14.436c.327,4.619-.916,9.185-1.55,13.771s-.563,9.6,2.055,13.416a40.334,40.334,0,0,0,4.018,4.421,27.512,27.512,0,0,1,6.43,25.075c-.9,3.546-2.509,6.874-3.546,10.382s-1.466,7.394-.01,10.75c1.04,2.4,2.942,4.307,4.589,6.347,6.1,7.541,8.721,18.852,3.442,26.987a27.62,27.62,0,0,1-8.5,7.785,50.761,50.761,0,0,1-16.521,7.146c-2.585.563-5.261,1.07-7.858.416a18.325,18.325,0,0,0-4.891-.183,18.27,18.27,0,0,0-4.888.238c-2.59.685-5.269.205-7.861-.33a50.751,50.751,0,0,1-16.6-6.956,27.59,27.59,0,0,1-8.589-7.691C269.9,296.348,272.4,285.009,278.411,277.4Z" transform="translate(363.739 191.269)"/><path class="m" d="M277.362,265.975l25.351,27.16.9-53.409c-3.823-5.083-19.009-25.3-19.009-25.3l19.091,20.453.548-32.451c-1.656-2.2-13.733-18.279-13.733-18.279L304.3,198.922l.383-22.807.459,29.257,13.2-14.461s-10.547,14.378-13.142,17.911l.518,32.979,18.873-20.681s-15.166,20.671-18.8,25.615l.847,54.1,25.772-28.245s-23.022,31.386-25.666,34.98l.124,7.985-4.533.025.271-16C297.675,293.018,277.362,265.975,277.362,265.975Z" transform="translate(371.483 194.825)"/><rect class="l" width="4.549" height="8.724" transform="translate(678.304 519.099) rotate(180)"/><path class="n" d="M320.421,234.566H280.139l7.546,31.848h25.079Z" transform="translate(375.749 284.641)"/><rect class="o" width="40.282" height="2.416" transform="translate(696.17 519.207) rotate(180)"/><path class="f" d="M276.4,120.836l-9.583,5.241,9.583,5.241,5.241,9.583,5.241-9.583,9.583-5.241-9.583-5.241-5.241-9.583Z" transform="translate(355.276 95.156)"/><path class="f" d="M264.8,125.106l-5.549,3.035,5.549,3.035,3.035,5.549,3.035-5.549,5.549-3.035-5.549-3.035-3.035-5.549Z" transform="translate(343.651 107.917)"/><path class="f" d="M138.688,115.975l9.583,5.241-9.583,5.241-5.241,9.583-5.241-9.583-9.583-5.241,9.583-5.241,5.241-9.583Z" transform="translate(127.56 87.685)"/><path class="f" d="M142.727,120.244l5.549,3.035-5.549,3.035-3.035,5.549-3.035-5.549-5.549-3.035,5.549-3.035,3.035-5.549Z" transform="translate(146.746 100.446)"/><path class="f" d="M257.994,157.989c0,9.875,12.333,35.728,17.881,35.728,5.451,0,17.881-25.853,17.881-35.728a17.881,17.881,0,1,0-35.761,0Zm7.2,1.2a10.677,10.677,0,1,1,10.677,10.677A10.675,10.675,0,0,1,265.2,159.194Z" transform="translate(341.721 139.495)"/><circle class="l" cx="32.357" cy="32.357" r="32.357" transform="translate(493.134 174.998) rotate(-26.778)"/><path class="m" d="M276.75,120.959A27.176,27.176,0,1,1,249.56,93.8,27.176,27.176,0,0,1,276.75,120.959Z" transform="translate(287.024 68.333)"/><path class="f" d="M246.331,119.175a7.214,7.214,0,0,1-.576,2.935,6.514,6.514,0,0,1-1.639,2.255,8.072,8.072,0,0,1-2.557,1.517,12.1,12.1,0,0,1-3.315.723l.018,4.054a.716.716,0,0,1-.084.266.5.5,0,0,1-.246.19,2.089,2.089,0,0,1-.495.122,5.177,5.177,0,0,1-.786.048,6.662,6.662,0,0,1-.974-.056,1.972,1.972,0,0,1-.578-.162.515.515,0,0,1-.274-.274.671.671,0,0,1-.03-.378l-.018-3.846a14.456,14.456,0,0,1-1.535-.294,12.407,12.407,0,0,1-1.306-.4,8.189,8.189,0,0,1-1.015-.446,2.756,2.756,0,0,1-.644-.444,1.29,1.29,0,0,1-.312-.644,6.375,6.375,0,0,1-.1-1.258c0-.431.013-.784.038-1.063a2.292,2.292,0,0,1,.132-.644.616.616,0,0,1,.238-.312.632.632,0,0,1,.33-.086,1.626,1.626,0,0,1,.72.284,12.671,12.671,0,0,0,1.213.624,11.428,11.428,0,0,0,1.791.627,9.633,9.633,0,0,0,2.473.282,5.418,5.418,0,0,0,3.3-.824,2.621,2.621,0,0,0,1.081-2.189,2.353,2.353,0,0,0-.467-1.5,4.26,4.26,0,0,0-1.24-1.032,11.007,11.007,0,0,0-1.753-.794c-.652-.233-1.316-.484-2-.748a16.76,16.76,0,0,1-2-.928,7.591,7.591,0,0,1-1.755-1.3,5.83,5.83,0,0,1-1.24-1.885,6.989,6.989,0,0,1-.467-2.681,6.792,6.792,0,0,1,.474-2.587,5.942,5.942,0,0,1,1.362-2.037,6.847,6.847,0,0,1,2.187-1.413,10.885,10.885,0,0,1,2.948-.731l-.1-3.6a.636.636,0,0,1,.084-.256.609.609,0,0,1,.246-.19,1.677,1.677,0,0,1,.484-.122,6.617,6.617,0,0,1,.794-.038,6.922,6.922,0,0,1,.977.056,2.057,2.057,0,0,1,.6.16.49.49,0,0,1,.266.274,1.2,1.2,0,0,1,.056.381l.1,3.374c.355.051.728.122,1.119.208a10.065,10.065,0,0,1,1.1.312,9.119,9.119,0,0,1,.928.381,2.172,2.172,0,0,1,.578.358,1.415,1.415,0,0,1,.246.322,1.461,1.461,0,0,1,.134.4,4.337,4.337,0,0,1,.066.568c.013.221.018.477.018.769,0,.391-.008.713-.028.964a2.1,2.1,0,0,1-.1.578.547.547,0,0,1-.17.266.389.389,0,0,1-.226.066,1.75,1.75,0,0,1-.72-.246q-.476-.243-1.167-.53a14.217,14.217,0,0,0-1.59-.53,7.584,7.584,0,0,0-1.981-.244,6.5,6.5,0,0,0-1.684.19,3.155,3.155,0,0,0-1.136.53,2.11,2.11,0,0,0-.644.814,2.558,2.558,0,0,0-.208,1.043,2.348,2.348,0,0,0,.474,1.5A4.115,4.115,0,0,0,237,110.938a12.409,12.409,0,0,0,1.781.794c.665.238,1.339.492,2.027.756a19.609,19.609,0,0,1,2.029.918,7.359,7.359,0,0,1,1.771,1.289,5.832,5.832,0,0,1,1.253,1.854A6.589,6.589,0,0,1,246.331,119.175Z" transform="translate(298.502 74.696)"/><path class="g" d="M0,0H145.576a0,0,0,0,1,0,0V267.264a2,2,0,0,1-2,2H2a2,2,0,0,1-2-2V0A0,0,0,0,1,0,0Z" transform="translate(454.62 483.858) rotate(180)"/><path class="j" d="M155.224,122.645H261.816a2.074,2.074,0,0,1,2.075,2.072v13.926a2.074,2.074,0,0,1-2.075,2.072H155.224Z" transform="translate(183.802 112.661)"/><path class="k" d="M148.208,122.645h16.635v18.071H148.208a2.073,2.073,0,0,1-2.072-2.072V124.717A2.073,2.073,0,0,1,148.208,122.645Z" transform="translate(169.837 112.661)"/><path class="g" d="M196.032,125.078a2.629,2.629,0,1,1-2.628,2.628A2.631,2.631,0,0,1,196.032,125.078Z" transform="translate(242.471 116.4)"/><path class="m" d="M192.892,125.078a2.629,2.629,0,1,1-2.63,2.628A2.631,2.631,0,0,1,192.892,125.078Z" transform="translate(237.643 116.4)"/><path class="p" d="M189.751,125.078a2.629,2.629,0,1,1-2.63,2.628A2.631,2.631,0,0,1,189.751,125.078Z" transform="translate(232.816 116.4)"/><path class="j" d="M155.224,134.527H261.816a2.074,2.074,0,0,1,2.075,2.075v13.924a2.074,2.074,0,0,1-2.075,2.075H155.224Z" transform="translate(183.802 130.919)"/><path class="k" d="M148.208,134.527h16.635V152.6H148.208a2.074,2.074,0,0,1-2.072-2.075V136.6A2.074,2.074,0,0,1,148.208,134.527Z" transform="translate(169.837 130.919)"/><path class="g" d="M196.032,136.96a2.629,2.629,0,1,1-2.628,2.63A2.631,2.631,0,0,1,196.032,136.96Z" transform="translate(242.471 134.658)"/><path class="m" d="M192.892,136.96a2.629,2.629,0,1,1-2.63,2.63A2.631,2.631,0,0,1,192.892,136.96Z" transform="translate(237.643 134.658)"/><path class="p" d="M189.751,136.96a2.629,2.629,0,1,1-2.63,2.63A2.631,2.631,0,0,1,189.751,136.96Z" transform="translate(232.816 134.658)"/><path class="j" d="M155.224,146.41H261.816a2.074,2.074,0,0,1,2.075,2.075v13.924a2.074,2.074,0,0,1-2.075,2.075H155.224Z" transform="translate(183.802 149.179)"/><path class="k" d="M148.208,146.41h16.635v18.073H148.208a2.074,2.074,0,0,1-2.072-2.075V148.485A2.074,2.074,0,0,1,148.208,146.41Z" transform="translate(169.837 149.179)"/><path class="g" d="M196.032,148.843a2.629,2.629,0,1,1-2.628,2.63A2.631,2.631,0,0,1,196.032,148.843Z" transform="translate(242.471 152.918)"/><path class="m" d="M192.892,148.843a2.629,2.629,0,1,1-2.63,2.63A2.631,2.631,0,0,1,192.892,148.843Z" transform="translate(237.643 152.918)"/><path class="p" d="M189.751,148.843a2.629,2.629,0,1,1-2.63,2.63A2.631,2.631,0,0,1,189.751,148.843Z" transform="translate(232.816 152.918)"/><circle class="f" cx="9.768" cy="9.768" r="9.768" transform="translate(372.064 453.342)"/><path class="g" d="M154.5,176.765s7.092,50.063,16.686,62.492,27.951,19.824,27.951,19.824,18.355-7.392,27.951-19.824,16.686-62.492,16.686-62.492L199.139,160.64,154.5,176.765" transform="translate(182.693 171.045)"/><path class="f" d="M195.3,163.4,157,177.232s6.085,42.953,14.317,53.617S195.3,247.857,195.3,247.857s15.75-6.342,23.981-17.008S233.6,177.232,233.6,177.232Z" transform="translate(186.533 175.279)"/><circle class="l" cx="18.835" cy="18.835" r="18.835" transform="translate(359.164 390.117) rotate(-76.674)"/><path class="f" d="M175.922,193.82a.792.792,0,0,1-1.1-.018l-8.244-8.242L169.131,183l5.778,5.778a.792.792,0,0,0,1.1.018l15.851-14.758,2.463,2.648Z" transform="translate(201.248 191.639)"/><path class="g" d="M0,0H94.261a0,0,0,0,1,0,0V172.349a2,2,0,0,1-2,2H2a2,2,0,0,1-2-2V0A0,0,0,0,1,0,0Z" transform="translate(303.756 483.858) rotate(180)"/><path class="j" d="M111.813,157.184h69.019a1.343,1.343,0,0,1,1.342,1.344v9.015a1.345,1.345,0,0,1-1.342,1.344H111.813Z" transform="translate(117.096 165.735)"/><path class="k" d="M107.27,157.184h10.773v11.7H107.27a1.345,1.345,0,0,1-1.342-1.344v-9.015A1.343,1.343,0,0,1,107.27,157.184Z" transform="translate(108.053 165.735)"/><path class="g" d="M138.236,158.76a1.7,1.7,0,1,1-1.7,1.7A1.7,1.7,0,0,1,138.236,158.76Z" transform="translate(155.083 168.157)"/><path class="m" d="M136.2,158.76a1.7,1.7,0,1,1-1.7,1.7A1.7,1.7,0,0,1,136.2,158.76Z" transform="translate(151.957 168.157)"/><path class="p" d="M134.171,158.76a1.7,1.7,0,1,1-1.7,1.7A1.7,1.7,0,0,1,134.171,158.76Z" transform="translate(148.832 168.157)"/><path class="j" d="M111.813,164.878h69.019a1.343,1.343,0,0,1,1.342,1.344v9.015a1.343,1.343,0,0,1-1.342,1.344H111.813Z" transform="translate(117.096 177.558)"/><path class="k" d="M107.27,164.878h10.773v11.7H107.27a1.343,1.343,0,0,1-1.342-1.344v-9.015A1.343,1.343,0,0,1,107.27,164.878Z" transform="translate(108.053 177.558)"/><path class="g" d="M138.236,166.454a1.7,1.7,0,1,1-1.7,1.7A1.7,1.7,0,0,1,138.236,166.454Z" transform="translate(155.083 179.979)"/><path class="m" d="M136.2,166.454a1.7,1.7,0,1,1-1.7,1.7A1.7,1.7,0,0,1,136.2,166.454Z" transform="translate(151.957 179.979)"/><path class="p" d="M134.171,166.454a1.7,1.7,0,1,1-1.7,1.7A1.7,1.7,0,0,1,134.171,166.454Z" transform="translate(148.832 179.979)"/><path class="j" d="M111.813,172.572h69.019a1.343,1.343,0,0,1,1.342,1.344v9.015a1.343,1.343,0,0,1-1.342,1.344H111.813Z" transform="translate(117.096 189.38)"/><path class="k" d="M107.27,172.572h10.773v11.7H107.27a1.343,1.343,0,0,1-1.342-1.344v-9.015A1.343,1.343,0,0,1,107.27,172.572Z" transform="translate(108.053 189.38)"/><path class="g" d="M138.236,174.148a1.7,1.7,0,1,1-1.7,1.7A1.7,1.7,0,0,1,138.236,174.148Z" transform="translate(155.083 191.802)"/><path class="m" d="M136.2,174.148a1.7,1.7,0,1,1-1.7,1.7A1.7,1.7,0,0,1,136.2,174.148Z" transform="translate(151.957 191.802)"/><path class="p" d="M134.171,174.148a1.7,1.7,0,1,1-1.7,1.7A1.7,1.7,0,0,1,134.171,174.148Z" transform="translate(148.832 191.802)"/><circle class="f" cx="6.325" cy="6.325" r="6.325" transform="translate(250.3 464.099)"/><path class="g" d="M0,0H94.261a0,0,0,0,1,0,0V172.349a2,2,0,0,1-2,2H2a2,2,0,0,1-2-2V0A0,0,0,0,1,0,0Z" transform="translate(554.17 483.858) rotate(180)"/><path class="j" d="M210.532,157.184h69.019a1.343,1.343,0,0,1,1.344,1.344v9.015a1.345,1.345,0,0,1-1.344,1.344H210.532Z" transform="translate(268.79 165.735)"/><path class="k" d="M205.991,157.184h10.771v11.7H205.991a1.345,1.345,0,0,1-1.344-1.344v-9.015A1.343,1.343,0,0,1,205.991,157.184Z" transform="translate(259.747 165.735)"/><path class="g" d="M236.956,158.76a1.7,1.7,0,1,1-1.7,1.7A1.7,1.7,0,0,1,236.956,158.76Z" transform="translate(306.778 168.157)"/><path class="m" d="M234.922,158.76a1.7,1.7,0,1,1-1.7,1.7A1.7,1.7,0,0,1,234.922,158.76Z" transform="translate(303.653 168.157)"/><path class="p" d="M232.888,158.76a1.7,1.7,0,1,1-1.7,1.7A1.7,1.7,0,0,1,232.888,158.76Z" transform="translate(300.527 168.157)"/><path class="j" d="M210.532,164.878h69.019a1.343,1.343,0,0,1,1.344,1.344v9.015a1.343,1.343,0,0,1-1.344,1.344H210.532Z" transform="translate(268.79 177.558)"/><path class="k" d="M205.991,164.878h10.771v11.7H205.991a1.343,1.343,0,0,1-1.344-1.344v-9.015A1.343,1.343,0,0,1,205.991,164.878Z" transform="translate(259.747 177.558)"/><path class="g" d="M236.956,166.454a1.7,1.7,0,1,1-1.7,1.7A1.7,1.7,0,0,1,236.956,166.454Z" transform="translate(306.778 179.979)"/><path class="m" d="M234.922,166.454a1.7,1.7,0,1,1-1.7,1.7A1.7,1.7,0,0,1,234.922,166.454Z" transform="translate(303.653 179.979)"/><path class="p" d="M232.888,166.454a1.7,1.7,0,1,1-1.7,1.7A1.7,1.7,0,0,1,232.888,166.454Z" transform="translate(300.527 179.979)"/><path class="j" d="M210.532,172.572h69.019a1.343,1.343,0,0,1,1.344,1.344v9.015a1.343,1.343,0,0,1-1.344,1.344H210.532Z" transform="translate(268.79 189.38)"/><path class="k" d="M205.991,172.572h10.771v11.7H205.991a1.343,1.343,0,0,1-1.344-1.344v-9.015A1.343,1.343,0,0,1,205.991,172.572Z" transform="translate(259.747 189.38)"/><path class="g" d="M236.956,174.148a1.7,1.7,0,1,1-1.7,1.7A1.7,1.7,0,0,1,236.956,174.148Z" transform="translate(306.778 191.802)"/><path class="m" d="M234.922,174.148a1.7,1.7,0,1,1-1.7,1.7A1.7,1.7,0,0,1,234.922,174.148Z" transform="translate(303.653 191.802)"/><path class="p" d="M232.888,174.148a1.7,1.7,0,1,1-1.7,1.7A1.7,1.7,0,0,1,232.888,174.148Z" transform="translate(300.527 191.802)"/><path class="f" d="M218.966,219.165a6.324,6.324,0,1,0,6.324-6.324A6.323,6.323,0,0,0,218.966,219.165Z" transform="translate(281.75 251.259)"/><path class="l" d="M55.143,227.651c-2.336,4.307-7.369,1.291-7.369,1.291s.289-1.418,2.549-2.605c1.684-.883,4.107-.152,4.964.157l2.775-.071h.043c.619.03,1.233.079,1.844.137-7.922-2.8-4.188-12.153-4.188-12.153s2.486.1,5.121,3.615c2.113,2.816,1.284,7.6,1.035,8.772a46.2,46.2,0,0,1,9.129,2.306,15.534,15.534,0,0,1-1.154-1.24c-3.021-3.615-1.689-10.474-1.689-10.474,10.814,1.39,8.66,11.559,8.018,13.893A67.61,67.61,0,0,1,86,237.092a14.166,14.166,0,0,1-2.131-4.705c-1.367-5.091,3.211-11.428,3.211-11.428,10.6,6.669,2.975,16.305,1.479,18.028,1.9,1.469,3.648,2.948,5.218,4.371,1.725,1.56,3.313,3.117,4.756,4.614a14.156,14.156,0,0,1-.545-6.874c.758-5.713,8.044-10.185,8.044-10.185,7.721,10.933-3.328,17.414-5.915,18.736a90.8,90.8,0,0,1,7.785,9.558l-.956.647a80.707,80.707,0,0,0-5.187-6.628c-4.094,12.96-18.18,6.372-18.18,6.372s.35-3.536,5.57-7c3.366-2.235,8.384-1.654,11.083-1.106a99.867,99.867,0,0,0-7.247-7.3c-.918-.829-1.9-1.682-2.935-2.537-3.627,12.229-16.711,6.111-16.711,6.111s.32-3.234,5.1-6.4c3-1.994,7.442-1.537,9.949-1.048a71.636,71.636,0,0,0-10.245-6.768c-2.237,11.565-14.545,6.9-14.545,6.9s.066-2.9,4.107-6.05c2.643-2.057,6.849-1.859,9.058-1.573a49.639,49.639,0,0,0-13.234-4.6c.2,10.489-11.164,8.46-11.164,8.46s-.4-2.456,2.506-5.746c2.263-2.559,6.895-2.778,8.264-2.785a40.946,40.946,0,0,0-5.053-.578Z" transform="translate(18.692 253.665)"/><path class="p" d="M118.182,345.1s23.573-53.213,6.517-102.657-58.243-63.893-58.243-63.893S90.9,206.855,76.711,251.01C63.289,292.768,88.884,345.1,88.884,345.1Z" transform="translate(47.397 198.565)"/><path class="o" d="M95.373,327.033s6.04-108.253-19.5-136.727C99.1,226.194,89.427,327.033,89.427,327.033Z" transform="translate(61.866 216.631)"/><path class="p" d="M75.674,267.909h25.212c-1-4.442-4.632-17.863-13.68-27.987a32.112,32.112,0,0,0-24.864-11.108s7.544,8.277,8.7,23.152A45.279,45.279,0,0,0,75.674,267.909Z" transform="translate(41.076 275.755)"/><path class="l" d="M104.456,236.335C86.1,260.266,81.984,291.469,81.55,295.192h35.685c9.028-8.335,20.1-21.818,20.184-38.034.155-28.958,13.591-46.131,13.591-46.131S124.008,210.849,104.456,236.335Z" transform="translate(70.593 248.471)"/><path class="g" d="M86.082,263.227h1.89c-3.589-8.219-12.744-27.482-21.318-31.4C75.038,237.453,82.754,254.877,86.082,263.227Z" transform="translate(47.703 280.436)"/><path class="m" d="M86,285.154H89.7c4.345-14.37,17.627-54.383,34.389-67.594C106.778,227.156,90.607,271.567,86,285.154Z" transform="translate(77.423 258.51)"/><rect class="p" width="106.39" height="4.221" transform="translate(102.062 543.664)"/><path class="q" d="M90.143,141.265l-.416,4.388c.431.013,5.875.558,5.875.558l.416-4.388Z" transform="translate(83.158 141.273)"/><path class="r" d="M99.535,142.328s-13.3,5.167-13.579,5.256c-.119.041-.766.127-1.446.213a2.223,2.223,0,0,0-1.986,1.953,2.259,2.259,0,0,0-.01.705c.114.2,24.481,2.321,24.481,2.321s1.309-7.767.051-8.2S101.285,144.776,99.535,142.328Z" transform="translate(72.041 142.907)"/><path class="f" d="M86.715,143.492l.952,2.179-.827.361-.966-2.212Z" transform="translate(77.237 144.695)"/><path class="f" d="M86.131,143.719l.91,2.082-.827.361-.924-2.115Z" transform="translate(76.339 145.045)"/><path class="f" d="M85.579,143.935l.875,2-.826.361-.89-2.038Z" transform="translate(75.491 145.376)"/><path class="q" d="M83.479,138.07,81.138,141.8c.378.2,5,3.135,5,3.135l2.341-3.734Z" transform="translate(69.96 136.364)"/><path class="r" d="M92.4,139.923s-14.21-1.357-14.492-1.4c-.127-.02-.743-.231-1.39-.459a2.353,2.353,0,0,0-2.975,1.479c.013.223,20.831,13.066,20.831,13.066s4.657-6.352,3.724-7.3S92.865,142.9,92.4,139.923Z" transform="translate(58.289 136.142)"/><path class="f" d="M78.392,138.455l-.128,2.374-.9-.048.129-2.411Z" transform="translate(64.159 136.825)"/><path class="f" d="M77.763,138.4l-.122,2.269-.9-.049.124-2.3Z" transform="translate(63.203 136.735)"/><path class="f" d="M77.171,138.341l-.118,2.184-.9-.048.12-2.221Z" transform="translate(62.299 136.65)"/><path class="o" d="M132.318,119.89s-28.737-2.623-31.373.512S81.728,168.89,81.728,168.89L88,172.069l22.162-34.983,25.407-12.1Z" transform="translate(70.866 106.85)"/><path class="r" d="M106.851,110.019s-5.124.766-6.925-.365-8.622-8.3-4.216-7.47,4.388.477,6.164-2.4,2.524-8.858,8.792-9.172,12.922.051,14.195,4.528.3,9.411,1.786,11.258,2.438,3.437-1.164,2.8-7.846,2.022-7.846,2.022l-6.4-3Z" transform="translate(90.112 63.3)"/><path class="q" d="M99.073,100.193s.88,5.893,3.044,6.306.758,3.455,4.5,4.315,6.372-1.192,7.191-.36,4.457,7.283,4.457,7.283l1.651,1.837,3.957-14.34-4.751-5.347s-4.761,2.159-5.324-1.3-6.05-4.061-5.68-.589S102.541,91.64,99.073,100.193Z" transform="translate(97.519 71.208)"/><path class="g" d="M111.8,100.768s4.926-4.886,5.606-1.778,9.37,2.324,13.761,16.77,7.181,38.744,7.427,43.622-4.639,11.932-7.6,12.082,1.453-5.839-8.267-15.128-17.929-9.4-17.929-9.4-.484-20.876.8-26.528S108.28,102.267,111.8,100.768Z" transform="translate(106.185 74.722)"/><path class="o" d="M153.809,139.425s-19.3.545-30.021.157c-8.822-.32-18.611-1.172-18.611-1.172l-6.725,39.054-8.584-.616,1.324-50.172s-1.629-7.6,14.322-6.829S143.7,118.8,143.7,118.8l5.844,5.119Z" transform="translate(83.374 106.761)"/><path class="q" d="M111.863,116.7s-11.311-1.114-12.564-1.05-5.02,1.758-6.265,3.665-2.765,4.995-.959,4.234,3.039-2.831,7.935-2.072,7.141,1.712,11.656.911S111.863,116.7,111.863,116.7Z" transform="translate(85.49 101.902)"/><path class="r" d="M88.552,112.474l15.041,16.434-5.689.285L81.81,112.313Z" transform="translate(70.992 96.784)"/><path class="g" d="M123.546,113.07s2.491-14.811,9.038-8.427,4.109,15.922,3.457,25.955c-.624,9.649-4.837,19.157-12.062,18.908S99.161,141.6,99.161,141.6l.606-6.258,21.5,1.608S120.935,121.867,123.546,113.07Z" transform="translate(97.654 82.544)"/><rect class="r" width="22.592" height="1.666" transform="translate(168.848 225.033) rotate(-2.872)"/><path class="r" d="M102.828,97.843s3.724,3.944,3.929,5.39.127,5.406-1.03,5.88a23.627,23.627,0,0,1-3.539.9l2.166.183s4.437.089,4.667-.616,2.042-3.333,1.251-5.286a27.053,27.053,0,0,0-2-3.838l-4.9-4.211Z" transform="translate(102.307 72.087)"/><path class="q" d="M245.23,194.831l-2.694-.368s.51-5.555-.629-6.314-1.715-.748-1.788.066c-.114,1.281-.19,5.246-.3,7.328a33.449,33.449,0,0,0,.129,4.411s.429.452,1.641,0,4.051.1,4.051.1Z" transform="translate(313.75 212.459)"/><path class="g" d="M295.45,184.49c3.612-1.05,7.374,2.762,7.169,7.3-.114,2.529-1.167,5.215-4.8,6.182-5.52,1.471-24.57,6.448-24.57,6.448l-30.173,1.743-1.624-6.583,29.78-4.454,24.07-10.59S295.354,184.518,295.45,184.49Z" transform="translate(316.304 207.425)"/><path class="p" d="M288.692,205.027c.152.718,14.043,51.09,14.043,51.09l36.327,32.144-6.385,5.943-39.63-27.961-23.657-45.421Z" transform="translate(359.234 239.252)"/><path class="q" d="M245.484,187.123l-2.694-.365s.512-5.555-.629-6.316-1.712-.748-1.786.066c-.117,1.284-.193,5.248-.3,7.328a33.512,33.512,0,0,0,.129,4.414s.429.449,1.641,0,4.051.1,4.051.1Z" transform="translate(314.14 200.615)"/><path class="q" d="M258.674,184.9l3.964,1.069,4.254-3.508-1.822-4.6-6.229,7.022Z" transform="translate(342.766 197.502)"/><path class="r" d="M256.91,182.582a13.529,13.529,0,0,0-1.943-1.03,9.847,9.847,0,0,1-3.937-3.671c-.2-.332-.271-.918.114-.969a.726.726,0,0,1,.264.041,4.571,4.571,0,0,0,4.18-1.352c1.119-1.048,2.334-1.223,3.262-2.44,2.255-2.953,5.641-3.947,9.348-3.757,1.94.1,3.293-.218,5.068.571,2.958,1.316,4.741,2.443,5.827,5.489a12.366,12.366,0,0,1,.54,2.727q.316,2.576.634,5.152a15.909,15.909,0,0,1,.112,4.627c-.231,1.332.738,1.781.178,3.011a5.493,5.493,0,0,1-1.319,2.032,5.278,5.278,0,0,1-3.881.731,11.026,11.026,0,0,1-5.636-1.672c-1.852-1.36-2.79-3.632-4.434-5.233-1.332-1.3-2.722-.114-4.414-.883-.391-.178-.863-1.266-1.276-1.144-.662.19-1.015-.535-1.6-.817C257.653,183.833,257.305,182.872,256.91,182.582Z" transform="translate(330.769 184.479)"/><path class="q" d="M270.627,185.45a9.973,9.973,0,0,0-1.149-1.7,9.09,9.09,0,0,1-1.6-3.856c-.16-.994-.152-2.012-.33-3a4.213,4.213,0,0,0-1.36-2.623,2.188,2.188,0,0,0-2.767-.053,2.706,2.706,0,0,0-.287,2.983,25.9,25.9,0,0,1,1.37,2.877,35.837,35.837,0,0,1-3.523-3.526l-.081-.005a.413.413,0,0,0-.058.005,9.659,9.659,0,0,1-.817.731l-.041.033a3.33,3.33,0,0,1-1.382.733c-1,.15-3.32-.713-4.152-.878a.6.6,0,0,0-.591.17,4.078,4.078,0,0,0-.046,1.783,9.947,9.947,0,0,0,1.771,2.734q.765,2.386,1.532,4.769a2.286,2.286,0,0,0,.474.939c.454.452,1.18.434,1.788.642,1.928.657,2.532,3.531,4.535,3.906,1.423.266,2.674-.9,3.65-1.973l3.016-3.305C271.045,186.333,270.906,186.074,270.627,185.45Z" transform="translate(335.179 191.192)"/><path class="s" d="M275.311,244.764l2.7,3.333c.307-.284,4.464-3.615,4.464-3.615l-2.7-3.333Z" transform="translate(368.331 294.758)"/><path class="r" d="M280.21,245.765s-5.948,12.559-6.08,12.8c-.058.109-.457.6-.88,1.121a2.165,2.165,0,0,0-.1,2.709,2.23,2.23,0,0,0,.467.5c.211.061,18.86-14.745,18.86-14.745s-4.274-6.369-5.451-5.829S283.086,246.323,280.21,245.765Z" transform="translate(364.351 296.524)"/><path class="f" d="M274.554,246.5l2.132.9-.342.809-2.164-.917Z" transform="translate(366.592 302.98)"/><path class="f" d="M274.294,247.052l2.037.863-.343.809-2.069-.876Z" transform="translate(366.192 303.828)"/><path class="f" d="M274.048,247.574l1.961.831-.342.809-1.994-.845Z" transform="translate(365.813 304.631)"/><path class="s" d="M294.468,241.916l2.7,3.336c.307-.284,4.464-3.615,4.464-3.615l-2.7-3.336Z" transform="translate(397.768 290.381)"/><path class="r" d="M299.367,242.918s-5.946,12.559-6.08,12.8c-.058.109-.457.6-.88,1.121a2.165,2.165,0,0,0-.1,2.709,2.232,2.232,0,0,0,.467.5c.213.063,18.86-14.745,18.86-14.745s-4.274-6.367-5.449-5.827S302.243,243.474,299.367,242.918Z" transform="translate(393.788 292.149)"/><path class="f" d="M293.711,243.652l2.132.9-.342.809-2.164-.917Z" transform="translate(396.029 298.604)"/><path class="f" d="M293.451,244.2l2.037.863-.343.809L293.076,245Z" transform="translate(395.629 299.453)"/><path class="f" d="M293.2,244.726l1.961.831-.342.809-1.994-.845Z" transform="translate(395.25 300.255)"/><path class="p" d="M306.11,203.73s6.364,11.618-2.661,19.763-27.723,35.939-27.723,35.939L310.292,298.4l-8.807,5.063-44.033-40.949,21.138-51.519Z" transform="translate(340.888 237.259)"/><path class="g" d="M281.063,189.2c-5.243-7.417-9.939-9.261-14.081-10.045a20.1,20.1,0,0,1-4.784,5.076,13.809,13.809,0,0,1-2.324,1.334,38.572,38.572,0,0,0-1.134,12.189c.72,5.768,17.3,51.676,17.3,51.676L306.09,241.5S287.892,198.865,281.063,189.2Z" transform="translate(342.676 199.493)"/><path class="g" d="M298.231,182.059c3.757-.155,6.5,4.449,5.21,8.8-.715,2.428-2.382,4.784-6.139,4.855-5.712.107-25.4.378-25.4.378l-29.714-5.532v-6.78l29.98,2.805,25.907-4.52S298.132,182.064,298.231,182.059Z" transform="translate(317.435 203.953)"/></g></svg>