<svg xmlns="http://www.w3.org/2000/svg" xmlns:xlink="http://www.w3.org/1999/xlink" width="684.63" height="612.001" viewBox="0 0 684.63 612.001"><defs><style>.a,.ag,.ai,.k,.q{fill:none;}.b{opacity:0.08;}.c{fill:#e8e8e8;}.d{fill:#3b868a;}.e{fill:#34417d;}.f{fill:#6dbcbf;}.g{fill:#2f8e91;}.h{fill:#19034d;}.i{fill:#e6ebf4;}.j{fill:#acb9e8;}.ag,.ai,.k,.q{stroke:#19034d;stroke-miterlimit:10;}.k{stroke-width:7px;}.l{fill:#0c7b7d;}.m{fill:#ff735f;}.n{fill:#d4a100;}.o{fill:#f5ba00;}.p{fill:url(#a);}.q{stroke-width:5px;}.r{fill:#db6352;}.s{fill:#e01919;}.t{fill:url(#b);}.u{fill:url(#c);}.v{fill:url(#d);}.w{clip-path:url(#e);}.x{fill:#fff;}.y{clip-path:url(#f);}.z{fill:#ff977d;}.aa{fill:url(#g);}.ab{fill:#bf0033;}.ac{fill:#320699;}.ad{fill:url(#h);}.ae,.aj{opacity:0.6;}.ae{fill:url(#i);}.af{fill:#0c3df0;opacity:0.34;}.ag{stroke-width:6px;}.ah{clip-path:url(#j);}.ai{stroke-width:0.5px;}.aj{fill:url(#k);}</style><linearGradient id="a" x1="10.849" y1="-5.087" x2="11.893" y2="-5.087" gradientUnits="objectBoundingBox"><stop offset="0.018" stop-color="#022a5d"/><stop offset="1" stop-color="#0c4691"/></linearGradient><linearGradient id="b" x1="1.193" y1="0.909" x2="0.162" y2="0.172" gradientUnits="objectBoundingBox"><stop offset="0.265" stop-color="#201b59" stop-opacity="0.914"/><stop offset="0.555" stop-color="#0c7b7d" stop-opacity="0"/></linearGradient><linearGradient id="c" x1="-0.119" y1="0.313" x2="1.271" y2="0.734" gradientUnits="objectBoundingBox"><stop offset="0.159" stop-color="#201b59" stop-opacity="0.914"/><stop offset="0.717" stop-color="#fc0" stop-opacity="0"/></linearGradient><linearGradient id="d" x1="-0.347" y1="-0.188" x2="1.785" y2="1.072" gradientUnits="objectBoundingBox"><stop offset="0.265" stop-color="#201b59" stop-opacity="0.914"/><stop offset="0.555" stop-color="#ff735f" stop-opacity="0"/></linearGradient><clipPath id="e"><circle class="a" cx="47.066" cy="47.066" r="47.066"/></clipPath><clipPath id="f"><circle class="a" cx="40.112" cy="40.112" r="40.112" transform="translate(0 78.031) rotate(-76.574)"/></clipPath><linearGradient id="g" x1="1.618" y1="0.384" x2="0.077" y2="0.533" xlink:href="#c"/><linearGradient id="h" x1="16.866" y1="-0.247" x2="17.046" y2="0.978" xlink:href="#d"/><linearGradient id="i" x1="1.063" y1="1.213" x2="0.148" y2="0.054" gradientUnits="objectBoundingBox"><stop offset="0.265" stop-color="#19034d" stop-opacity="0.914"/><stop offset="0.555" stop-color="#320699" stop-opacity="0"/></linearGradient><clipPath id="j"><path class="a" d="M425.123,97.363,213.512,70.038v62.147L410.5,108.33Z" transform="translate(-213.512 -70.038)"/></clipPath><linearGradient id="k" x1="0.525" y1="-0.197" x2="0.921" y2="1.558" xlink:href="#i"/></defs><g transform="translate(-44.479 -53.706)"><path class="b" d="M246.2,367.019q-46.605.743-93.2,2.263c-36.5,1.216-65.689,5.1-89.173,34.733-5.212,6.576-8.566,15.1-7.114,23.37,2.26,12.838,14.863,21.022,26.891,26.046,21.558,9,42.221,10.754,65.136,11.183,126.074,2.369,252.179,2.784,378.274,2.31,34.156-.129,129.827,10.946,141.892-33.462,13.36-49.182-60.367-59.742-90.555-64.847-34.065-5.762-72.034-1.568-106.553-1.892C396.606,366.019,321.4,365.819,246.2,367.019Z" transform="translate(7.543 197.647)"/><path class="c" d="M171.108,546.212a275.554,275.554,0,0,0,47.1,16.76c104.524,27.008,227.278,4.132,316.55-55.936,54.424-36.62,119.351-87.851,125.865-157.3,6.336-67.533-17.063-137.88-64.337-186.819-31.23-32.331-56.74-76.769-98.7-96.433-64.467-30.211-128.626-.191-190.112,21.69-43.4,15.446-87.47,31.24-124.736,58.323C114.167,196.328,68.662,287.941,71.415,372.444c1.044,32,4.673,64.444,16.949,94.02C104.318,504.9,134.228,529.034,171.108,546.212Z" transform="translate(16.997 0)"/><g transform="translate(44.479 108.562)"><path class="d" d="M264.313,226.147c-1.642-2.364-3.658-4.336-5.021-6.918-1.859-3.518,2.6-4,4.854-5.89a20.028,20.028,0,0,0,3.356-3.6c.451-.622,1.653-3.687,2.193-3.9a20.654,20.654,0,0,1-19.705-2.779,28.574,28.574,0,0,0,15.675-10.9,28.4,28.4,0,0,1-10.878-2.956,29.184,29.184,0,0,1-4.086-2.253c-.9-.662-2.387-3.014-3.616-3.008a22.1,22.1,0,0,0,14.1-5.238,26.2,26.2,0,0,1-11.544-6.519c-2.643-2.559-7.266-7.614-.694-7.151a21.957,21.957,0,0,0,8.437-1.055,84.006,84.006,0,0,1-18.071-12.267,26.647,26.647,0,0,0,10.295-2.776A57.317,57.317,0,0,1,229.789,136.3a33.147,33.147,0,0,0,10.533-1.761,51.2,51.2,0,0,1-12.933-9.88c-2.764-2.911-4.684-6.4-6.994-9.652-1.528-2.148-1.495-2.258-2.666-.2-.838,1.477-1.318,3.16-2.206,4.642a27.53,27.53,0,0,1-16.328,12.438,13.869,13.869,0,0,0,11.79,2.389,25.907,25.907,0,0,1-12.693,9.442c-2.742.926-5.707,1.425-8.06,3.107-.31.222,4.955,2.415,5.454,2.521a12.2,12.2,0,0,0,6.4-.341,27.019,27.019,0,0,1-19.191,12.7,14.978,14.978,0,0,0,12.409,2.608c-3.6,7.11-11.827,10.329-19.352,12.951a16.236,16.236,0,0,0,12.686,3.31c-4.058,6.143-12.054,8.042-19.28,9.447a20.411,20.411,0,0,0,17.026,1.872c-1.711,4.068-5.189,7.192-9.061,9.309a59.161,59.161,0,0,1-12.405,4.539c.549-.155,4.14,2.268,4.942,2.565a23.451,23.451,0,0,0,6.434,1.387c3.683.265,6.717-1.23,10.115-2.495.583,0,.469.928.131,1.405-2.359,3.335-5.762,5.684-8.406,8.777q-4.987,5.835-9.95,11.69c-6.1,7.148-12.208,14.319-18.785,21.034,6.048,7.223,12.776,8.721,15.551,20.21,1.2,4.986,2.1,11.1,3.145,17.111h84.188l-3.813-10.63,23.471-4.553a61.6,61.6,0,0,0,10.375-2.555c1.457-.552,2.939-.665,4.4-1.225.611-.234,4.39-3.691,4.64-3.322C282.394,251.956,273.332,239.133,264.313,226.147Z" transform="translate(22.018 -70.775)"/><path class="e" d="M265.905,254.119c7.551-.784,15.645-1.1,23-2.972-9.978-5.333-20.759-9.85-26.992-19.913A13.108,13.108,0,0,0,274.9,226.54a68.745,68.745,0,0,1-36.334-18.6,42.106,42.106,0,0,0,17.406-6.248c-8.063-1.635-18.549-4.377-25.216-9.59q8.352-2.808,16.549-6.05a2.925,2.925,0,0,0,1.724-2.4c-.025.227-10.783-2.952-11.736-3.315-1.649-.626-9.956-3.349-9.695-5.37,2.728.467,5.622.056,8.359-.16a59.889,59.889,0,0,0,8.543-1.16,2.1,2.1,0,0,0,1.737-2.3,75.96,75.96,0,0,1-11.064-4.571,55.663,55.663,0,0,1-5.231-3.07c-.487-.322-3.918-2.227-2.836-2.99a1.224,1.224,0,0,1,.738-.142,40.968,40.968,0,0,0,13.753-1.89,2.3,2.3,0,0,0,.49-.247,51.471,51.471,0,0,1-5.6-2.858,98.482,98.482,0,0,1-9.863-6.538,44.836,44.836,0,0,1-4.583-4.021A24.359,24.359,0,0,1,220,142.744c-.253-.335-1.493-1.5-1.531-1.791-.036-.263.309-.391.572-.412a19.6,19.6,0,0,0,2.808-.235c.511-.118,2.756-1.206,2.742-1.881-.011-.618-2.191-1.529-2.74-1.889a47.415,47.415,0,0,1-6.431-5.088,80.386,80.386,0,0,1-10.479-12.3,65.939,65.939,0,0,1-7.733-14.046c-.188-.48-.35-.966-.513-1.449a3.464,3.464,0,0,0-.448-.046c-4.006,7.653-9.564,14.551-15.377,20.837a109.007,109.007,0,0,1-13.925,13.031,66.712,66.712,0,0,1-7.032,4.864c-1.39.8-2.942,1.41-4.382,2.179-.828,1.518-.276,3.686,1.975,3.6,1.894-.072,3.772-.042,5.635-.011-4.032,2.913-8.316,5.485-12.651,8.022a2.479,2.479,0,0,0,.585,4.48,80.633,80.633,0,0,0,10.754,1.97c-1.271.771-2.59,1.506-3.941,2.266q-7.269,4.083-14.637,7.983a2.47,2.47,0,0,0,0,4.233,33.067,33.067,0,0,0,11.6,3.627A72.51,72.51,0,0,1,127.171,192c1.495-.27,5.481,2.036,7.35,2.235,3.467.371,6.169-.7,9.473-1.207,3.573-.551,10.43-1.369,13.9.209-20.878,11.226-49.315,31.042-70.492,42.641,9.043,5.793,19.1,7,23.246,16.211,1.8,4,3.147,8.906,4.7,13.724H241.2q-2.85-4.262-5.7-8.527C236.814,259.255,262.545,254.468,265.905,254.119Z" transform="translate(-17.277 -76.934)"/><path class="d" d="M523.751,407.316c-9.571-9.481-12.933-17.861,1.157-38.919,13.7-20.471,3.794-53.842-24.317-56.667-10.453-1.049-22.478-6.128-19.8-19.2,1.581-7.72,7.547-13.668,13.177-19.182s11.492-11.624,12.766-19.4c2.019-12.337-7.246-17.3-12.226-26.538-4.831-8.963-3.745-19.259-1.248-28.794,2.885-11.017,6.967-22.738,3.09-33.446-4.647-12.837-20.019-21.823-18.836-35.422.467-5.388,3.658-10.4,3.361-15.8-1.725-31.408-39.344-37.971-42.484-3.934-1.021,11.084,1.9,22.089,3.852,33.047s2.827,22.729-1.954,32.781c-5.8,12.2-18.609,19.29-27.405,29.549a57.747,57.747,0,0,0-13.418,38.02c.188,15.7,6.333,31.356,3.371,46.771-3.075,15.995-15.372,28.542-28.178,38.607s-26.968,18.972-36.553,32.14c-10.5,14.431-12.91,31.091-11.2,48.427,1.235,12.52,17.326,31.67,9.291,42.536-1.5,2.032-3.563,3.575-5.341,5.374-6.87,6.948-9.131,17.563-7.573,27.209,7,43.346,68.375,50.638,102.546,59.828,27.8,7.475,62.158.557,85.819-15.841,15.671-10.862,29.021-35.834,36.2-52.979,6.5-15.52,7.5-34.97-3.343-47.834C536.958,418.7,529.309,412.822,523.751,407.316Z" transform="translate(131.927 -87.282)"/><path class="f" d="M194.7,512.043C205.735,498,215.414,479.2,207.977,462.961c-4.6-10.038-15.237-17.478-16.139-28.484-.864-10.558,7.663-19.406,10.533-29.6a29.056,29.056,0,0,0-5.674-26.154c-9-10.654-11.78-14.42-11.007-28.168.846-15.049,1.157-28.159,6.819-42.523A150.546,150.546,0,0,0,181.29,174.059c-7.148-11.721-16.893-22.966-17.586-36.677-.493-9.793,3.836-19.367,3.241-29.154-.232-3.815-1.4-7.859-4.408-10.21-4.1-3.2-10.069-2.189-14.863-.17-16.851,7.1-26.123,23.93-29.768,41.141-1.918,9.061-2.126,18.437-4.338,27.432-4.437,18.039-18.828,21.762-29.867,34.653-14.083,16.446-17.424,41.311-8.184,60.889,2.965,6.284,7.212,12.574,6.494,19.485-.861,8.3-8.427,13.99-13.186,20.844a34.27,34.27,0,0,0-3.774,31.287c7.836,20.383,6.238,23.02-7.81,38-10.531,11.227-14.792,22.76-9.782,38.314,4.014,12.458,12.252,23.019,19.081,34.184C77.7,462.325,83.048,481.254,88.43,501.678c3.875,14.706,11.518,30.952,26.977,36.475,12.252,4.375,33.173,6.287,46.184,3.325C175.613,538.287,186.4,522.611,194.7,512.043Z" transform="translate(-43.917 -81.779)"/><path class="d" d="M150.418,396.242c5.429-4.753,10.643-10.012,13.719-16.539s3.712-14.567.091-20.808c-5.571-9.605-19.681-11.554-29.433-6.246a69.822,69.822,0,0,0,10.286-28.131c.815-6.06-.317-13.9-6.2-15.583-5.782-1.658-10.8,4.089-14.083,9.13a36.087,36.087,0,0,0-10.847-35.893c-2.642-2.3-5.8-4.269-9.3-4.5-4.81-.315-9.358,2.817-11.9,6.911s-3.4,9.009-3.777,13.814c-1.76,22.231,5.467,44.082,12.6,65.212A43.816,43.816,0,0,0,73.116,348.5c-2.6-.278-5.486-.235-7.488,1.448-3.519,2.957-2.067,8.648.109,12.7a64.07,64.07,0,0,0,16.714,19.908,36.144,36.144,0,0,0-31.789-3.279,10.8,10.8,0,0,0-4.754,3.027c-2.835,3.537-1.073,8.97,1.983,12.317,3.393,3.717,8.028,6.014,12.551,8.226,12.211,5.975,35.762,22.62,47.624,20.375C122.393,420.5,139.749,405.582,150.418,396.242Z" transform="translate(-44.479 33.375)"/><path class="f" d="M459.149,400.215c4.684-4.1,9.182-8.639,11.837-14.271s3.2-12.57.078-17.955c-4.807-8.287-16.98-9.97-25.4-5.388a60.27,60.27,0,0,0,8.876-24.273c.7-5.228-.274-11.992-5.346-13.446-4.99-1.431-9.318,3.529-12.152,7.878a31.142,31.142,0,0,0-9.358-30.972c-2.281-1.987-5-3.683-8.022-3.88-4.15-.273-8.076,2.431-10.27,5.963s-2.931,7.774-3.259,11.92c-1.519,19.181,4.717,38.035,10.871,56.266a37.8,37.8,0,0,0-24.561-13.038c-2.243-.242-4.733-.2-6.46,1.247-3.036,2.552-1.784,7.463.095,10.956A55.261,55.261,0,0,0,400.5,388.4a31.193,31.193,0,0,0-27.43-2.83,9.316,9.316,0,0,0-4.1,2.612c-2.446,3.052-.926,7.739,1.711,10.628,2.929,3.207,6.929,5.189,10.83,7.1,10.536,5.155,30.858,19.517,41.092,17.58C434.967,421.149,449.943,408.273,459.149,400.215Z" transform="translate(160.402 46.201)"/><path class="g" d="M115.758,325.441a47.8,47.8,0,0,0,14.93-6.793c2.6-1.766,5.045,2.456,2.46,4.209a51.88,51.88,0,0,1-16.095,7.287C114.017,330.937,112.721,326.236,115.758,325.441Z" transform="translate(-0.4 59.09)"/><path class="g" d="M117.442,285.855l11.941-5.03c2.889-1.216,4.148,3.5,1.3,4.7l-11.943,5.029C115.851,291.773,114.589,287.056,117.442,285.855Z" transform="translate(0.745 35.26)"/><path class="g" d="M116.126,225.222a21.214,21.214,0,0,0,10.991-10.572c1.345-2.833,5.55-.363,4.209,2.459a25.219,25.219,0,0,1-12.739,12.324C115.735,230.662,113.249,226.463,116.126,225.222Z" transform="translate(0.12 -7.35)"/></g><g transform="translate(114.495 228.235)"><rect class="h" width="517.37" height="359.406" rx="11.611"/><rect class="i" width="502.878" height="318.828" transform="translate(6.344 22.012)"/><rect class="j" width="127.531" height="101.445" transform="translate(15.217 150.602)"/><rect class="j" width="85.504" height="127.531" transform="translate(289.118 150.602)"/><rect class="j" width="124.157" height="102.929" transform="translate(153.513 34.893)"/><g transform="translate(154.341 153.869)"><rect class="j" width="127.531" height="8.229"/><rect class="j" width="127.531" height="8.23" transform="translate(0 37.88)"/><rect class="j" width="127.531" height="8.229" transform="translate(0 65.311)"/></g><rect class="j" width="117.386" height="9.258" transform="translate(384.767 150.602)"/><rect class="j" width="117.386" height="9.258" transform="translate(384.767 173.577)"/><rect class="j" width="117.386" height="9.258" transform="translate(384.767 196.551)"/><rect class="j" width="117.386" height="9.258" transform="translate(384.767 219.526)"/><rect class="j" width="117.386" height="9.258" transform="translate(384.767 242.501)"/><rect class="j" width="117.386" height="9.258" transform="translate(384.767 265.476)"/><g transform="translate(285.105 36.236)"><rect class="j" width="216.396" height="9.258"/><rect class="j" width="216.396" height="9.258" transform="translate(0 23.372)"/><rect class="j" width="216.396" height="9.258" transform="translate(0 46.745)"/><rect class="j" width="216.396" height="9.258" transform="translate(0 70.117)"/><rect class="j" width="216.396" height="9.258" transform="translate(0 93.489)"/></g><g transform="translate(15.528 36.236)"><rect class="j" width="129.804" height="9.258"/><rect class="j" width="129.804" height="9.258" transform="translate(0 23.372)"/><rect class="j" width="129.804" height="9.258" transform="translate(0 46.745)"/><rect class="j" width="129.804" height="9.258" transform="translate(0 70.117)"/><rect class="j" width="129.804" height="9.258" transform="translate(0 93.489)"/></g><g transform="translate(15.217 257.844)"><rect class="j" width="127.531" height="8.229"/><rect class="j" width="127.531" height="8.229" transform="translate(0 22.86)"/><rect class="j" width="127.531" height="8.229" transform="translate(0 45.719)"/><rect class="j" width="127.531" height="8.229" transform="translate(0 68.579)"/></g><g transform="translate(154.341 234.656)"><rect class="j" width="127.531" height="6.079"/><rect class="j" width="127.531" height="6.079" transform="translate(0 20.265)"/><rect class="j" width="127.531" height="6.079" transform="translate(0 40.529)"/></g><rect class="j" width="117.386" height="8.21" transform="translate(384.767 288.975)"/><rect class="j" width="117.386" height="8.21" transform="translate(384.767 311.95)"/><g transform="translate(154.341 296.404)"><rect class="j" width="127.531" height="6.08"/><rect class="j" width="127.531" height="6.079" transform="translate(0 20.265)"/></g><g transform="translate(291.581 296.404)"><rect class="j" width="82.484" height="6.08"/><rect class="j" width="82.484" height="6.079" transform="translate(0 20.265)"/></g></g><g transform="translate(308.841 402.002)"><path class="k" d="M255.335,316.188" transform="translate(-175.201 -235.641)"/><path class="k" d="M319.383,370.594" transform="translate(-134.607 -201.158)"/><g transform="translate(80.135 47.246)"><path class="h" d="M332.149,417.946c.085,1.32-.109,3.067-1.541,3.683a3.921,3.921,0,0,1-1.5.23l-3.178.056a7.557,7.557,0,0,1-2.121-.158c-.531-.147-.992-.417-1.5-.609-2.6-.988-5.908.136-8.95.506-4.181.51-9.572-.654-12.355-3.122-2.992-2.652.859-6.352,4.679-6.408,3.557-.051,6.953,1.068,10.543.2a4.7,4.7,0,0,0,2.668-1.495,4.061,4.061,0,0,0,.467-3.188l-.686-4.733a5.831,5.831,0,0,0-.918-2.057c2.542.386,5.521-.011,8.244-.178,2.341-.142,4.617-1.026,5.125,1.261C332.229,406.9,331.819,412.767,332.149,417.946Z" transform="translate(-227.067 -229.52)"/><path class="h" d="M408.326,408.687a1.51,1.51,0,0,1,1.273,2.3,92.25,92.25,0,0,1-4.655,12.8c-1.118,2.488-2.433,5.03-4.666,6.6a13.2,13.2,0,0,1-5.748,1.985c-2.246.325-4.668.376-6.643-.745s-3.23-3.756-2.16-5.758c.987-1.846,3.09-2.1,4.967-2.029,1.042.038,1.787.653,2.559-.074.506-.479.67-2.044.823-2.7a4.087,4.087,0,0,0-.23-3.157,4.328,4.328,0,0,0-3.308-1.528,3.021,3.021,0,0,1-2.183-.838,2.736,2.736,0,0,1-.3-1.926q.11-1.113.284-2.217c.208-1.323.35-4.468,1.34-5.437a2.69,2.69,0,0,1,1.814-.4,32.072,32.072,0,0,1,6.068.755C401.168,406.965,404.777,407.749,408.326,408.687Z" transform="translate(-172.941 -226.246)"/><path class="l" d="M408.12,369.263c-1.6-3.33-6.9-5.308-10.154-6.45-11.708-4.109-24.169-5.7-36.476-7.086-5.261-.593-10.53-1.142-15.82-1.4-4.655-.222-9.411-.64-14.056-.508l-6.057.172a19.647,19.647,0,0,0-4.346.449c-2.18.562-3.879.719-5.526,2.472a29.949,29.949,0,0,0-7.061,14.8q-.2,1.01-.351,2.024c-.028,10.461.036,20.911.894,31.379.809,9.886,1.84,19.751,2.879,29.614,4.238.118,8.478.234,12.716.381q2.1-.017,4.2-.029c5.006-15.879,5.867-32.879,6.395-49.589a323.77,323.77,0,0,0,45.036,7.3c11.03.92,24.623.222,27.971-12.753a23,23,0,0,0,.654-5.045A12.291,12.291,0,0,0,408.12,369.263Z" transform="translate(-221.786 -259.05)"/><path class="m" d="M320.391,306.043a10.657,10.657,0,0,0-2.075,8.437,15.628,15.628,0,0,0,1.6,4.3c1.524,2.933,3.972,5.872,7.27,6.063,1.814.106,3.63-.655,5.418-.337a8.636,8.636,0,0,1,4.348,2.809,68.677,68.677,0,0,1,7.375,8.818c3.567-1.284,7.321-2.7,9.679-5.666a198.4,198.4,0,0,0-18.96-24.221C330.726,301.532,324.735,300.532,320.391,306.043Z" transform="translate(-215.528 -291.69)"/><path class="n" d="M359.041,321.707a8.483,8.483,0,0,0-8.548-2.844c-5.213,1.443-7.754,9.821-9.535,14.283-2.046,5.132-4.285,10.25-7.574,14.689a37.274,37.274,0,0,1-29.443,14.794,84.889,84.889,0,0,1,1.962,14.247c2.364-.425,5.579.368,7.679.681,12.737,1.9,25.4-5.365,33.586-14.7,4.957-5.648,12.481-16.725,14.492-26.85C362.722,330.661,362.246,325.58,359.041,321.707Z" transform="translate(-224.529 -281.359)"/><path class="o" d="M342.479,361.18a172.174,172.174,0,0,0,18.914,24.746c1.083-1.877,2.323-1.648,4.236-1.956a58.775,58.775,0,0,0,7.844-2.3c8.213-2.539,24.118-7.653,25.033-8.108.464-.232-18.816-25.809-20.7-28.038a211.926,211.926,0,0,0-14.513-15.67q-3.931-3.8-8.123-7.3c-2.55-2.127-4.767-4.21-7.811-5.637a5.8,5.8,0,0,0-4.192-.658,19.735,19.735,0,0,0-3.691.716,12.439,12.439,0,0,0-7.293,7.171,20.652,20.652,0,0,0-1.113,10.376c.56,4.625,2.493,9.076,4.369,13.345A109.352,109.352,0,0,0,342.479,361.18Z" transform="translate(-207.462 -282.921)"/><g transform="translate(140.355 80.256)"><path class="p" d="M349.216,361.569c-.007-.1.02-.516-.17-.564s-.428.167-.564.291c.2.067.538.457.629.529s.033-.08.062-.109S349.222,361.667,349.216,361.569Z" transform="translate(-336.655 -334.741)"/><path class="l" d="M422.191,441.016c-15.621-5.133-31.018-10.692-46.955-14.8.941.242,7.656-13.291,8.4-14.725,5.908-11.425,12.66-23.412,12.963-36.721a38.007,38.007,0,0,0-1.645-11.247,58.986,58.986,0,0,0-5.911-13.587c-1.013-1.719-2.121-3.38-3.269-5.011-10.987,7.772-23.917,12.312-36.334,17.454.222.392.453.779.66,1.181,1.082,2.095,2.593,4.653,3.127,6.942.763,3.269.374,7.132-.108,10.412-.815,5.55-2.465,10.85-3.986,16.348-2.294,8.282-3.913,16.07-5.592,24.86-1.41,7.382-5.065,18.985,1.487,24.661,7.208,6.244,16.534,6.094,24.7,7.053,12.131,1.425,22.069,2.683,33.875,4.825,4.3.781,9.383,1.363,14.031,1.889C419.255,454.067,420.737,447.543,422.191,441.016Z" transform="translate(-341.243 -344.927)"/></g><line class="q" x1="104.641" y1="88.889" transform="translate(0 33.302)"/><path class="r" d="M310.027,347.289c-.569.075-1.137.157-1.7.258a16.633,16.633,0,0,1-2.934.379,4.9,4.9,0,0,1-1.58-.243c-2.72-.925-4.576-1.438-6.584,1.16a8.008,8.008,0,0,0-1.678,6.045,5.772,5.772,0,0,0,2.23,3.522c1.99,1.434,4.99,1.371,7.475.7a12.807,12.807,0,0,0,1.828-.64,7.311,7.311,0,0,0,3.625-2.787c.461-.787.7-1.585,1.077-2.3C311.13,351.375,310.61,349.323,310.027,347.289Z" transform="translate(-229.914 -263.401)"/><path class="m" d="M322.009,359.061c-.3-1.982-3.155-3.849-5.465-3.967-2.2-.113-4.37.508-6.568.689s-4.645-.189-6.1-1.848c-1.415-1.614-1.5-3.967-2.286-5.963a8.788,8.788,0,0,0-3.487-4.2,1.443,1.443,0,0,0-.551,1.573,7.71,7.71,0,0,0,.714,1.63c1.73,3.648.353,7.9-3.9,4.694a53.688,53.688,0,0,0-8.56-5.272,1.237,1.237,0,0,0-1.082-.158,1.082,1.082,0,0,0-.4,1.114,15.406,15.406,0,0,0,1.343,3.5,27.941,27.941,0,0,1,.835,3.864,8.046,8.046,0,0,0,5.56,6.315,41.137,41.137,0,0,0,10.987,1.854c6.016.186,11.919,2.436,17.487-1.209A2.64,2.64,0,0,0,322.009,359.061Z" transform="translate(-236.969 -265.401)"/><g transform="translate(72.646 39.031)"><path class="o" d="M370.272,330.127a15.4,15.4,0,0,0-2.482-4.947,12.871,12.871,0,0,0-5.957-4.955,7.3,7.3,0,0,0-7.368,1.067c-1.567,1.371-1.975,3.428-2.5,5.227a117.381,117.381,0,0,1-7.863,20.36c-1.323,2.591-2.095,4.733-4.173,6.775a33.582,33.582,0,0,1-8.626,6,42.326,42.326,0,0,1-7.007,2.877,112.481,112.481,0,0,1-24.4,4.067c.038,4.65.052,9.3-.09,13.946,13.755.2,26.606,2.431,39.4-3.614,10.515-4.97,18.485-12.172,25.326-21.749C369.779,347.821,372.468,339.213,370.272,330.127Z" transform="translate(-299.8 -319.694)"/></g><g transform="translate(97.232 4.29)"><path class="h" d="M384.568,322.961a9.885,9.885,0,0,0-7.151-7.385,9.464,9.464,0,0,0-1.9-.217c-3.086-.051-6.181,1.232-9.246,1.974-1.559.377-3.441.528-4.535-.644-.954-1.023-.93-2.692-1.892-3.709-1.106-1.17-3.006-.988-4.55-.533a19.973,19.973,0,0,0-3.5,1.408c-1.062.549-2.926,1.271-3.967.289-.854-.805-.582-2.2-.273-3.335a4.719,4.719,0,0,0-2.1-5.39c-1.09-.618-2.323-.613-3.439-1.137a12.41,12.41,0,0,1-3.326-2.611c-1.529-1.528-3.266-3.173-5.426-3.24-2.58-.08-4.581,2.08-6.512,3.792a24.826,24.826,0,0,1-7.5,4.566c-1.709.662-3.735,1.366-4.284,3.114a2.563,2.563,0,0,0,.52,2.465,2.22,2.22,0,0,0,2.415.559c1.113-.466,2.019-1.841,3.4-1.111.962.508,1.369,2.111,2,2.956a26.718,26.718,0,0,0,3.493,3.835,13.06,13.06,0,0,0,12.941,2.645c1.163-.425,2.261-1.039,3.459-1.356,1.717-.454,3.16-.348,4.009,1.26a22.109,22.109,0,0,1,1.575,5.088,39.191,39.191,0,0,0,2.235,6.49,12.735,12.735,0,0,0,2.109,3.487,11.185,11.185,0,0,0,2.825,2.13,20.97,20.97,0,0,0,13.815,2.331c4.633-.825,9.839-3.5,12.595-7.437A13.042,13.042,0,0,0,384.568,322.961Z" transform="translate(-314.849 -298.431)"/></g><path class="s" d="M358.87,304.892l-9.963.034a2.1,2.1,0,0,0-.212-1.294c-1.815-3.663-6.708-7.475-10.893-7.8-5.037-.391-11.3,2.926-13.5,7.543a3.013,3.013,0,0,0-.539,1.738l-11.208.033a1.456,1.456,0,0,0,.028,2.831l46.312-.258a1.456,1.456,0,0,0-.028-2.831Z" transform="translate(-219.766 -295.805)"/><path class="t" d="M333.158,381.029c2.4.591,4.774,1.268,7.19,1.867,4.6,1.14,9.218.975,13.8,1.586.075-.052.147-.08.222-.142.008.1,2.92-13.191,4.807-19.826A125.083,125.083,0,0,1,333.158,381.029Z" transform="translate(-206.012 -252.256)"/><path class="u" d="M351.563,341.235a38.4,38.4,0,0,0-2.889-7.478A18.932,18.932,0,0,0,347,331.4a44.238,44.238,0,0,1-7.279,16.555,33.5,33.5,0,0,1-2.13,3.962q.49.65.979,1.3c1.175,1.56,2.462,3.207,4.317,3.82a6.585,6.585,0,0,0,6.334-1.8C353.677,351.051,353.041,346.659,351.563,341.235Z" transform="translate(-203.204 -273.246)"/><path class="v" d="M331.906,312.808q1.2,5.092,2.127,10.244-1.117-1.262-2.232-2.526a6.449,6.449,0,0,0-1.5-1.371,10.976,10.976,0,0,1-1.221-.665,3.905,3.905,0,0,0-2.428-1.016c.274-.823,1.814-1.418,2.487-1.974A31.379,31.379,0,0,0,331.906,312.808Z" transform="translate(-210.133 -285.028)"/></g><g transform="translate(0)"><g class="w"><rect class="i" width="104.59" height="99.012" transform="translate(-2.789 -1.394)"/><g transform="translate(-22.192 -2.713)"><rect class="j" width="137.939" height="14.119" transform="translate(0 77.754)"/><rect class="j" width="137.939" height="14.119" transform="translate(0 51.247)"/><rect class="j" width="137.939" height="14.119" transform="translate(0 26.507)"/><rect class="j" width="137.939" height="14.119"/></g></g></g><circle class="q" cx="47.066" cy="47.066" r="47.066" transform="translate(0)"/><g transform="translate(10.449 23.924)"><path class="x" d="M249.911,340.018A37.393,37.393,0,0,1,227.3,332.23a36.122,36.122,0,0,1-14.6-27.464,37.16,37.16,0,0,1,6.269-21.72,3.377,3.377,0,0,1,4.97-.737l.191.16a3.4,3.4,0,0,1,.59,4.517,30.066,30.066,0,0,0-5.052,17.542,29.179,29.179,0,0,0,11.848,22.15,30.057,30.057,0,0,0,22,6.137,3.386,3.386,0,0,1,3.766,2.529l.06.248a3.377,3.377,0,0,1-2.872,4.13A35.232,35.232,0,0,1,249.911,340.018Z" transform="translate(-212.683 -281.531)"/></g></g><g transform="translate(125.734 274.565)"><path class="m" d="M150.069,248.976c-1.158-.511-2.575-.386-3.6-1.132a4.528,4.528,0,0,1-1.25-1.662,25.564,25.564,0,0,1-2.255-6.22c-.577-2.606-.658-5.589,1.015-7.669,4.8,3.493,5.962,10.285,10.213,14.425a8.147,8.147,0,0,1,1.761,2C158.215,253.189,151.1,249.432,150.069,248.976Z" transform="translate(-63.549 -161.376)"/><path class="m" d="M148.835,254.577c.606-1.219,1.242-2.335,1.617-3.174a3.881,3.881,0,0,0,.477-1.866c-.17-1.977-2.861-4.277-3.683-6.15a18.673,18.673,0,0,1-1.554-8.481,1.025,1.025,0,0,1,.366-.882c.381-.217.835.1,1.142.415,2.724,2.753,4.454,6.243,6.447,9.515,1.645,2.7,6.125,6.269,5.643,9.62a11.451,11.451,0,0,1-1.645,3.944L154.5,263c-.541.941-1.206,1.975-2.269,2.184-1.761.345-3.661-2.095-4.351-3.513C146.7,259.25,147.7,256.859,148.835,254.577Z" transform="translate(-61.601 -160.325)"/><path class="l" d="M156.139,245.794l10.4,6.225a70.2,70.2,0,0,0-12.45,52.11c.84,5.127,2.256,10.18,2.5,15.371.284,5.942-2.114,17.3-9.05,18.967a7.544,7.544,0,0,1-7.022-2.029,13.788,13.788,0,0,1-2.951-6.092,94,94,0,0,1,.928-53.059C139.258,274.875,153.432,244.195,156.139,245.794Z" transform="translate(-68.869 -152.857)"/><g transform="translate(69.982 7.922)"><g class="y" transform="translate(0 0)"><rect class="i" width="89.138" height="84.383" transform="translate(5.84 7.029)"/><g transform="translate(-10.696 5.905)"><rect class="j" width="117.558" height="12.033" transform="translate(0 66.266)"/><rect class="j" width="117.558" height="12.033" transform="translate(0 43.675)"/><rect class="j" width="117.558" height="12.033" transform="translate(0 22.591)"/><rect class="j" width="117.558" height="12.033"/></g></g></g><g transform="translate(77.431)"><path class="e" d="M185.56,286.018a44,44,0,0,1-43.954-43.954c0-24.237,25.866-53.177,50.1-53.177a44,44,0,0,1,43.954,43.954C235.662,257.079,209.8,286.018,185.56,286.018Zm0-80.224c-20,0-40.881,22.419-40.881,42.418a36.31,36.31,0,0,0,36.27,36.269c20,0,40.881-22.417,40.881-42.417A36.312,36.312,0,0,0,185.56,205.794Z" transform="translate(-141.606 -188.887)"/></g><g transform="translate(74.356 12.296)"><path class="h" d="M183.68,284.323a43.955,43.955,0,1,1,43.954-43.956A44.005,44.005,0,0,1,183.68,284.323Zm0-80.225a36.27,36.27,0,1,0,36.269,36.269A36.311,36.311,0,0,0,183.68,204.1Z" transform="translate(-139.724 -196.413)"/></g><g transform="translate(87.106 36.528)"><path class="x" d="M179.255,261.091a31.868,31.868,0,0,1-19.272-6.638,30.778,30.778,0,0,1-12.438-23.406,31.656,31.656,0,0,1,5.341-18.511,2.878,2.878,0,0,1,4.236-.627l.163.136a2.893,2.893,0,0,1,.5,3.851,25.622,25.622,0,0,0-4.3,14.951,24.866,24.866,0,0,0,10.1,18.877,25.625,25.625,0,0,0,18.748,5.23,2.885,2.885,0,0,1,3.209,2.155l.051.211a2.877,2.877,0,0,1-2.446,3.521A30.1,30.1,0,0,1,179.255,261.091Z" transform="translate(-147.528 -211.245)"/></g><g transform="translate(0 82.983)"><path class="h" d="M94.718,411.068c-.091.183-.173.373-.247.565-1.291,3.423,2.578,6.774,4.354,9.345l8.667,12.559a14.626,14.626,0,0,0,3.335,3.8c3.372,2.4,9.5,1.911,8.463-3.514-.408-2.147-1.871-3.911-3.16-5.676-2.6-3.56-4.923-7.878-5.323-12.347-.422-4.723,2.054-8.283,4.392-12.157a29.165,29.165,0,0,0,3.748-10.031,7.634,7.634,0,0,0,.052-3.119,3.136,3.136,0,0,0-1.939-2.3,3.6,3.6,0,0,0-1.725-.036c-3.98.722-7.292,4.384-9.224,7.681a68.624,68.624,0,0,1-8.72,11.78A15.389,15.389,0,0,0,94.718,411.068Z" transform="translate(-94.213 -145.626)"/><path class="h" d="M144.178,425.885c-.227,1.546-.351,3.375.82,4.411a4.87,4.87,0,0,0,3.233.815q9.185.127,18.338,1.023a16.021,16.021,0,0,0,7.9-.92c1.385-.493,2.807-1.4,3.13-2.84a3.766,3.766,0,0,0-2.127-3.853,13.553,13.553,0,0,0-4.555-1.15c-3.276-.5-8.048-.667-10.18-3.522-1.9-2.544-1.761-6.173-1.747-9.182.01-2.157.239-4.315.09-6.465a10.441,10.441,0,0,0-2.093-6.009,5.637,5.637,0,0,0-5.761-2.006,6.02,6.02,0,0,0-3.524,3.487,17.881,17.881,0,0,0-1.1,4.978C145.753,411.657,144.369,418.824,144.178,425.885Z" transform="translate(-62.639 -140.606)"/><path class="m" d="M189.822,245.968c-1.363,1.353-2.83,2.6-4.352,3.844-2.675,2.189-4.616,1.088-7.752.466a3.837,3.837,0,0,0-1.539-.093,1.314,1.314,0,0,0-1.07.993c-.129.892,3.1,3.034,3.712,3.841a9.783,9.783,0,0,1,2.2,5.38c.1,2.485-.451,5.267-.554,7.787-.06,1.493-.142,2.988-.134,4.483.015,2.694.227,5.878,2.175,7.952,2.972,3.166,5.919-.534,6.215-3.477a25.88,25.88,0,0,0-.149-4.689,33.662,33.662,0,0,1,3.019-17.949c2.07-4.315,5.086-7.525,5.614-12.525a2.608,2.608,0,0,0-.183-1.572,1.935,1.935,0,0,0-2.755-.3C192.53,241.389,191.46,244.342,189.822,245.968Z" transform="translate(-42.943 -239.678)"/><path class="z" d="M151.376,285.035c-.949-5.1-2.451-10.564-.323-15.3a11.368,11.368,0,0,1,10.5-6.483A11.917,11.917,0,0,1,171.9,279.968c-1.454,3.05-4.205,4.537-5.055,8.156a55.829,55.829,0,0,0-.838,7.914,10.515,10.515,0,0,1-1.835,5.784,7.6,7.6,0,0,1-7.364,2.278c-1.959-.392-6.269-2.116-7.223-4.05-.9-1.823,1.193-3.578,1.745-5.282C152.323,291.709,151.952,288.133,151.376,285.035Z" transform="translate(-59.258 -224.74)"/><path class="l" d="M218.105,255.017H205.513c.052,1.145.095,2.294.129,3.439l.382,12.8c.19,6.318-.049,11.7-3.333,17.22-3.89,6.537-11.281,14.765-19.294,15.817-2.9.381-5.816-.35-8.7-.876-6.828-1.245-19.9-3.184-25.644,2.046-2.624,2.39-3.256,6.2-3.91,9.688a107.656,107.656,0,0,1-8.756,26.709c-1.758,3.661-3.761,7.344-4.111,11.391a16.915,16.915,0,0,0,5.485,13.386c4.091,3.885,8.542,2.617,13.6,3.735,5.743,1.269,12.4,4.158,18.2,4.508,6.1.369,5.506-7.365,6.235-11.781,1.276-7.726,2.567-15.506,5.243-22.867s6.854-14.359,13.01-19.2c5.432-4.272,12.218-6.7,17.214-11.544a27.057,27.057,0,0,0,3.846-4.72,33.7,33.7,0,0,0,4.991-14.083,36.456,36.456,0,0,0,.016-6.432C219.585,274.688,218.3,264.732,218.105,255.017Z" transform="translate(-70.117 -229.956)"/><path class="o" d="M130,390.417c-1.222,3.49-2.519,6.957-3.991,10.384-7.573,17.63-18.862,32.723-28.668,49.176.858.725,17.057,11.332,16.346,12.358,22.078-23.231,40.938-59.657,53.621-96.014,4.156-11.917,8.956-23.6,12.6-35.638a5.775,5.775,0,0,0,.346-2.624,5.85,5.85,0,0,0-2.3-3.187,67.323,67.323,0,0,0-20.769-12.025,6.552,6.552,0,0,1,.609-3.181c-.472-.549-1.318.113-1.709.722-6.447,10.053-8.569,23.693-11.464,35.269-1.153,4.741-1.936,9.666-3.683,14.155-1.89,4.864-3.8,9.737-5.53,14.668C133.54,379.8,131.855,385.135,130,390.417Z" transform="translate(-92.229 -195.449)"/><path class="h" d="M187.559,274.876c.328-3.171,1.392-6.105,1.327-9.514a6.924,6.924,0,0,0-.371-2.162c-1.559-4.483-5.584-1.683-8.742-2.681-1.118-.355-2.137-.972-3.246-1.35a7.324,7.324,0,0,0-5.88.5c-1.92,1.157-1.814,3.833-3.555,5.264-2.23,1.835-4.209,2.211-5.24,5.372-.549,1.684.157,5.818-.941,7.029-1.008,1.114-4.614.575-6.163,1.008a14.668,14.668,0,0,0-9.85,8.821c.023-.064-6.078.464-6.672.613a23.088,23.088,0,0,0-6.965,3.044,19.9,19.9,0,0,0-8.916,12.231,29.211,29.211,0,0,0,.235,12.19,26.835,26.835,0,0,0,1.892,5.924c3.05,6.488,9.633,10.9,16.642,12.407s14.379.387,21.141-2c8.7-3.072,16.91-8.5,21.5-16.51a25.3,25.3,0,0,0,2.366-19.921c-.511-1.588-1.549-2.959-2.08-4.491-.73-2.111-.547-1.835.794-3.648,1.982-2.679,3.111-5.361,2.722-8.775A15.289,15.289,0,0,1,187.559,274.876Z" transform="translate(-76.725 -227.571)"/><path class="o" d="M149.03,402.737c.76,11.332,1.16,22.685,1.379,34.039.212,10.942-.851,22.542.265,33.426.036.361,19.28.043,20.1-.853.863-.943.3-5.573.345-6.751.2-5.281.369-10.561.551-15.841.216-6.272.539-12.539.931-18.8.374-6,2.415-10.618,3.766-16.431,2.82-12.134,2.4-24.757,1.546-37.1-1.1-15.8-1.882-30.876.17-46.614-2.085-.528-4.95-2.675-7.267-3.72-4.676-2.109-9.378-4.183-14-6.4-3.79-1.82-7.592-3.624-11.453-5.3-2.524-1.093-7.488-4.593-10.043-2.431a7.925,7.925,0,0,0-2.106,3.7c-2.13,6.408-2.942,13.414-1.185,19.931,2.021,7.491,7.1,13.642,9.623,20.927,2.9,8.393,2.335,17.661,4.021,26.334A176.856,176.856,0,0,1,149.03,402.737Z" transform="translate(-70.857 -195.57)"/><g transform="translate(85.462 23.257)"><path class="s" d="M153.225,261.443c1.771-3.209,4.509-6.043,8.006-7.146,2.359-.743,5.3-.487,6.8,1.475,1.392,1.814,1.1,4.385.492,6.591a31.25,31.25,0,0,1-4.9,10.154,6.541,6.541,0,0,1-2.052,2.014,5.8,5.8,0,0,1-2.614.572c-2.179.059-8.176-.737-9.144-3.243-.457-1.185.768-3.741,1.137-4.913A30.018,30.018,0,0,1,153.225,261.443Z" transform="translate(-144.498 -253.913)"/><path class="s" d="M168.6,262.568c-1.127-4.248-6.141-5.682-9.955-5.532a12.932,12.932,0,0,0-10.52,6.039c-3.993,6.62-.408,20.846,9.337,19.065a11.3,11.3,0,0,0,7.207-5.4,29.786,29.786,0,0,0,3.052-7.507q.159-.551.317-1.1C168.562,266.316,169.085,264.393,168.6,262.568ZM159.045,279a7.343,7.343,0,0,1-7.5,0c-1.153-.585-.136-2.315,1.013-1.733a5.247,5.247,0,0,0,5.475,0A1,1,0,0,1,159.045,279Z" transform="translate(-146.522 -251.94)"/></g><path class="aa" d="M140.432,335.106a4.378,4.378,0,0,0-2.581-.235q-2.132,10.423-4.81,20.728c-.871,3.341-1.452,7.212-2.877,10.362-.881,1.951-1.776,4.111.969,5.385a5.979,5.979,0,0,0,5.46-.675c3.679-2.214,5.56-6.46,6.929-10.53.874-2.6,1.807-5.058,1.6-7.818-.145-1.9-.562-3.758-.765-5.646a35.849,35.849,0,0,0-1.83-8.125C141.886,336.774,141.44,335.62,140.432,335.106Z" transform="translate(-71.982 -179.393)"/></g></g><g transform="translate(274.531 78.848)"><g transform="translate(200.953 12.416)"><path class="h" d="M348.9,214.334c.518,1.394.9,3.276-.337,4.106a3.38,3.38,0,0,1-1.431.428l-3.173.448a7.371,7.371,0,0,1-2.183.091c-.583-.091-1.134-.322-1.707-.464-2.942-.734-5.89.866-8.824,1.634-4.032,1.052-9.831.475-13.436-1.809-3.877-2.456-1.227-6.864,2.591-7.39,3.557-.49,7.337.286,10.659-1.075a3.688,3.688,0,0,0,2.186-1.916,4.651,4.651,0,0,0-.577-3.449q-1.125-2.475-2.248-4.95a8.29,8.29,0,0,0-1.6-2.077c2.681.1,5.542-.688,8.223-1.2,2.3-.438,4.3-1.657,5.563.716C345.345,202.572,346.862,208.865,348.9,214.334Z" transform="translate(-303.455 -1.072)"/><g transform="translate(14.123 24.108)"><path class="ab" d="M327.508,94.343c1.738,6.226,3.322,12.254,8.037,16.889a32.442,32.442,0,0,0,12.472,7.612c9.581,3.529,16.647,1.5,23.068-6.847,1.147-1.493,1.912-3.3,3.993-4.3a6.826,6.826,0,0,1,6.986.768,10.868,10.868,0,0,1,3.823,6.442,6.526,6.526,0,0,1,.165,2.573c-.64,3.434-2.822,5.63-5.3,7.97s-5.094,4.828-8.193,6.3c-6.236,2.975-12.427,5.217-19.414,4.127-12.647-1.975-23.891-8.359-30.7-19.334-2.907-4.684-3.318-10.4-4.372-15.724-.606-3.055-.72-6.292-1.149-9.373A60.924,60.924,0,0,0,327.508,94.343Z" transform="translate(-316.929 -91.45)"/></g><path class="s" d="M373.751,182.148c-10.327-.815-17.99-4.223-27.181-9.061-.083-.137-3.41-1.541-3.493-1.678,0-.552,1.992.717,1.982.168-.126-6.875-2.382-15.57-2.751-22.435-.454-8.447-.922-16.943-.1-25.383.377-3.867.817-6.891,3.075-10.125a28.505,28.505,0,0,1,7.226-7.058c5.256-3.625,11.249-6.971,17.64-4.815,5.687,1.918,10.133,6.584,12.8,11.852,3.215,6.349,4.241,13.546,5.223,20.594l2.882,20.7c.394,2.83.283,5.548.675,8.354.467,3.343,1.733,7.016,1.733,10.378.191,1.095-.047,6.114-.085,8.506C386.369,181.87,380.76,182.7,373.751,182.148Z" transform="translate(-287.069 -61.237)"/><g transform="translate(0 109.453)"><path class="o" d="M313.757,156.882c3.666-2.877,9.2-4.906,13.113-6.383a110.508,110.508,0,0,1,28.428-6.2c17.165-1.67,33.633.353,50.56,3.006a6.405,6.405,0,0,1,2.281.655c1.5.877,2.032,2.8,2.068,4.537.069,3.241-1.093,6.367-2.238,9.4-1.1,2.91-1.511,7.346-3.513,9.682a16.162,16.162,0,0,1-7,4.165,64.635,64.635,0,0,1-15.729,2.892c-6.5.428-12.708-.221-19.086-.57-7.61-.418-15.644.85-23.277,1.118,3.942,18.271,8.64,36.413,12.188,54.724-4.694,1.487-9.548,2.418-14.381,3.5-1.086.243-2.181.556-3.277.886-.193-.3-.371-.606-.542-.915-5.8-10.425-12.211-20.217-16.683-31.353-4.076-10.157-8.189-20.949-8.378-32.032-.08-4.632.317-11.58,3.539-15.3A13.7,13.7,0,0,1,313.757,156.882Z" transform="translate(-308.285 -143.687)"/></g><path class="m" d="M366.472,105.068l-1.323-5.72a51.929,51.929,0,0,0-2.431-8.342,17.357,17.357,0,0,0-5-7.009,8.568,8.568,0,0,0-3.547-1.769A11.117,11.117,0,0,0,351,82.159a20.246,20.246,0,0,0-6.05,1.317c-6.319,2.642-4.715,12.824-2.9,17.653.951,2.531,2.274,5.289,4.829,6.174a21.906,21.906,0,0,1,2.565.745c2.155,1.059,3.356,3.9,3.972,6.058a27.635,27.635,0,0,1,.882,4.911c.074.748-.341,2.464.322,2.974.7.536,3.054-.054,3.838-.225a21.085,21.085,0,0,0,7.2-3.371,8.7,8.7,0,0,0,2.663-2.506c1.086-1.781.253-2.781-.356-4.392A51.22,51.22,0,0,1,366.472,105.068Z" transform="translate(-287.913 -73.281)"/><path class="h" d="M340.648,260.233a27.888,27.888,0,0,1-2.148,4.812c-1.209,2.083-2.738,4.026-3.431,6.333s-.286,5.187,1.729,6.506c1.66,1.086,3.83.8,5.787.474,2.083-.348,4.281-.748,5.88-2.129a10.146,10.146,0,0,0,2.64-4.468,38.288,38.288,0,0,0,1.861-7.965,11.1,11.1,0,0,1,.936-4.019c1.268-2.331,4.313-3.413,5.215-5.909.58-1.6.111-3.372-.312-5.024a85.649,85.649,0,0,1-2.078-11.16c-.193-1.629.34-8.452-.845-9.4-2.8-2.24-14.018,4.284-16.98,5.284.583-.2,3.581,15.278,3.583,16.84A31.711,31.711,0,0,1,340.648,260.233Z" transform="translate(-291.507 19.086)"/><path class="h" d="M367.475,95.09c.01-.139.016-.276.025-.413.186-3.583.464-7.517-1.9-10.487-2.1-2.642-5.032-3.142-9.125-3.442-4.715-.345-10.736-1.715-15.364-.405-2.018.572-3.91,2.263-3.915,4.361,0,2.242,2.124,3.978,4.3,4.509,3.817.93,9.556-1.518,11.18,3.691.944,3.034,1.183,5.874,4.619,7.194a9.809,9.809,0,0,0,6.56-.088,5.354,5.354,0,0,0,2.773-1.792A5.943,5.943,0,0,0,367.475,95.09Z" transform="translate(-289.957 -74.735)"/><g transform="translate(46.707)"><path class="s" d="M352.8,78.054a.715.715,0,0,1,.212-.4,1.09,1.09,0,0,1,1.813-.059.881.881,0,0,1,.147,1.059,1.126,1.126,0,0,1-1.345.863A1.05,1.05,0,0,1,352.8,78.054Z" transform="translate(-326.824 -76.411)"/><path class="l" d="M339.474,77.921c.907.193,1.8.456,2.7.714q2.208.637,4.423,1.248a7.617,7.617,0,0,0,1.515.319c.475.031.614-.119.967-.417a13.049,13.049,0,0,1,2.135-1.627,12.481,12.481,0,0,1,6.254-1.456c.26.008.52.026.778.052A12.235,12.235,0,0,1,369.2,89.919c-.028.341-.1.974-.431,1.178-.289.18-.614-.023-.918-.1a17.5,17.5,0,0,1-2.676-1.1q-1.167-.52-2.335-1.033-.941-.409-1.885-.815-8.815-3.779-17.861-6.958-2.318-.819-4.646-1.6c-.52-.175-1.936-.681-1.488-1.516.167-.309.6-.332.946-.3A14.2,14.2,0,0,1,339.474,77.921Z" transform="translate(-336.872 -76.694)"/></g><g transform="translate(38.961 111.299)"><path class="o" d="M400.017,152.966a42.029,42.029,0,0,0-.333-6.168q-10.893-.544-21.716-1.982c.425.056-1.023,2.787-1.255,3.034a9.2,9.2,0,0,1-3.258,1.784,52.2,52.2,0,0,0-8.7,4.794c-6.978,4.875-10.644,9.687-15.475,16.792-4.766,7.011-6.79,14.964-10.216,22.47a72.256,72.256,0,0,0-6.808,27q-.047.956-.075,1.913c-.3,10.036.944,20.065,2.186,30.037q2.821,22.644,5.643,45.291c6.986-.477,13.814-2.264,20.7-3.647.013-.123.036-.248.044-.369,1.92-26.19,1.462-52.809,8.05-78.23,3.17-12.237,12.352-21.315,19.281-31.47C394.71,174.495,399.783,164.521,400.017,152.966Z" transform="translate(-332.131 -144.817)"/></g><path class="ac" d="M358.578,150.611a11.88,11.88,0,0,0,15.549,4.348c.871-.423,1.637.879.761,1.3a13.417,13.417,0,0,1-16.8-3.746.722.722,0,0,1-.279-.263q-.27-.439-.538-.881C356.765,150.537,358.054,149.8,358.578,150.611Z" transform="translate(-277.309 -30.069)"/><path class="ad" d="M350.616,110.555c.27,0-.859-5.779-1.028-6.3a16.3,16.3,0,0,0-1.379-3.1c-.278-.477-1.706-1.848-.609-2.153s2.6-.047,3.8-.31a19.722,19.722,0,0,0,5.619-2.166,38.815,38.815,0,0,1-3.882,11.754C352.644,109.237,351.837,110.576,350.616,110.555Z" transform="translate(-283.625 -64.123)"/><path class="m" d="M347.052,92.837l.043-1.07a2.293,2.293,0,0,1,1.142-1.99c2.129-1.026,5.344-.618,6.284,1.889,1.181,3.148-2.712,4.573-5.161,4.361a2.355,2.355,0,0,1-2.307-2.305,2.542,2.542,0,0,1,.052-.364A2.02,2.02,0,0,1,347.052,92.837Z" transform="translate(-283.715 -68.734)"/><path class="ae" d="M348.01,172.993c1.65-3.594,4.013-6.8,6.1-10.162s3.951-6.98,4.416-10.906a116.714,116.714,0,0,1-29.9,22.056C335.155,173.561,341.485,173.413,348.01,172.993Z" transform="translate(-295.389 -29.013)"/></g><g transform="translate(0)"><path class="h" d="M351.952,92.856,331.845,95.9V86.763l20.106,3.046Z" transform="translate(-92.399 -57.897)"/><g transform="translate(31.073)"><path class="l" d="M204.306,69.1v.018c.121,0,.242,0,.361.008Z" transform="translate(-204.306 -69.095)"/><path class="l" d="M212.23,108.454l-7.924.925A40.3,40.3,0,0,0,212.23,108.454Z" transform="translate(-204.306 -44.149)"/><path class="l" d="M210.655,133.284l202.1-23.6a6.926,6.926,0,0,0,6.122-6.878h0a6.924,6.924,0,0,0-6.037-6.867L206.791,69.277c17.844,2.13,25.185,17.96,25.185,34.5C231.976,118.977,225.026,130.123,210.655,133.284Z" transform="translate(-202.731 -68.98)"/></g><g transform="translate(0 2.455)"><circle class="af" cx="30.159" cy="30.159" r="30.159"/><circle class="ag" cx="30.159" cy="30.159" r="30.159"/><g transform="translate(12.063 16.984)"><path class="x" d="M212.061,111.457a19.492,19.492,0,0,1-11.778-4.057,18.823,18.823,0,0,1-7.6-14.306,19.349,19.349,0,0,1,3.266-11.312,1.761,1.761,0,0,1,2.59-.384l.1.083a1.767,1.767,0,0,1,.307,2.353,15.676,15.676,0,0,0-2.63,9.138,15.192,15.192,0,0,0,6.171,11.536,15.656,15.656,0,0,0,11.458,3.2,1.764,1.764,0,0,1,1.961,1.318l.031.127a1.757,1.757,0,0,1-1.495,2.152A18.374,18.374,0,0,1,212.061,111.457Z" transform="translate(-192.671 -80.993)"/></g></g><g transform="translate(46.114 1.541)"><g class="ah"><g transform="translate(29.741 0)"><path class="h" d="M231.716,132.185v-1.827a29.246,29.246,0,0,0,0-58.492V70.038a31.073,31.073,0,1,1,0,62.147Z" transform="translate(-231.716 -70.038)"/><g transform="translate(46.609 5.485)"><path class="h" d="M260.244,124.574v-1.828a23.762,23.762,0,1,0,0-47.524V73.4a25.589,25.589,0,1,1,0,51.179Z" transform="translate(-260.244 -73.395)"/></g><g transform="translate(130.691 16.451)"><path class="h" d="M311.708,109.352v-1.827a12.8,12.8,0,0,0,0-25.59V80.107a14.623,14.623,0,0,1,0,29.245Z" transform="translate(-311.708 -80.107)"/></g><g transform="translate(91.392 10.968)"><path class="h" d="M287.654,116.964v-1.828a18.278,18.278,0,1,0,0-36.556V76.751a20.106,20.106,0,1,1,0,40.213Z" transform="translate(-287.654 -76.751)"/></g></g></g></g></g><path class="ai" d="M342.319,94.838a20.167,20.167,0,0,0,3.238-1.253" transform="translate(-85.76 -53.573)"/><path class="m" d="M323.992,111.034a33.881,33.881,0,0,0-1.48-3.189,7.816,7.816,0,0,1-1.119-3.2,27.872,27.872,0,0,0-.162-4.8c-.248-1.315-.547-2.624-.894-3.916-.127-.477-1.48-5.612-2.5-4.622a.959.959,0,0,0-.237.549c-.284,1.745-.078,3.493-.26,5.244-.034.348-.278.81-.593.663-.652-.3-1.227-2.947-1.526-3.624-.912-2.062-1.9-4.089-2.856-6.133-.632-1.356-1.639-2.941-3.129-2.791a2.469,2.469,0,0,0-1.833,1.415,7.273,7.273,0,0,0-.593,2.33q-.306,2.2-.611,4.392a8.176,8.176,0,0,0,.449,4.975c.926,2.722,1.549,5.673,3.318,7.96,1.73,2.237,4.392,4.085,5.777,6.548a35.276,35.276,0,0,0,2.095,3.54,3.393,3.393,0,0,0,2.5,1.449,5.094,5.094,0,0,0,4.1-3.346A5.8,5.8,0,0,0,323.992,111.034Z" transform="translate(-108.773 -58.881)"/><g transform="translate(206.151 48.823)"><path class="s" d="M381.911,142.782c-14.132,3.771-25.868,3.473-40.379-1.255-17.539-5.717-23.309-19.325-30.065-35.653,3.33-2.4,6.73-4.588,10.133-6.9,10.6,18.39,16.831,26.512,38.6,27.7,5.387.294,7.756-.263,12.066-2.269,5.537-2.58,8.566-7.916,12.972-12.08a27.989,27.989,0,0,1,4.418-3.168,5.848,5.848,0,0,1,3.108-1.247,6.2,6.2,0,0,1,3.508,1.511,19.688,19.688,0,0,1,4.833,5.024,7.459,7.459,0,0,1,.886,5.893c-1.686,6.72-5.607,11.773-10.559,16.426a23.178,23.178,0,0,1-4.258,3.091C385.515,140.865,384,142.225,381.911,142.782Z" transform="translate(-311.466 -98.978)"/></g><path class="aj" d="M368.267,127.041a38.835,38.835,0,0,1-9.76,3.944c-3.165,1.359-6.8,2.67-9.669,2.305l-.541.127a194.608,194.608,0,0,1,23.573,13.745c-.056-.038,1.322-3.452,3.121-7.808,1.238-6.864,2.349-13.75,3.377-20.651A39.567,39.567,0,0,1,368.267,127.041Z" transform="translate(-81.972 -37.653)"/></g></g></svg>