<svg xmlns="http://www.w3.org/2000/svg" width="685" height="528.499" viewBox="0 0 685 528.499"><defs><style>.a{fill:#3b868a;}.b{fill:#d2d2d2;}.c{fill:#d7d7ff;}.d{fill:#eae6ff;}.e{fill:#bdc6f9;}.f{fill:#8784ef;}.g{fill:#9aa3f4;}.ao,.au,.bj,.h{fill:none;}.h{stroke:#9aa3f4;stroke-width:1.5px;}.au,.bj,.h{stroke-miterlimit:10;}.i{fill:#19034d;}.j,.w{fill:#c4c3fc;}.ai,.k,.y{opacity:0.35;}.ax,.l{fill:#fff;}.as,.m{opacity:0.25;}.n{fill:#fca70c;}.o{fill:#b1affd;}.p{opacity:0.15;}.q{opacity:0.26;}.r{opacity:0.62;}.s{fill:#d5dbda;}.t{fill:#efefef;}.u{fill:#7a7ae5;}.v{fill:#cfcfff;}.w{opacity:0.55;}.x{fill:#a4a4f7;}.ae,.y{fill:#5851bc;}.z{fill:#a2a7f4;}.aa{fill:#9090f4;}.ab,.au,.ax{opacity:0.45;}.ac{fill:#e2deff;}.ad{fill:#f9c110;}.af{fill:#5045af;}.ag{fill:#ffb9b0;}.ah,.ai{fill:#7762ef;}.aj{fill:#5146af;}.ak{fill:#f2f2f2;}.al{fill:#8484ef;}.am{fill:#c4c4f7;}.an{fill:#bbbbf2;}.ao{stroke:#c4c4f7;stroke-linecap:round;stroke-linejoin:round;stroke-width:0.75px;}.ap{fill:#ed9c80;}.aq{fill:#38287c;}.ar{fill:#453087;}.as{fill:#ce4a30;}.at{fill:#7a74d1;}.au{stroke:#a4a4f7;}.av{fill:#483a99;}.aw{fill:#d5d2ff;}.ay{fill:#a9adff;}.az{fill:#4a41a3;}.ba{fill:#f2a181;}.bb{fill:#5e5dbb;}.bc{fill:#b4b4db;}.bd{fill:#6960c4;}.be{fill:#170d54;}.bf{fill:#ffbe9d;}.bg{fill:#3b2e7a;}.bh{fill:#e9e6ff;}.bi{fill:#e0d9ff;}.bj{stroke:#f2a181;stroke-width:0.25px;}.bk{opacity:0.3;}.bl{fill:#3939d3;}.bm{fill:#fefefe;}</style></defs><g transform="translate(-313.972 -131.651)"><path class="a" d="M993.409,447.892c-11.852-33.044-30.516-43.1-48.268-64.3-21.68-25.886-36.3-44.7-30.675-78,9.2-54.407,13.137-190.1-130.9-172.361-51.626,6.359-92.422,45.919-122.1,85.41-25.252,33.6-70.68,36.568-107.246,44.4-44.926,9.627-90.691,24.167-132.257,45.469C336.356,352.4,310.788,415.471,314.28,496.176c1.053,24.383,4.506,62.788,45.691,107.728,55.592,60.655,136.374,68.779,233.6,40.922,22.256-6.377,43.293-16.377,65.187-23.905a307.583,307.583,0,0,1,70.35-15.276c55.842-5.4,113.729,4.366,167.3-12.307a176.5,176.5,0,0,0,74.824-46.4C996.82,520.133,1005.919,482.769,993.409,447.892Z" transform="translate(0 0)"/><g transform="translate(359.971 557.938)"><path class="b" d="M336.984,359.35c0,7.97,101.141,14.436,225.918,14.436,124.759,0,225.9-6.466,225.9-14.436s-101.141-14.44-225.9-14.44C438.125,344.91,336.984,351.375,336.984,359.35Z" transform="translate(-336.984 -344.91)"/></g><path class="b" d="M463.267,365.564c0,4.989-25.676,9.033-57.349,9.033s-57.349-4.044-57.349-9.033,25.676-9.033,57.349-9.033S463.267,360.575,463.267,365.564Z" transform="translate(34.56 224.637)"/><ellipse class="b" cx="96.224" cy="7.148" rx="96.224" ry="7.148" transform="translate(783.109 584.939)"/><g transform="translate(365.281 430.669)"><path class="c" d="M350.115,302.577l-3.695,51.749h49.364l-3.4-51.846Z" transform="translate(-332.868 -260.025)"/><g transform="translate(27.039 45.625)"><g transform="translate(0 0.038)"><path class="d" d="M353.167,305.522v0a1.583,1.583,0,0,1,1.691-1.435h0a1.452,1.452,0,1,1,.006,2.865h0A1.585,1.585,0,0,1,353.167,305.522Zm1.693-.891a.916.916,0,1,0,0,1.773h0a.916.916,0,1,0,0-1.773Zm-1.425.89h0Z" transform="translate(-353.167 -304.085)"/></g><g transform="translate(16.829)"><path class="d" d="M361.586,305.5l.274,0-.274,0a1.321,1.321,0,0,1,.4-.927,1.832,1.832,0,0,1,1.293-.508h.006a1.578,1.578,0,0,1,1.691,1.427,1.316,1.316,0,0,1-.512,1.031,1.851,1.851,0,0,1-1.177.4h0A1.583,1.583,0,0,1,361.586,305.5Zm1.689-.89a1.282,1.282,0,0,0-.906.35.763.763,0,0,0-.238.538h0a1.048,1.048,0,0,0,1.149.884h0a1.313,1.313,0,0,0,.832-.28.789.789,0,0,0,.312-.608,1.044,1.044,0,0,0-1.145-.884Z" transform="translate(-361.586 -304.066)"/></g><path class="d" d="M362.238,315.5c.158,0,.318,0,.48-.008,3.092-.1,5.451-1.1,7.01-2.96,2.579-3.08,1.995-7.376,1.969-7.558a.54.54,0,0,0-.618-.462.547.547,0,0,0-.466.618c.006.04.538,4.006-1.729,6.706-1.349,1.607-3.438,2.471-6.2,2.563q-4.015.12-6-2.095c-2.411-2.683-1.817-7.092-1.811-7.136a.547.547,0,0,0-1.083-.156c-.028.2-.674,4.949,2.077,8.018A8.142,8.142,0,0,0,362.238,315.5Z" transform="translate(-352.633 -303.625)"/></g><path class="e" d="M362.831,309.835l-5.9,38.475,53.594-.126L405.1,309.735Z" transform="translate(-322.368 -252.777)"/><path class="f" d="M355.385,342.284a10.87,10.87,0,1,0,10.87,10.87A10.871,10.871,0,0,0,355.385,342.284Zm0,15.917a5.046,5.046,0,1,1,5.067-5.047A5.045,5.045,0,0,1,355.385,358.2Z" transform="translate(-334.771 -220.264)"/><path class="g" d="M354.492,342.284a10.87,10.87,0,1,0,10.87,10.87A10.873,10.873,0,0,0,354.492,342.284Zm0,15.917a5.046,5.046,0,1,1,5.067-5.047A5.045,5.045,0,0,1,354.492,358.2Z" transform="translate(-335.665 -220.264)"/><path class="f" d="M386.109,342.284a10.87,10.87,0,1,0,10.87,10.87A10.872,10.872,0,0,0,386.109,342.284Zm0,15.917a5.046,5.046,0,1,1,5.069-5.047A5.043,5.043,0,0,1,386.109,358.2Z" transform="translate(-304.08 -220.264)"/><path class="g" d="M385.215,342.284a10.87,10.87,0,1,0,10.87,10.87A10.871,10.871,0,0,0,385.215,342.284Zm0,15.917a5.046,5.046,0,1,1,5.069-5.047A5.043,5.043,0,0,1,385.215,358.2Z" transform="translate(-304.973 -220.264)"/><path class="h" d="M452.129,281.241H419.467a9.948,9.948,0,0,0-8.445,4.69l-19.741,31.7" transform="translate(-288.056 -281.241)"/><path class="h" d="M355.107,360.042H428.1a7.914,7.914,0,0,0,7.814-6.66l7.552-47.113a7.913,7.913,0,0,0-7.814-9.165H347.555a7.914,7.914,0,0,0-7.814,9.165l7.554,47.113A7.911,7.911,0,0,0,355.107,360.042Z" transform="translate(-339.64 -265.395)"/><line class="h" y2="62.938" transform="translate(51.962 31.709)"/><line class="h" x1="96.568" transform="translate(3.677 63.178)"/><line class="h" x1="6.246" y2="62.938" transform="translate(74.542 31.709)"/><line class="h" x2="5.765" y2="62.938" transform="translate(24.576 31.709)"/><path class="h" d="M432.349,327.158l11.826,17.584a7.2,7.2,0,0,1-5.979,11.224H341.48" transform="translate(-337.803 -235.374)"/></g><g transform="translate(490.919 289.894)"><rect class="i" width="100.122" height="26.934" transform="translate(122.953 240.911)"/><rect class="i" width="347.083" height="249.704" rx="9.387" transform="translate(0)"/><rect class="j" width="326.639" height="216.641" rx="5.768" transform="translate(9.695 9.105)"/><path class="i" d="M7.322,0H178.87a7.322,7.322,0,0,1,7.322,7.322V16.98a0,0,0,0,1,0,0H0a0,0,0,0,1,0,0V7.322A7.322,7.322,0,0,1,7.322,0Z" transform="translate(79.918 265.502)"/><g class="k" transform="translate(87.699 24.068)"><rect class="l" width="228.551" height="153.626" rx="5.01"/></g><g class="m" transform="translate(87.699 24.068)"><g transform="translate(15.146 23.231)"><g transform="translate(6.575 88.991)"><rect class="n" width="9.955" height="24.994"/></g><g transform="translate(29.009 67.05)"><rect class="o" width="9.956" height="46.935"/></g><g transform="translate(51.443 71.904)"><rect class="n" width="9.955" height="42.081"/></g><g transform="translate(73.876 48.144)"><rect class="o" width="9.956" height="65.841"/></g><g class="p" transform="translate(29.009 67.05)"><rect class="q" width="4.569" height="46.935"/></g><g class="p" transform="translate(6.575 88.991)"><rect class="q" width="4.569" height="24.994"/></g><g class="r" transform="translate(73.876 48.144)"><rect class="q" width="4.569" height="65.841"/></g><g class="p" transform="translate(51.443 71.904)"><rect class="q" width="4.57" height="42.081"/></g><g transform="translate(0 25.99)"><path class="s" d="M543.043,342.355h-89.1V247.48H455.3V341h87.741Z" transform="translate(-453.943 -247.48)"/></g><g transform="translate(8.244 34.011)"><path class="s" d="M458.975,294.768l-.908-1.011,23.308-20.929,21.589,4.69,23.377-26.025,1.011.908-23.906,26.613-21.681-4.71Z" transform="translate(-458.068 -251.492)"/></g><g transform="translate(72.769 30.166)"><path class="s" d="M496.939,258.167l-6.592-6.321,8.51-2.277Z" transform="translate(-490.348 -249.569)"/></g><g transform="translate(97.537 87.219)"><rect class="o" width="6.837" height="6.837"/><g transform="translate(0 11.979)"><rect class="n" width="6.837" height="6.837"/></g><g transform="translate(8.721 14.931)"><rect class="t" width="21.672" height="3.885"/></g><g transform="translate(8.721 2.952)"><rect class="t" width="21.672" height="3.885"/></g></g><g transform="translate(137.745 87.219)"><rect class="o" width="6.837" height="6.837"/><g transform="translate(0 11.979)"><rect class="n" width="6.837" height="6.837"/></g><g transform="translate(8.721 14.931)"><rect class="t" width="21.672" height="3.885"/></g><g transform="translate(8.721 2.952)"><rect class="t" width="21.672" height="3.885"/></g></g><g transform="translate(173.952 87.219)"><rect class="o" width="6.837" height="6.837"/><g transform="translate(0 11.979)"><rect class="n" width="6.837" height="6.837"/></g><g transform="translate(8.72 14.931)"><rect class="t" width="14.262" height="3.885"/></g><g transform="translate(8.72 2.952)"><rect class="t" width="14.262" height="3.885"/></g></g><g transform="translate(98.817 21.894)"><rect class="t" width="98.117" height="1.784"/></g><rect class="t" width="196.934" height="4.083"/><g transform="translate(98.523 27.442)"><rect class="t" width="98.411" height="1.784"/></g><g transform="translate(98.523 16.347)"><rect class="t" width="98.411" height="1.784"/></g><g transform="translate(98.523 32.99)"><rect class="t" width="98.411" height="1.784"/></g><g transform="translate(98.523 38.537)"><rect class="t" width="98.411" height="1.783"/></g><g transform="translate(98.523 44.085)"><rect class="t" width="98.411" height="1.784"/></g><g transform="translate(98.523 49.632)"><rect class="t" width="98.411" height="1.784"/></g><g transform="translate(98.523 55.18)"><rect class="t" width="98.411" height="1.784"/></g><g transform="translate(98.523 60.727)"><rect class="t" width="98.411" height="1.784"/></g><g transform="translate(110.571 66.275)"><rect class="t" width="86.363" height="1.784"/></g></g><path class="u" d="M664.9,222.856H456.381a10.014,10.014,0,0,0-10.015,10.015v8.765H674.917v-8.765A10.014,10.014,0,0,0,664.9,222.856Z" transform="translate(-446.366 -222.856)"/><path class="v" d="M548.883,229.167A2.888,2.888,0,1,1,546,226.281,2.887,2.887,0,0,1,548.883,229.167Z" transform="translate(-349.728 -219.435)"/><circle class="v" cx="2.887" cy="2.887" r="2.887" transform="translate(205.15 6.846)"/><circle class="v" cx="2.887" cy="2.887" r="2.887" transform="translate(216.919 6.846)"/></g><g transform="translate(26.988 52.067)"><g transform="translate(0 5.982)"><rect class="w" width="228.551" height="153.626" rx="5.01"/></g><g transform="translate(4.637)"><rect class="l" width="228.551" height="153.626" rx="5.01"/></g><g transform="translate(19.782 23.231)"><g transform="translate(6.575 88.991)"><rect class="n" width="9.955" height="24.994"/></g><g transform="translate(29.009 67.05)"><rect class="o" width="9.956" height="46.935"/></g><g transform="translate(51.443 71.904)"><rect class="n" width="9.955" height="42.081"/></g><g transform="translate(73.877 48.144)"><rect class="o" width="9.956" height="65.841"/></g><g class="p" transform="translate(29.009 67.05)"><rect class="q" width="4.57" height="46.935"/></g><g class="p" transform="translate(6.575 88.991)"><rect class="q" width="4.569" height="24.994"/></g><g class="r" transform="translate(73.877 48.144)"><rect class="q" width="4.569" height="65.841"/></g><g class="p" transform="translate(51.443 71.904)"><rect class="q" width="4.569" height="42.081"/></g><g transform="translate(0 34.465)"><path class="s" d="M514.991,352.127h-89.1v-86.4h1.359v85.041h87.741Z" transform="translate(-425.891 -265.727)"/></g><g transform="translate(8.244 34.011)"><path class="s" d="M430.923,308.775l-.908-1.011,23.308-20.929,21.589,4.69L498.289,265.5l1.012.908-23.906,26.613-21.681-4.71Z" transform="translate(-430.015 -265.499)"/></g><g transform="translate(72.769 30.166)"><path class="s" d="M468.887,272.174l-6.592-6.321,8.51-2.277Z" transform="translate(-462.295 -263.576)"/></g><g transform="translate(97.537 87.219)"><rect class="o" width="6.837" height="6.837"/><g transform="translate(0 11.979)"><rect class="n" width="6.837" height="6.837"/></g><g transform="translate(8.721 14.931)"><rect class="t" width="21.672" height="3.885"/></g><g transform="translate(8.721 2.952)"><rect class="t" width="21.672" height="3.885"/></g></g><g transform="translate(137.746 87.219)"><rect class="o" width="6.837" height="6.837"/><g transform="translate(0 11.979)"><rect class="n" width="6.837" height="6.837"/></g><g transform="translate(8.72 14.931)"><rect class="t" width="21.672" height="3.885"/></g><g transform="translate(8.72 2.952)"><rect class="t" width="21.672" height="3.885"/></g></g><g transform="translate(173.952 87.219)"><rect class="o" width="6.837" height="6.837"/><g transform="translate(0 11.979)"><rect class="n" width="6.837" height="6.837"/></g><g transform="translate(8.72 14.931)"><rect class="t" width="14.262" height="3.885"/></g><g transform="translate(8.72 2.952)"><rect class="t" width="14.262" height="3.885"/></g></g><g transform="translate(98.817 21.894)"><rect class="t" width="98.117" height="1.784"/></g><rect class="t" width="196.934" height="4.083"/><g transform="translate(98.523 27.442)"><rect class="t" width="98.411" height="1.784"/></g><g transform="translate(98.523 16.347)"><rect class="t" width="98.411" height="1.784"/></g><g transform="translate(98.523 32.99)"><rect class="t" width="98.411" height="1.784"/></g><g transform="translate(98.523 38.537)"><rect class="t" width="98.411" height="1.783"/></g><g transform="translate(98.523 44.085)"><rect class="t" width="98.411" height="1.784"/></g><g transform="translate(98.523 49.632)"><rect class="t" width="98.411" height="1.784"/></g><g transform="translate(98.523 55.18)"><rect class="t" width="98.411" height="1.784"/></g><g transform="translate(98.523 60.727)"><rect class="t" width="98.411" height="1.784"/></g><g transform="translate(110.571 66.275)"><rect class="t" width="86.363" height="1.784"/></g></g><path class="x" d="M636.85,236.863H428.329a10.014,10.014,0,0,0-10.015,10.015v8.765H646.865v-8.765A10.014,10.014,0,0,0,636.85,236.863Z" transform="translate(-413.677 -236.863)"/><path class="v" d="M520.831,243.174a2.887,2.887,0,1,1-2.888-2.886A2.889,2.889,0,0,1,520.831,243.174Z" transform="translate(-317.039 -233.442)"/><path class="v" d="M526.72,243.174a2.888,2.888,0,1,1-2.888-2.886A2.889,2.889,0,0,1,526.72,243.174Z" transform="translate(-311.158 -233.442)"/><path class="v" d="M532.606,243.174a2.887,2.887,0,1,1-2.886-2.886A2.888,2.888,0,0,1,532.606,243.174Z" transform="translate(-305.277 -233.442)"/></g><path class="y" d="M598.872,210.9H545.351q.549,26.032.884,52.07a20.639,20.639,0,0,1-.968,7.846l-.082,0c-.709-.038-.4.184-.64,1.453,0,.018-.012.04-.016.058-2.165,3.534-6.388,5.467-10.5,6.377a1.042,1.042,0,0,0,.066.574,1.316,1.316,0,0,0-.414,1.617c.25.58,3.326,1.365,7.5.915a19.929,19.929,0,0,0,4.635-1.285,7.2,7.2,0,0,0,1.707-1.163,5.9,5.9,0,0,0,1.565-.378l.17.16,4.789-2.085s-.524-3.022-.937-4.6a2.735,2.735,0,0,0-.316-.74,219.533,219.533,0,0,0,9.4-33.4c-.871,14.1-5.937,42.737-6.313,43.722a7.351,7.351,0,0,1-6.087,4.274c-1.133.094-6.708-.228-6.107,2.337.144.612,3.038,1.921,7.232,2.2a19.864,19.864,0,0,0,4.787-.462,8.883,8.883,0,0,0,2.984-1.625l.646.862,5.077-1.223s-.008-1.321-.04-2.912a6.478,6.478,0,0,0-1.088-3.1l.07-2.888,2.814-.332s5.653-18.284,8.338-24.5a54.757,54.757,0,0,0,3.038-7.79,56.368,56.368,0,0,0,1.165-9.747,86.178,86.178,0,0,1,3.27-17.6,2.6,2.6,0,0,1,.478-1.027,2.727,2.727,0,0,1,1.851-.646c7.194-.66,10.492.564,14.994-.832,5.935-1.841,6.564-4.534,6.854-4.663A18.678,18.678,0,0,0,598.872,210.9Z" transform="translate(-271.573 -210.728)"/><path class="y" d="M596.3,301.853v-62.07c-9.257,12.117-18.416,22.978-27.673,35.1-4.018,5.255-19.747,22.67-9.017,29.658,2.739,1.783,7.508,1.7,9.891,1.869,8.559.608,17.041-1.761,25.362-4.114C595.344,302.157,595.826,302.011,596.3,301.853Z" transform="translate(-249.221 -181.879)"/><path class="y" d="M592.485,280.621l-5.151.4-.1-.292-4.01.31-1.207-3.412a5.176,5.176,0,0,0-5.055-3.208,2.763,2.763,0,0,0-2.563,3.832c.21.59.8,2.245,1.2,3.378l-4.22.326.09.294-8.691.674c-1.373.008-3.4,1.781-2.962,3.02l.07.182a1.8,1.8,0,0,0,.04.322l7.518,21.213L567.253,397h8.725l16.507-64.177Zm-13.559-.664a2.9,2.9,0,0,1-2.836-1.8,1.547,1.547,0,0,1,1.437-2.149,2.9,2.9,0,0,1,2.834,1.8A1.549,1.549,0,0,1,578.926,279.957Z" transform="translate(-245.402 -147.298)"/><path class="y" d="M424.307,261.024c-1.941,2.141-4.23,6.7-5.161,8.663-.983,1.935-2.047,3.03-4.813,4.33-3.818,1.747-7.91,3.418-11.84,4.963v10.136c7.994-4.807,15.23-9.293,15.352-9.341,6.111,2.337,11.222-2.745,12.861-6.409.736-1.645-.368-2.317-.418-3.1-.028-.408.5-2.786.418-3.092-.478-2.141-6.225-.27-5.747-1.289a7.3,7.3,0,0,1,2.393-3.584c2.815-1.921,4.971-4.052,4.971-4.859C432.321,256.053,424.973,260.293,424.307,261.024Z" transform="translate(-402.493 -164.515)"/></g><g transform="translate(822.375 437.917)"><rect class="z" width="134.946" height="156.056" rx="6.949"/><g transform="translate(12.483 16.333)"><rect class="aa" width="114.127" height="32.054" rx="1.773"/><rect class="aa" width="29.346" height="20.347" rx="1.773" transform="translate(0 43.421)"/><rect class="aa" width="29.346" height="20.347" rx="1.773" transform="translate(42.391 43.421)"/><rect class="aa" width="29.346" height="20.347" rx="1.773" transform="translate(84.781 43.421)"/><rect class="aa" width="29.346" height="20.347" rx="1.773" transform="translate(0 76.131)"/><rect class="aa" width="29.346" height="20.347" rx="1.773" transform="translate(42.391 76.131)"/><rect class="aa" width="29.346" height="20.347" rx="1.773" transform="translate(0 108.84)"/><rect class="aa" width="29.346" height="20.347" rx="1.773" transform="translate(42.391 108.84)"/><rect class="aa" width="29.346" height="53.056" rx="1.773" transform="translate(84.781 76.131)"/></g><g class="ab" transform="translate(10.409 14.26)"><path class="ac" d="M573.518,295.545A3.545,3.545,0,0,1,577.062,292H684.1a3.545,3.545,0,0,1,3.544,3.544V320.51a3.543,3.543,0,0,1-3.544,3.544H577.062" transform="translate(-573.518 -292.001)"/><rect class="ac" width="29.346" height="20.347" rx="1.773" transform="translate(0.001 43.421)"/><rect class="ac" width="29.346" height="20.347" rx="1.773" transform="translate(42.391 43.421)"/><rect class="ac" width="29.346" height="20.347" rx="1.773" transform="translate(84.782 43.421)"/><rect class="ac" width="29.346" height="20.347" rx="1.773" transform="translate(0.001 76.13)"/><rect class="ac" width="29.346" height="20.347" rx="1.773" transform="translate(42.391 76.13)"/><rect class="ac" width="29.346" height="20.347" rx="1.773" transform="translate(0.001 108.839)"/><rect class="ac" width="29.346" height="20.347" rx="1.773" transform="translate(42.391 108.839)"/></g><rect class="n" width="29.346" height="53.056" rx="1.773" transform="translate(95.191 90.39)"/><path class="ad" d="M618,381.672V335.7a3.543,3.543,0,0,1,3.544-3.544h22.258a3.535,3.535,0,0,1,1.237.234,3.537,3.537,0,0,0-3.31-2.309H619.476a3.545,3.545,0,0,0-3.544,3.546V379.6a3.538,3.538,0,0,0,2.307,3.31A3.526,3.526,0,0,1,618,381.672Z" transform="translate(-520.741 -239.697)"/><path class="y" d="M568.311,313.5l3.616,9.513h15.124S586,364.15,585.936,371.859s6.345,60.9,6.345,60.9h8.759l-.914-67.062,12.423-34.405s9.345,46.061,13.219,53.767,24.689,47.7,24.689,47.7h8.036l-20.635-88.2L629,313.913l-44.66-20.875-16.027,1.579" transform="translate(-568.311 -276.705)"/></g><g transform="translate(513.175 508.77)"><path class="n" d="M420.678,320.436l-7.051,73.048,69.277.015-6.7-73.187Z" transform="translate(-413.627 -320.313)"/><g transform="translate(19.131 4.549)"><g transform="translate(0 0.058)"><path class="ae" d="M423.2,324.82h0a2.426,2.426,0,0,1,2.593-2.2h0a2.228,2.228,0,1,1,.008,4.4h0A2.427,2.427,0,0,1,423.2,324.82Zm2.595-1.365a1.4,1.4,0,1,0,0,2.719h0a1.4,1.4,0,1,0,0-2.719Zm-2.187,1.365h0Z" transform="translate(-423.198 -322.617)"/></g><g transform="translate(25.82)"><path class="ae" d="M436.115,324.791l.418,0-.418,0a2.011,2.011,0,0,1,.608-1.423,2.793,2.793,0,0,1,1.981-.78h.012a2.422,2.422,0,0,1,2.595,2.189,2.022,2.022,0,0,1-.786,1.583,2.847,2.847,0,0,1-1.805.622h0A2.428,2.428,0,0,1,436.115,324.791Zm2.591-1.365a1.963,1.963,0,0,0-1.389.536,1.164,1.164,0,0,0-.364.826h0a1.605,1.605,0,0,0,1.761,1.355h0a2.024,2.024,0,0,0,1.275-.43,1.213,1.213,0,0,0,.48-.932,1.6,1.6,0,0,0-1.759-1.355Z" transform="translate(-436.115 -322.588)"/></g></g><g transform="translate(20.776 5.903)"><path class="ae" d="M437.12,340.137c.242,0,.486,0,.738-.012,4.743-.158,8.362-1.687,10.752-4.542,3.958-4.727,3.062-11.318,3.022-11.6a.839.839,0,0,0-1.661.238c.008.062.826,6.147-2.655,10.29-2.071,2.467-5.273,3.79-9.517,3.932-4.108.122-7.168-.943-9.207-3.212-3.7-4.118-2.789-10.884-2.779-10.952a.84.84,0,0,0-1.663-.238c-.042.308-1.033,7.594,3.186,12.3C429.594,338.864,432.882,340.137,437.12,340.137Z" transform="translate(-424.021 -323.266)"/></g></g><g transform="translate(321.297 326.355)"><path class="af" d="M390.5,239.006c2.681,4.629.366,10.956,3.07,15.572,1.083,1.847,2.916,3.3,3.436,5.377a4.687,4.687,0,0,1-6.74,5.279,5.737,5.737,0,0,0-1.041-.516c-1.337-.392-2.549.8-3.7,1.581a5.644,5.644,0,0,1-4.869.862c-2.077-.7-3.362-2.788-4.054-4.867-1.935-5.809-.56-12.169,1.227-18.026.894-2.926,2.213-6.173,5.083-7.234" transform="translate(-259.676 -221.087)"/><path class="ag" d="M447.661,272.467c.044.644,1.025,1.2.372,2.553-1.455,3.022-5.991,7.21-11.416,5.285-.236.084-29.968,17.271-32.259,17.271s-17.894-14.766-23-33.036c-1.217-4.36-.744-9.487,3.34-11.694a9.661,9.661,0,0,1,5.615,5c3.38,6.381,13.5,27.509,15.746,28.307,2.8-1.863,16.411-5.909,27.437-10.592,2.457-1.071,3.4-1.975,4.274-3.572a35.55,35.55,0,0,1,4.581-7.142c.59-.6,7.114-4.1,7.114-2.95,0,.664-1.915,2.423-4.412,4.006a5.979,5.979,0,0,0-2.123,2.954c-.426.839,4.675-.7,5.1,1.063C448.1,270.169,447.639,272.132,447.661,272.467Z" transform="translate(-254.568 -205.291)"/><path class="ah" d="M384.012,252.577a13.392,13.392,0,0,1,8.879,6.886,27.757,27.757,0,0,1,1.209,2.775c1.583,4.03,3.762,7.676,5.345,11.7-2.165,1.747-4.785,2.551-6.992,3.372a14.938,14.938,0,0,1-6.509.874,3.293,3.293,0,0,1-1.1-.242,3.608,3.608,0,0,1-1.139-.979q-1.016-1.166-1.979-2.379a6.531,6.531,0,0,1-1.329-2.275,6.906,6.906,0,0,1,.312-3.544" transform="translate(-255.068 -205.56)"/><path class="ai" d="M384.989,258.322a1.379,1.379,0,0,0-.51-.434.924.924,0,0,0-1.069.474,2.454,2.454,0,0,0-.222,1.241,16.943,16.943,0,0,0,.76,4.823l-.506,8.5.012.018a14.912,14.912,0,0,0,6.087-.888c.919-.342,1.911-.7,2.91-1.1C391.43,266.166,388.166,262.11,384.989,258.322Z" transform="translate(-252.156 -200.301)"/><path class="ag" d="M387.783,249.132s-.114,5.321.7,5.669a20.85,20.85,0,0,0,3.438,1.063l.054,11.01-14.68-2.213-10.1-5.621s10.5-3.48,10.588-4.526-.578-6.936-.578-6.936" transform="translate(-268.126 -210.553)"/><g transform="translate(94.096 117.39)"><path class="ag" d="M367.716,338.512l-.008.042c-4.016,19.042-2.1,45.2-3,59.536.21.058,5.457.716,5.457.716s12.421-60.421,14.676-71.993a16.37,16.37,0,0,0,.286-2.241c.542-8.707-7.306-9.151-11.728-1.953a30.13,30.13,0,0,0-2.023,3.886c-.25.568-.482,1.143-.724,1.757l0,.02a56.7,56.7,0,0,0-1.947,6.079l-.046.22c-.184.61-.334,1.227-.482,1.847l-.03.14C367.992,337.2,367.856,337.848,367.716,338.512Z" transform="translate(-364.71 -258.001)"/><path class="ag" d="M389.579,299.951c-.148,1.575-.987,9.073-2,17.916-.862,7.436-1.805,15.817-2.541,22.456-.546,4.977-.945,8.947-1.113,10.816a24.223,24.223,0,0,1-.442,3.214v.042c-1.891,8.7-7.9,9.2-11.552,7.184a7.3,7.3,0,0,1-1.387-.945,4.668,4.668,0,0,1-1.555-2.563v-.02c-.23-1.787-.462-4.224-.672-7.122v-.042c-.02-.02-.02-.02-.02-.042l-.022-.062c-.442-5.651-.82-12.919-1.155-20-.4-8.7-.652-17.079-.714-21.8-.022-.274-.022-.526-.042-.778-.064-14.492,13.255-23.777,21.53-19.282a2.119,2.119,0,0,1,.294.146,3.1,3.1,0,0,0,.316.19c.945.63,1.259,2.793,1.281,5.271C389.83,296.337,389.7,298.312,389.579,299.951Z" transform="translate(-363.055 -287.783)"/><path class="ag" d="M369.468,323.125l-1.013-3.8c0,.02,0,.02.01.046a60.7,60.7,0,0,1-1.259,13.255l-.046.22c-.146.6-.3,1.237-.482,1.847l-.03.14a10.334,10.334,0,0,0-.43,1.945l-.008.042c-.012,1.721,3.654-5.923,4.494-7.71.1-.228.168-.358.168-.358l-.991-3.982Z" transform="translate(-363.212 -256.27)"/></g><g transform="translate(118.081 116.757)"><path class="ag" d="M382.2,341.941v.042c-.38,19.937,5.777,43.381,7.406,57.863.2.006,5.029-.646,5.029-.646s.919-61.081.983-73.151a18.284,18.284,0,0,0-.122-2.3c-.989-8.793-8.124-7.286-10.88.969a35.672,35.672,0,0,0-1.161,4.368c-.126.628-.238,1.257-.35,1.927l0,.022c-.336,2.053-.578,4.238-.72,6.529l0,.232c-.062.652-.092,1.3-.12,1.955l0,.148C382.227,340.571,382.215,341.245,382.2,341.941Z" transform="translate(-371.239 -257.158)"/><path class="ag" d="M391.815,364.117a5.192,5.192,0,0,1-1.4-.612,3.993,3.993,0,0,1-1.833-2.159l0-.022c-.524-1.717-1.147-4.116-1.839-6.946-.016-.024-.016-.024-.014-.046l-.03-.072c-1.345-5.5-2.942-12.635-4.432-19.579-1.829-8.547-3.488-16.827-4.34-21.526-.068-.254-.8-3.676-.854-3.928-2.555-14.564,8.805-24.053,17.061-21.278.118.04.22.076.322.112,1.661.666,2.121,6.5,2.495,10.45s3.178,44.842,3.88,52.236a29.535,29.535,0,0,1,.144,3.314C400.778,363.2,395.451,365.206,391.815,364.117Z" transform="translate(-376.709 -287.466)"/><path class="ag" d="M383.275,324.441l-1.557-3.524c0,.022,0,.022.016.044a67.781,67.781,0,0,1,1.117,13.495l0,.232c-.03.632-.058,1.305-.12,1.955l0,.148a12,12,0,0,0-.056,2.043v.042c.282,1.715,2.283-6.8,2.735-8.785.054-.252.09-.4.09-.4l-1.569-3.714Z" transform="translate(-371.705 -254.051)"/></g><path class="aj" d="M374.668,280.7s-10.69,13.581-9.593,27.227c.456,5.679,1.161,10.684,1.807,16.4.094.824,1.375,12.823,1.013,12.835,0,0,22.028,6.806,43.309-2.111,0-1.455,1.7-29.384-9.793-56.014A185.247,185.247,0,0,1,374.668,280.7Z" transform="translate(-270.327 -179.125)"/><path class="ah" d="M407.4,276.816c-.084,3.89-2.155,6.259-5.123,9.537-.376.584-1.3,9.257-1.611,15.022-.164,3,1.117,4.885,0,5.131-4.274,3.728-19.673,6.746-26.738,1.659.74-6.271-2.069-20.085-3.964-27.109-.3-1.081-.556-1.995-.792-2.7-1.765-5.335-4.951-22.444-2.593-23.19.47-.148,1.2-.34,2.045-.6,3.692-1.113,9.147-3.026,9.147-3.026s3.2,9.467,11.52,10.61c4.542-1.871,4.142-7.614,4.088-10.254,1.485.41,2.139.818,6.742,2.181,1.289,1.861.176,5.743,2.261,11.532C402.9,267.054,407.5,272.077,407.4,276.816Z" transform="translate(-269.582 -206.59)"/><path class="ag" d="M396.019,238.461s.841,10.284-.914,15.676c-1.3,3.992-6.634,7.718-11.1,7.668-12.281,0-14.484-16.681-14.42-17.489s18.114-7.808,18.114-7.808Z" transform="translate(-265.741 -221.612)"/><path class="ak" d="M383.456,288.237" transform="translate(-251.888 -169.939)"/><g transform="translate(134.53 258.051)"><path class="af" d="M404.072,365.315c-4.372.788-9.043-.442-10.958-.11-1.583.27-5.649,1.3-7.17-.066s-1.277-6.195.472-6.838a6.28,6.28,0,0,0,1.135.274,11.953,11.953,0,0,0,5.175-.424c3.326,1.369,3.448,1.967,7.23,2.731a24.574,24.574,0,0,1,4.817,1.461C406.4,363.088,406.535,364.875,404.072,365.315Z" transform="translate(-384.938 -358.151)"/></g><g transform="translate(91.377 254.681)"><path class="af" d="M378.448,368.924c-4.38-.738-7.152-3.16-9.067-3.494-1.581-.282-5.565-1.057-5.983-2.691-.31-1.213.894-6.261,2.756-6.275a6.385,6.385,0,0,0,.976.642,11.979,11.979,0,0,0,5.013,1.349c2.669,2.413,2.583,3.016,5.883,5.011a24.562,24.562,0,0,1,4.04,3C383.35,367.725,380.917,369.34,378.448,368.924Z" transform="translate(-363.35 -356.465)"/></g><g transform="translate(42.648 47.173)"><path class="ag" d="M338.972,267.935l4.022-4.785,24.539,21.942s11.982-15.947,15.276-20.927c3.624-5.475,6.89-10.159,12.189-11.074,1.221.754-.412,20.419-1.049,20.895-7.4,5.539-21.81,23.405-26.392,24.335C362.265,299.392,338.972,267.935,338.972,267.935Z" transform="translate(-338.972 -252.219)"/><path class="ah" d="M377.716,252.655s-5.013.064-7.168,1.839-12.455,18.1-12.455,18.1a7.258,7.258,0,0,0,2.709,5.671,15.034,15.034,0,0,0,7.418,3.21s5.169-5.145,8.084-7.486c1.815-1.459,1.995,2.151,1.995,2.151l9.115-8.9Z" transform="translate(-319.878 -252.655)"/></g><path class="af" d="M368.844,274.858c-.274-.146-.542-.3-.8-.46a6.755,6.755,0,0,1-3.292-3.322c-.854-2.3-1.263-5.841-.07-8.076.81-1.513,2.329-2.5,3.37-3.866a11.937,11.937,0,0,0,1.987-6.714,44.3,44.3,0,0,1,.478-7.086c.85-3.962,1.979-7.736,5.033-10.288,4.891-4.09,14.7-6.512,20.029-1.953.969.83,1.159,1.5,2.469,1.623a9.632,9.632,0,0,1,4.476,1.307c1.749,1.011,3.872,2.437,3.626,4.733a8.228,8.228,0,0,1-3.336,4.855,4.044,4.044,0,0,1-1.885.422c-2.079.04-3.8-1.311-5.845-1.093a3.885,3.885,0,0,0-2.559,1.421c-.736.908-.636,2.173-1.493,3.02-1.377,1.361-3.512,1.245-5.143,2.131a1.725,1.725,0,0,0-.7.58,1.852,1.852,0,0,0-.178.874l-.094,2.577c-.81-.356-.893-1.507-1.561-2.087a1.855,1.855,0,0,0-2.339.15,3.922,3.922,0,0,0-1.127,2.243,6.446,6.446,0,0,0,.454,3.076c.534,1.751,2.035,3.328,3.246,2.171.88,1.293-.082,3.452-.114,4.913-.026,1.159,0,3.458,1.079,4.22,1,.7,2.577.17,2.639,1.975.054,1.651-1.6,2.942-3.238,3.144a12.147,12.147,0,0,1-4.847-.846,7.6,7.6,0,0,0-4.859-.238,14.7,14.7,0,0,1-2.728,1.227A4.274,4.274,0,0,1,368.844,274.858Z" transform="translate(-271.385 -227.486)"/><path class="ag" d="M353.408,268.211s-5.767-4.623-6.161-5.889-.478-2.621-.953-3.858a7.221,7.221,0,0,0-4-3.982c-1.445-.6-.738-1.085-2.287-.786-2.337.452-3.446,2.743-4.38,4.534-3.984,7.634,6.926,9.079,7.31,9.1.8.032,4.855,4.633,4.855,4.633" transform="translate(-300.539 -204.533)"/><g transform="translate(13.99 10.896)"><path class="al" d="M335.214,266.64l3.95,2.637a1.089,1.089,0,0,0,1.537-.348l8.677-14.54-5.143-2.9-9.315,13.631A1.088,1.088,0,0,0,335.214,266.64Z" transform="translate(-314.552 -217.542)"/><path class="am" d="M328.763,247.966l1.359.926,5.5-8.012-1.359-.926c-1.933-1.319-4.731-.594-6.251,1.619h0C326.492,243.784,326.828,246.646,328.763,247.966Z" transform="translate(-322.214 -229.723)"/><path class="am" d="M325.4,261.846l25.286,3.839,5.776-8.417L343.7,235.176Z" transform="translate(-323.874 -233.839)"/><path class="an" d="M326.206,253.1l23.67,3.488,2.3-3.355-19.921-8.952Z" transform="translate(-323.067 -224.742)"/><path class="am" d="M343.846,257.277h0a3.216,3.216,0,0,0,4.372-1.131l1.025-1.5a3.191,3.191,0,0,0-.526-4.47h0a3.217,3.217,0,0,0-4.372,1.131l-1.027,1.5A3.189,3.189,0,0,0,343.846,257.277Z" transform="translate(-306.636 -219.311)"/><path class="an" d="M344.344,250.677l-1.023,1.5a2.991,2.991,0,1,0,4.9,3.336l1.025-1.493a3.341,3.341,0,0,0,.21-.352,2.938,2.938,0,1,1-4.855-3.308A3.391,3.391,0,0,0,344.344,250.677Z" transform="translate(-306.635 -218.676)"/><path class="x" d="M325.334,263.344h0a1.887,1.887,0,0,0,2.567-.664L345.247,237.4a1.876,1.876,0,0,0-.31-2.627h0a1.887,1.887,0,0,0-2.567.666l-17.347,25.276A1.876,1.876,0,0,0,325.334,263.344Z" transform="translate(-324.635 -234.507)"/><path class="al" d="M345.381,234.883l-14.446,21.051a1.89,1.89,0,0,1-2.567.666,1.568,1.568,0,0,1-.444-.482l-2.9,4.226A1.757,1.757,0,1,0,327.9,262.3l17.347-25.278A1.99,1.99,0,0,0,345.381,234.883Z" transform="translate(-324.635 -234.131)"/><path class="x" d="M340.228,259.245l1.637,1.115c2.415,1.647,5.909.742,7.8-2.021l1.627-2.369c1.895-2.763,1.473-6.337-.942-7.982l-1.637-1.115c-2.415-1.647-5.909-.742-7.8,2.021l-1.627,2.369C337.392,254.026,337.813,257.6,340.228,259.245Z" transform="translate(-311.184 -222.974)"/><path class="al" d="M340.144,248.594l-2.435,3.548a1.8,1.8,0,0,0,.3,2.527l7.614,5.189a1.818,1.818,0,0,0,2.471-.64l2.435-3.548a1.817,1.817,0,0,1-2.471.64l-7.614-5.187A1.806,1.806,0,0,1,340.144,248.594Z" transform="translate(-311.952 -220.435)"/></g><path class="ag" d="M335.441,261.281a7.955,7.955,0,0,1,1.389-5.943,12.776,12.776,0,0,1,1.417-1.527,1.958,1.958,0,0,1,.854-.564,2.691,2.691,0,0,1,1.849.418,3.365,3.365,0,0,1,1.515,1.505,2.007,2.007,0,0,1-1.111,2.415.417.417,0,0,0-.2.2c-.046.138.05.314.14.47a3.433,3.433,0,0,1,.586,1.973,1.156,1.156,0,0,1-1.357,1.016c-.3-.048-.7-.164-.794.064a.487.487,0,0,0-.006.258,2.112,2.112,0,0,1-.46,1.665.583.583,0,0,1-.366.23.968.968,0,0,1-.384-.052,5.213,5.213,0,0,1-1.351-.6" transform="translate(-299.943 -204.935)"/><path class="ag" d="M343.383,262.653a30.257,30.257,0,0,1-.472-3.1,7.056,7.056,0,0,0-3.336-5.8.845.845,0,0,0-.542-.156.6.6,0,0,0-.442.52,1.607,1.607,0,0,0,.106.716c.234.734,1.275,2.111.953,2.867a8.579,8.579,0,0,0-.824,3.6c.036,1.1.548,2.878,1.847,3.058" transform="translate(-296.713 -204.55)"/><line class="ao" x2="5.087" y2="11.995" transform="translate(17.348)"/><line class="ao" x2="10.426" y2="7.814" transform="translate(6.724 10.668)"/><line class="ao" x2="12.967" y2="1.274" transform="translate(0 25.198)"/></g><g transform="translate(712.698 176.092)"><g transform="translate(0 5.424)"><path class="ag" d="M537.467,186.487s-4.657-3.286-4.823-4.665-3.412-6.972-4.452-8.086-6.5-3-7.662-3.172-7.848.4-7.016,1.313,5.157.58,5.989,1.079l.832.5s-.832,1.129-.5,1.811-1.427,1.735-.762,2.9-.27,1.085.326,2.3c.984,2,3.5,3.122,4.166,2.575.5,1.187,2.409,3.61,4.2,3.444s6.137,3.908,6.137,3.908" transform="translate(-513.442 -142.675)"/><path class="ag" d="M569.7,166.819c.158,3.128-.064,8.575.832,9.383s3.786.682,3.786.682-10.334,13.067-11.258,12.349-13.147-10.678-10.4-11.194,5.435-.4,5.357-1.825-.156-2.844-.234-4.266" transform="translate(-474.665 -146.386)"/><path class="n" d="M585.3,231.752s-20.163,2.289-24.8,2.385-4.412-2.329-4.412-2.329c-.236-5.109-1.1-17.149-2.063-21.229-.9-3.81-1.293-5.217-2.073-8.837-1.735-8.046-1.659-9.583-3.5-19.513l12.044-9.681s1.247,3.7,6.295,3.768c6.748.086,8.847-4.639,8.847-4.639l16.427,10.906,1.541,26.53-1.965,21.848" transform="translate(-478.473 -141.534)"/><path class="ag" d="M571.591,174.2a35.055,35.055,0,0,1-1.421,4.635c-1.066,2.768-2.635,3.762-5.563,3.832l-6.175.146c-1.579.038-3.546.092-4.821-1.017s-1.293-2.948-1.573-4.472q-.537-2.92-.875-5.875a86.379,86.379,0,0,1-.544-11.616,8.283,8.283,0,0,1,.138-1.589,1.152,1.152,0,0,1,.264-.584,1.3,1.3,0,0,1,.742-.286,63.368,63.368,0,0,1,11.672-.748c2.756.078,5.677.4,7.858,2.087,2.2,1.7,3.238,4.456,4.178,7.068.15.42.262.979-.1,1.235" transform="translate(-476.325 -156.597)"/><g transform="translate(30.814 88.402)"><g transform="translate(8.955 70.934)"><path class="ap" d="M538.476,239.115a43.973,43.973,0,0,0,1.2,5.381c.534,1.369,5.031.106,5.329-.78s-1.415-7.408-1.415-7.408" transform="translate(-528.205 -236.308)"/><path class="aq" d="M551.706,241.382c.39,1.477.882,4.316.882,4.316l-4.5,1.957-.738-.692a8.318,8.318,0,0,1-2.495,1.989,18.687,18.687,0,0,1-4.352,1.207c-3.926.422-6.814-.316-7.048-.86-.973-2.275,4.236-2.884,5.269-3.156a6.9,6.9,0,0,0,4.933-4.943c.23-1.191-.066-1.4.6-1.365a1.585,1.585,0,0,1,1.125.53,2.84,2.84,0,0,0,3.194.742,3.4,3.4,0,0,0,1.593-1.327A1.963,1.963,0,0,1,551.706,241.382Z" transform="translate(-533.338 -232.841)"/></g><path class="ar" d="M567.957,221.986a76.2,76.2,0,0,1-22.956.544c.994,2.848,3.428,6.5,4.356,10.506,3.062,13.239,4.126,31.025,4.9,42.027,0,0-1.469,2.824-6.183.674-7.04-17.389-19.333-52.63-19.22-60.275.146-9.733,24.439-12.083,42.243-14.482" transform="translate(-528.857 -200.665)"/><path class="aq" d="M597.658,202.655c5.6,4.088-31.033,19.487-31.033,19.487a61,61,0,0,1-12.005,1.145,8.748,8.748,0,0,1-.893-2.271c-.216-1.063-.1-2.171-.286-3.238a7.53,7.53,0,0,0-3.66-4.933,16.471,16.471,0,0,0-5.987-1.939c-4.953-.8-13.6-.24-13.6-.24,11.01-8.116,33.536-9.177,44.028-9.845C576.229,204.132,596.854,202.069,597.658,202.655Z" transform="translate(-527.525 -200.822)"/><g transform="translate(18.432 81.118)"><path class="ap" d="M544.286,243.278a44,44,0,0,0,.252,5.509c.288,1.443,4.937.977,5.383.156s-.11-7.54-.11-7.54" transform="translate(-531.88 -241.403)"/><path class="aq" d="M557.465,247.294c.128,1.525.12,4.4.12,4.4l-4.767,1.149-.608-.812a8.307,8.307,0,0,1-2.8,1.527,18.686,18.686,0,0,1-4.5.434c-3.938-.264-6.654-1.491-6.79-2.067-.566-2.409,4.669-2.107,5.735-2.195a6.9,6.9,0,0,0,5.715-4.014c.434-1.133.18-1.391.829-1.239a1.585,1.585,0,0,1,1.016.716,2.837,2.837,0,0,0,3.018,1.283,3.4,3.4,0,0,0,1.8-1.029A1.961,1.961,0,0,1,557.465,247.294Z" transform="translate(-538.079 -238.367)"/></g><path class="ar" d="M597.776,201.334a226.883,226.883,0,0,1-24.817.792c-3.17,0-27.143,4.5-29.436,8.559-3.772,6.682,2.461,45.735,1.883,73.694,0,0,2.874,2.4,7.958.144,1.263-13.735,9.379-46.135,3.78-61.261,13.217,1.753,23.879,3.5,35.893-.486,2.813-.931,4.915-2.918,6.181-6.552C600.485,212.574,599.823,204.6,597.776,201.334Z" transform="translate(-515.426 -200.311)"/></g><g transform="translate(15.419 31.013)"><path class="n" d="M587.756,172.112s-2.88.158-3.442.2a26.467,26.467,0,0,0-7.12,1.347c-3.266,1.209-5.571,4.248-8.23,6.624-2.561,2.287-15.829,14.93-18.3,15.4s-24.2-14.422-24.2-14.422l-5.3,5.305s23.573,21.782,30.6,21.82c3.412.018,22.23-9.889,28.253-13.739Z" transform="translate(-521.156 -172.112)"/><path class="as" d="M551.813,197.494c-4.845.274-27.053-16.687-29.628-18.666l-1.029,1.029s23.573,21.782,30.6,21.82c2.844.014,16.379-6.86,24.3-11.382l2.051-1.189-1.229-7.324S556.961,197.2,551.813,197.494Z" transform="translate(-521.156 -165.403)"/></g><g transform="translate(12.339 59.31)"><path class="x" d="M529.988,220.741h53.963L574.274,189.2a4.147,4.147,0,0,0-3.964-2.93H523.052a2.688,2.688,0,0,0-2.571,3.478Z" transform="translate(-518.87 -186.268)"/><path class="at" d="M530.055,220.741H583.2L573.53,189.2a4.147,4.147,0,0,0-3.966-2.93H522.307a2.69,2.69,0,0,0-2.573,3.478L529,219.966A1.1,1.1,0,0,0,530.055,220.741Z" transform="translate(-519.615 -186.268)"/></g><path class="as" d="M583.58,187.751c-2.685,12.143-3.16,21.646-3.92,30.33-9.429,3.66-13.269,9.109-22.5,13.215,0,0-7.286-1.209-8.05,1.539-.442,1.585,8.53,2.846,8.53,2.846,8.551.04,31.1-6.209,32.628-6.628s5.971-29.086,6.149-44.644c.024-2.209-.054-4.608-1.435-6.331a8.294,8.294,0,0,0-2.782-2.059c-6.017-3.076-10.474-3.916-17.219-4.344" transform="translate(-477.824 -141.534)"/><path class="ag" d="M561.322,203.156c-1.013-1.275-2.86-1.461-4.49-1.421a32.947,32.947,0,0,0-3.606.288c-.544.074-1.171.2-1.227.792s2.643,0,4.058.408a71.309,71.309,0,0,1-8.344.228,2.392,2.392,0,0,0-.961.1.8.8,0,0,0-.54.732,1,1,0,0,0,.382.636,5.664,5.664,0,0,0,2.87,1.155,22.105,22.105,0,0,0,12.683-1.119" transform="translate(-480.709 -111.513)"/><path class="n" d="M578.964,187.523c-.222,12.981-1.143,18.922-.892,31.9-6.516,1.393-15.538,8.771-24.765,12.879a4.872,4.872,0,0,0,.306,3.376c.7.258,31.123-7.148,33.542-9.377,2.177-2.007,5.057-26.338,5.235-41.9.024-2.209-.054-4.608-1.435-6.331a8.294,8.294,0,0,0-2.782-2.059c-6.017-3.076-10.474-3.916-17.219-4.344" transform="translate(-473.793 -141.534)"/><g transform="translate(34.898 72.081)"><path class="au" d="M546.213,197.666c.192,2.767-3.076,5.007-7.3,5.007s-7.808-2.241-8-5.007,3.076-5.009,7.3-5.009S546.019,194.9,546.213,197.666Z" transform="translate(-530.901 -192.657)"/><ellipse class="x" cx="2.784" cy="4.866" rx="2.784" ry="4.866" transform="matrix(0.039, -0.999, 0.999, 0.039, 2.689, 7.6)"/></g></g><path class="av" d="M563.465,161.5c-.1-.486-1.179-.582-2.263-.446s-3.968.5-4.559.961-.56.794-.876.83-.332-.29-1.021-.592a9.168,9.168,0,0,0-3.438.046c-1.081.136-2.111.376-2.089.872a2.774,2.774,0,0,0,.434,1.5c.22.138.22.114,1.072,2.071a2.066,2.066,0,0,0,2.607,1.415c1.781-.388,1.893-2.417,2.031-3.264s.266-.973.536-1.007.456.052.8.84.592,2.6,2.417,2.7c2.389.134,3.424-.684,3.756-2.215.448-2.077.346-2.085.526-2.273a11.318,11.318,0,0,1,1.785.152l-.04-.62A13.5,13.5,0,0,1,563.465,161.5Zm-8.675,4.18a2.08,2.08,0,0,1-1.761,2.179c-1.1.138-1.6-.444-2.191-1.847a3.629,3.629,0,0,1-.354-2.531c.186-.336.778-.324,2.137-.41s1.815-.116,2.035.484A7.377,7.377,0,0,1,554.79,165.68Zm7.788-1.145c-.226,1.505-.777,2.229-2.279,2.409-2.127.256-2.537-.584-2.85-1.6a7.385,7.385,0,0,1-.4-2.093c.066-.634.512-.72,1.851-.971s3.128-.566,3.392-.286A3.621,3.621,0,0,1,562.578,164.534Z" transform="translate(-477.704 -146.777)"/><path class="av" d="M578.632,165.29a23.035,23.035,0,0,0-.594-3.2,10.2,10.2,0,0,0-4.985-6.534,15.942,15.942,0,0,0-11.28-1.123c-2.065.578-2.83,1.665-3.894,1.635a11.693,11.693,0,0,1-2.888-.951c-8.07-2.9-6.716,5-5.857,7.168.382.959,2.211,1.659,2.455,2.057a24.62,24.62,0,0,1,.372,3.214,1.7,1.7,0,0,0,1.005,1.187s.044-2.543.084-2.886a3.2,3.2,0,0,1,1.193-2.383,7.406,7.406,0,0,1,2.9-.816,22.106,22.106,0,0,1,5.939.983c1.507,1.293,1.9,4.244,2.319,5.979.2.81.4,1.353.732,1.341.25-2.389,1.079-2.449,2.509-1.633.761.436,1.189,1.949,1.215,3.23a3.409,3.409,0,0,1-2.409,3.526c-.57.122,1.149,3.38,1.945,4.194a4.349,4.349,0,0,0,.842.74,3.858,3.858,0,0,0,.971.36l1.153.314a3.019,3.019,0,0,0,1.585.136c.852-.24,1.3-1.143,1.685-1.941.63-1.307,1.355-2.575,1.871-3.934A23.364,23.364,0,0,0,578.632,165.29Z" transform="translate(-478.447 -153.884)"/></g><g transform="translate(856.151 247.192)"><path class="aw" d="M687.349,249.355H585.208l12.231-9.049V196.127a6.675,6.675,0,0,1,6.674-6.674h83.235a6.675,6.675,0,0,1,6.674,6.674V242.68A6.675,6.675,0,0,1,687.349,249.355Z" transform="translate(-585.208 -189.453)"/><g transform="translate(20.273 8.616)"><rect class="ax" width="46.679" height="4.467" transform="translate(32.989)"/><rect class="ax" width="46.679" height="4.467" transform="translate(32.989 6.673)"/><rect class="ax" width="46.679" height="4.467" transform="translate(32.989 13.345)"/><rect class="ax" width="46.679" height="4.466" transform="translate(32.989 19.846)"/><rect class="ax" width="32.553" height="4.467" transform="translate(32.989 27.624)"/><rect class="ay" width="29.322" height="34.285" rx="3.385"/><rect class="ax" width="29.322" height="3.681" transform="translate(0 38.555)"/><g transform="translate(3.538 7.677)"><path class="l" d="M611.135,210h-10.64a1.327,1.327,0,0,1-1.281-.979l-2.047-7.56a1.327,1.327,0,0,1,1.281-1.673h14.734a1.325,1.325,0,0,1,1.281,1.673l-2.047,7.56A1.327,1.327,0,0,1,611.135,210Z" transform="translate(-597.12 -195.425)"/><g transform="translate(2.811)"><path class="l" d="M611.6,213.877H598.79a.265.265,0,0,1,0-.53H611.4l4.46-15.552a.263.263,0,0,1,.254-.192h2.788a.265.265,0,0,1,0,.53h-2.589l-4.46,15.552A.263.263,0,0,1,611.6,213.877Z" transform="translate(-598.526 -197.604)"/></g><g transform="translate(1.938 16.807)"><path class="l" d="M601.189,207.561a1.55,1.55,0,1,1-1.551-1.549A1.551,1.551,0,0,1,601.189,207.561Z" transform="translate(-598.089 -206.012)"/><circle class="l" cx="1.55" cy="1.55" r="1.55" transform="translate(11.268)"/></g></g></g></g><g transform="translate(570.346 154.166)"><path class="aw" d="M450.731,234.146H580.867l-15.586-11.53v-71.2a8.5,8.5,0,0,0-8.5-8.5H450.731a8.5,8.5,0,0,0-8.5,8.5v74.226A8.5,8.5,0,0,0,450.731,234.146Z" transform="translate(-442.228 -142.915)"/><g transform="translate(11.306 13.201)"><g class="ab" transform="translate(0 0)"><rect class="l" width="59.473" height="5.691" transform="translate(59.473 5.691) rotate(180)"/><rect class="l" width="59.473" height="5.691" transform="translate(59.473 14.192) rotate(180)"/><rect class="l" width="59.473" height="5.691" transform="translate(59.473 22.693) rotate(180)"/><rect class="l" width="59.473" height="5.691" transform="translate(59.473 30.976) rotate(180)"/><rect class="l" width="59.473" height="5.691" transform="translate(59.473 39.26) rotate(180)"/><rect class="l" width="59.473" height="5.691" transform="translate(59.473 54.312) rotate(180)"/><rect class="l" width="101.503" height="5.691" transform="translate(101.503 63.275) rotate(180)"/></g><g transform="translate(64.144)"><rect class="am" width="37.358" height="43.682" rx="4.313" transform="translate(37.358 43.682) rotate(180)"/><rect class="ax" width="37.358" height="4.689" transform="translate(37.358 53.811) rotate(180)"/><g transform="translate(2.965 9.782)"><path class="l" d="M489.624,170.2H503.18a1.692,1.692,0,0,0,1.633-1.249l2.607-9.629a1.69,1.69,0,0,0-1.631-2.133H487.015a1.69,1.69,0,0,0-1.631,2.133l2.607,9.629A1.692,1.692,0,0,0,489.624,170.2Z" transform="translate(-477.594 -151.638)"/><path class="l" d="M491.1,175.144h16.327a.337.337,0,1,0,0-.674H491.352l-5.681-19.813a.336.336,0,0,0-.324-.244h-3.552a.337.337,0,1,0,0,.674h3.3l5.681,19.813A.336.336,0,0,0,491.1,175.144Z" transform="translate(-481.457 -154.413)"/><g transform="translate(9.113 21.412)"><path class="l" d="M493.2,167.1a1.974,1.974,0,1,0,1.973-1.975A1.973,1.973,0,0,0,493.2,167.1Z" transform="translate(-478.842 -165.125)"/><path class="l" d="M486.016,167.1a1.974,1.974,0,1,0,1.973-1.975A1.973,1.973,0,0,0,486.016,167.1Z" transform="translate(-486.016 -165.125)"/></g></g></g></g></g><g transform="translate(805.349 331.079)"><ellipse class="d" cx="57.349" cy="6.046" rx="57.349" ry="6.046" transform="translate(17.135 277.008)"/><path class="g" d="M588.3,369.554c-.482.938-2.789,3.1-5.985,4.532s-9.965,2.1-6.2,3.354,8.146.5,10.369.14a44.784,44.784,0,0,1,6.994-.424c3.456-.022,3.484-.236,3.018-4.132C595.854,367.661,589.857,366.524,588.3,369.554Z" transform="translate(-544.595 -95.081)"/><path class="g" d="M616.794,369.075c-.192,1.081,1.343,4.36-1.405,6.766s-8.985,4.939-4.849,5.033a24.078,24.078,0,0,0,10.208-1.9c2.1-1.039.424-2.675,3.032-3.5,3.436-1.085,2.727-3.612.941-5.175C622.433,365.153,617.413,365.575,616.794,369.075Z" transform="translate(-510.477 -96.546)"/><path class="az" d="M631.516,335.214s8.235-24.213-15.13-44.158c0,0-12.521,4.985-22.548,5.587a55.661,55.661,0,0,1-11.906-.254s-.666,21.51-.694,33.1Z" transform="translate(-538.37 -171.846)"/><path class="az" d="M580.3,337.14c-.452-10.826,11.286-9.407,15.616-1.319,8.951,16.723-3.3,55.238-4.921,73.488-1.683.652-4.5,1.159-6.2.386a4.327,4.327,0,0,1-1.8-1.991C583.255,385.316,580.782,348.716,580.3,337.14Z" transform="translate(-539.322 -133.556)"/><path class="az" d="M595.492,368.071c-1.351,4.422-16.335,9.071-15.12-7.02.538-7.136,1.973-46.543,2.249-50.341s.914-9.351,2.749-10.045c9.181-3.464,25.42,8.539,23,22.8C606.762,333,598.29,358.9,595.492,368.071Z" transform="translate(-539.306 -162.848)"/><path class="az" d="M600.036,341.845c-3.622-10.211,8.148-12.018,14.822-5.727,15.632,14.732,16.237,49.445,20.069,67.364a13.709,13.709,0,0,1-6.834,1.957,2.443,2.443,0,0,1-1.863-.953C619.879,383.016,603.911,352.763,600.036,341.845Z" transform="translate(-520.27 -130.477)"/><path class="az" d="M622.62,369.05c.41,4.6-12.082,14.118-17-1.249-2.181-6.816-11.516-47.095-12.685-50.719s-.849-11.108.592-12.439c7.208-6.66,23.477-.8,26.6,13.323C622.212,327.409,621.773,359.5,622.62,369.05Z" transform="translate(-527.395 -161.015)"/><path class="ba" d="M575.25,257.509c.426-.45.852-.9,1.231-1.387,2.96-3.786,3.392-7.142,6.135-11.536a34.268,34.268,0,0,1,1.993-3.814,15.952,15.952,0,0,1,4.452-3.648c1.281-.672.18,2.153.18,2.153s1.087-1.577,2.139-1.465c.41.044.482,2.453.488,2.864a20.227,20.227,0,0,1-2.247,9.563,4.924,4.924,0,0,0-.766,2.173,4.857,4.857,0,0,0,2.583-1.271,3.12,3.12,0,0,1,2.7-.788,7.406,7.406,0,0,1-.52,1.129c-1.169,2.195-2.483,4.532-4.729,5.6-1.343.636-2.9.75-4.208,1.447-2.369,1.259-3.52,4.174-5.925,5.363" transform="translate(-544.352 -225.824)"/><rect class="bb" width="10.232" height="18.839" rx="0.646" transform="matrix(0.923, 0.386, -0.386, 0.923, 43.98, 11.704)"/><rect class="bc" width="8.579" height="16.816" transform="translate(44.608 13.063) rotate(22.698)"/><path class="at" d="M612.315,263.311a55.936,55.936,0,0,0-11.434,1.931c-8.136,2.443-10.934,6.211-13.745,7.768,5.459-6.936,11.546-21.646,11.546-21.646s-7.34-6.029-8.184-4.6-31.649,37.474-30.683,43.311c.4,2.407,3.964,4.785,7.116,4.677,8.735-.3,18.878-3.478,29.512-6.958,4.675-1.529,6.117,1.767,6.117,1.767" transform="translate(-559.793 -216.311)"/><path class="bd" d="M576.1,261.651s-3.88,7.82-5.045,8.329,2.828-1.629,5.013-3.886,5.175-8.18,5.175-8.18A44.9,44.9,0,0,0,576.1,261.651Z" transform="translate(-548.754 -204.952)"/><path class="ba" d="M581.991,240.829a1.769,1.769,0,0,1,.55,1.231,9.714,9.714,0,0,1-.15,5.185A7.475,7.475,0,0,1,580.3,249.9a16.327,16.327,0,0,1-3.176,2.171" transform="translate(-542.477 -222.019)"/><path class="be" d="M588.929,234.32c-2.059.594-3.146,3.25-3.846,5.069a28.2,28.2,0,0,0-1.537,6.838,9.387,9.387,0,0,0,.334,4.811,10.108,10.108,0,0,0,1.343,2.093,4.428,4.428,0,0,0,.968,1.019,1.492,1.492,0,0,0,1.339.228c.642-.246.9-1,1.081-1.661,1.185-4.32,2.483-8.689,4.921-12.447" transform="translate(-536.217 -228.521)"/><path class="ba" d="M587.079,241.947c-.042-1.375-1.489-2.273-2.743-.848-1.039,1.177-1.315,3.416-1.373,5.069-.072,1.981,1.463,2.369,2.727,2.647" transform="translate(-536.65 -222.47)"/><path class="at" d="M578.6,262.177c2.541-2.912,10.6-7.716,21.374-7.374,7.422.234,27.637,1.459,29.9,6.425,1.155,2.539,2.395,28.533.7,37.494-1.271,6.74-4.524,23.435-4.524,27.465s2.165,5.757,1.155,6.926c-2.263,2.621-17.73,3.72-24.993,3.72-6.462,0-17.465-1.723-18.022-3.794-.828-3.072,1.261-2.958,1.545-6.181s1.1-24.137-.088-27.559c-2.141-6.181-3.18-16.259-4.879-20.831C579.479,275,576.063,265.089,578.6,262.177Z" transform="translate(-541.919 -208.078)"/><path class="bd" d="M614.922,269.085c.77,1.6,6,10.015,6,10.015l.212,1.007a41.6,41.6,0,0,1-.532,4.494c-1.271,6.74-4.524,23.435-4.524,27.465s2.073,5.683,1.155,6.926c-1.783,2.417-30.949,7.852-29.514,1.1.13-.61,24.479-19.188,24.609-19.811,1.121-5.331,2.1-9.173,2.593-13.061C616.105,277.867,614.152,267.482,614.922,269.085Z" transform="translate(-531.946 -193.958)"/><path class="bf" d="M587.11,252.8s-.068,8.455-.408,8.8a13.335,13.335,0,0,1-2.013,1.131s1.191,7.348,3.032,6.8,14-6.686,14-6.686-1.725-.7-1.725-1.383,1.637-13.98,1.637-13.98" transform="translate(-534.924 -215.374)"/><path class="bf" d="M597.147,234.777c-1.773.484-6.443-.484-7.732,1.449s-2.417,6.6-2.9,7.894c-.962,2.565-1.589,5.307-2.287,7.952-.911,3.446-2.413,9.759.96,12.641a4.487,4.487,0,0,0,2.6,1.321c1.6.288,3.184.616,4.781.9,2.475.444,5.213.961,7.672.164,3.282-1.065,5.081-5.579,5.927-8.643L611,240.9Z" transform="translate(-536.516 -228.065)"/><path class="bg" d="M586.777,260.162s-.712,32.994-2.055,53.065l4.854,6.69,3.334-8.379a255.138,255.138,0,0,0-3.154-51.146Z" transform="translate(-534.891 -202.707)"/><path class="bg" d="M585.191,259.751l.114.454a9.231,9.231,0,0,0,1,2.445h0l2.978.23s2.023-1.061,2.291-2.2-3.322-3.006-3.322-3.006l-.436.17a6.5,6.5,0,0,0-2.593,1.865Z" transform="translate(-534.422 -205.194)"/><path class="l" d="M598.174,253.446a12.431,12.431,0,0,1,3.4,3.442c-1.531,3.5-4.991,9.725-8.8,12.559a17.209,17.209,0,0,0-6.043-7.554S597.108,260.044,598.174,253.446Z" transform="translate(-532.891 -209.416)"/><path class="l" d="M589.767,261.671a12.782,12.782,0,0,0-5.921,5.627,28.3,28.3,0,0,1,.8-10.444s2.439-3.12,3.282-3.184A16.4,16.4,0,0,0,589.767,261.671Z" transform="translate(-535.933 -209.193)"/><g transform="translate(9.808 50.079)"><path class="ba" d="M590.679,294.522c-3.688.556-5.051,1.927-7.13,3.98a.768.768,0,0,0-.31.614c.048.294.394.424.688.472,1.713.276,1.991-.82,3.592-1.487,1.081-.452,2.155-.92,3.23-1.387" transform="translate(-546.186 -218.463)"/><g transform="translate(0 42.095)"><g transform="translate(0 5.33)"><path class="bh" d="M596.671,281.958l13.069,41.885a1.5,1.5,0,0,1-1.385,2.1l-27.269,2.393a2.527,2.527,0,0,1-2.285-1.761l-14.052-41.248c-.352-1.123,1.271-2.731,2.367-2.739l27.269-2.393A2.527,2.527,0,0,1,596.671,281.958Z" transform="translate(-564.699 -280.197)"/></g><g transform="translate(0.04 6.423)"><path class="bi" d="M595.756,282.505l12.887,41.24a1.5,1.5,0,0,1-1.385,2.1l-27.269,2.393a2.529,2.529,0,0,1-2.285-1.763L564.816,285.24a1.5,1.5,0,0,1,1.385-2.1l27.267-2.393A2.531,2.531,0,0,1,595.756,282.505Z" transform="translate(-564.72 -280.744)"/></g><g transform="translate(9.292)"><path class="l" d="M569.348,281.511l.968,3.615L583.07,284l-1.049-3.6Z" transform="translate(-569.348 -274.665)"/><path class="l" d="M570.636,281.017c.264.842,1.277,4.09,1.277,4.09l6.089-.564-1.277-4.09a4.14,4.14,0,0,0-4.04-2.91A2.491,2.491,0,0,0,570.636,281.017Zm1.349-.084a1.4,1.4,0,0,1,1.149-1.949,2.327,2.327,0,0,1,2.267,1.633,1.4,1.4,0,0,1-1.149,1.949A2.322,2.322,0,0,1,571.985,280.934Z" transform="translate(-568.221 -277.531)"/></g></g><path class="bf" d="M601.526,293.059c-2.861.6-10.484,2.87-11.286,3.248a33.774,33.774,0,0,0-4.861,3.594c-2.868,2.878-1.4,4.22-2.533,8.124a2.283,2.283,0,0,0-.07.618c0,.406.55.758,1.1.378.3.5,1.185.192,1.615-.356-.008.39.538.636,1.415.15.474-.262.39-.238,1.485-1.215a11.523,11.523,0,0,1,3.1-1.889,22.536,22.536,0,0,0,3.028-1.383c1.157-.762,3.222-.943,4.242-4.25a3.294,3.294,0,0,1,1.591-1.589l4.661-2.922" transform="translate(-546.643 -219.924)"/><path class="at" d="M612.026,275.952c1.213,4.326,6.259,34.3,6.259,34.3l-28.423,20.585,2.365,6.217s34.008-11.418,36.686-19.224,2.555-43.063-6.89-55.432c-3.006-3.938-9.031-5.925-9.031-5.925" transform="translate(-539.564 -256.472)"/><path class="bj" d="M588.5,298.458a18.253,18.253,0,0,0-1.985,1.527c-.812.856-1.421,1.8-2.291,2.826" transform="translate(-545.193 -214.531)"/><path class="bj" d="M587.686,297.516a10.272,10.272,0,0,0-2.343,2.841,38.312,38.312,0,0,1-1.865,3.6" transform="translate(-545.941 -215.472)"/><path class="bj" d="M586.333,296.754c-.276.442-1.445,1.541-1.681,2a18.109,18.109,0,0,0-1.619,4.628" transform="translate(-546.386 -216.233)"/></g><path class="bg" d="M607.206,258.766c-1.113-.652-1.967-1.339-2.693-.272-.384.566-.618,1.347-1.273,1.541a1.315,1.315,0,0,1-1.491-1.055,3.82,3.82,0,0,1,.246-2q.672-2.159,1.341-4.32c.438-1.409.874-2.958.314-4.326a4.757,4.757,0,0,0-1.363-1.747,14.441,14.441,0,0,0-6.632-2.836,70.475,70.475,0,0,1-7.138-1.467,7.731,7.731,0,0,1-2.719-1.367,5.867,5.867,0,0,1-1.927-4.4,9.069,9.069,0,0,1,1.4-4.683,7.789,7.789,0,0,0,.712,1.625,6.037,6.037,0,0,1,1.3-2.039c.694,3.868,16.979,2.575,20.783,4.282,2.639,1.181,4.819,1.955,4.74,6.229a1.566,1.566,0,0,0,.516.68c2.337,2.147,3.35,4.759,3.642,8.635.36,4.745-2.4,9.881-5.111,13.793a8.8,8.8,0,0,1-2.011,2.4,5.336,5.336,0,0,1-3.784.856c-1.173-.224-3.488-.124-3.51-1.319-.016-.856,1.813-2.381,2.319-3.07" transform="translate(-535.742 -231.419)"/><path class="bf" d="M593.429,250.315a1.493,1.493,0,0,0,2.233,1.693,5.147,5.147,0,0,0,3.25-3.986c.384-2.053-.719-4.1-2.6-3.57a2.77,2.77,0,0,0-1.773,2.7" transform="translate(-526.229 -218.486)"/><path class="ba" d="M585.938,250.5l5.225.961a7.286,7.286,0,0,1-5.293,1.953" transform="translate(-533.744 -212.355)"/></g><g class="bk" transform="translate(425.686 254.722)"><g transform="translate(21.714 19.875)"><path class="bl" d="M380.722,208.227l7,3.523-3.5-8.587" transform="translate(-380.722 -203.163)"/></g><path class="bl" d="M369.859,207.18c0,7.71,6.622,13.96,14.792,13.96s14.792-6.251,14.792-13.96-6.624-13.96-14.792-13.96S369.859,199.471,369.859,207.18Z" transform="translate(-369.859 -193.22)"/><path class="bm" d="M375.447,198.433v9.979a1.045,1.045,0,0,0,1.569.906l8.641-4.989a1.045,1.045,0,0,0,0-1.811l-8.641-4.989A1.046,1.046,0,0,0,375.447,198.433Z" transform="translate(-364.277 -189.058)"/></g><g class="bk" transform="translate(923.665 360.871)"><g transform="translate(0.871 19.873)"><path class="bl" d="M626.417,261.329l-7,3.523,3.5-8.586" transform="translate(-619.419 -256.265)"/></g><path class="bl" d="M648.567,260.281c0,7.71-6.623,13.961-14.792,13.961s-14.792-6.251-14.792-13.961,6.623-13.958,14.792-13.958S648.567,252.572,648.567,260.281Z" transform="translate(-618.983 -246.323)"/><g transform="translate(6.107 4.585)"><g transform="translate(5.923)"><path class="bm" d="M625.119,264.677c3.224.052,6.489.094,9.453-.1.938-.062,1.749-1.469.61-1.913a2.074,2.074,0,0,0,1.175-.964.936.936,0,0,0-.572-1.257c1.119.262,1.559-1.413.688-1.953a2.453,2.453,0,0,0,.943-1.427,1.4,1.4,0,0,0-.682-1.475,2.574,2.574,0,0,0-1.161-.19q-2.012-.012-4.022-.028c.364-1.979.472-4.138-.594-5.877-.322-.524-1.183-1.151-1.869-.748-.642.378-.464,1.317-.432,1.909a6.625,6.625,0,0,1-3.656,6.1S625.153,262,625.119,264.677Z" transform="translate(-625.001 -248.617)"/></g><rect class="bm" width="4.873" height="7.915" transform="translate(0 8.138)"/></g></g><g class="bk" transform="translate(688.742 255.818)"><g transform="translate(17.026 3.325)"><path class="bl" d="M511.866,200.948l5.106-5.516-7,1.37" transform="translate(-509.975 -195.431)"/></g><path class="bl" d="M501.458,203.891c0,5.591,4.8,10.123,10.728,10.123s10.726-4.532,10.726-10.123-4.8-10.123-10.726-10.123S501.458,198.3,501.458,203.891Z" transform="translate(-501.458 -193.768)"/><g transform="translate(4.714 3.325)"><g transform="translate(3.879)"><path class="bm" d="M505.835,207.078c2.113.036,4.25.068,6.193-.074.616-.044,1.145-1.063.4-1.387a1.4,1.4,0,0,0,.77-.7.7.7,0,0,0-.374-.911c.734.19,1.021-1.025.45-1.417a1.8,1.8,0,0,0,.618-1.033,1.056,1.056,0,0,0-.446-1.071,1.537,1.537,0,0,0-.762-.136l-2.635-.022a6.619,6.619,0,0,0-.388-4.262c-.212-.38-.776-.834-1.225-.542-.42.274-.3.955-.282,1.385a4.895,4.895,0,0,1-2.4,4.424S505.857,205.137,505.835,207.078Z" transform="translate(-505.757 -195.431)"/></g><rect class="bm" width="3.192" height="5.74" transform="translate(0 5.901)"/></g></g><g class="bk" transform="translate(729.408 164.973)"><path class="bl" d="M550,174.013a15.789,15.789,0,1,0-3.6,3.31l6.129,3.268Z" transform="translate(-521.802 -148.321)"/><path class="l" d="M526.961,154.629a3.863,3.863,0,0,1,5.465.056l.985,1.005,1.013-1a3.864,3.864,0,1,1,5.421,5.507l-3.758,3.7-.022.026a3.865,3.865,0,0,1-5.465-.058l-3.7-3.776A3.864,3.864,0,0,1,526.961,154.629Z" transform="translate(-517.808 -143.123)"/></g></g></svg>