<svg xmlns="http://www.w3.org/2000/svg" width="685.5" height="512.804" viewBox="0 0 685.5 512.804"><defs><style>.a{fill:#c8dbfb;}.ac,.b,.g,.l,.m,.p,.q,.x,.z{fill:none;}.b,.q{stroke:#c8dbfb;}.b,.e,.g,.l,.m,.p,.q{stroke-linecap:round;stroke-linejoin:round;}.b,.m{stroke-dasharray:4;}.c{fill:#5193f4;}.d,.e{fill:#19034d;}.e,.l,.m{stroke:#0b43a4;}.f{fill:#00ad9f;}.g{stroke:#00ad9f;}.h{fill:#52d2bc;}.i{fill:#5275a0;opacity:0.2;}.j{fill:#7ee8d4;}.k{fill:#4a49ca;}.n{fill:#0b43a4;}.o{fill:#fff;}.r{fill:#0c2340;}.s{fill:#ef832b;}.t{fill:#ffb9a3;}.u{fill:#047f76;}.v{fill:#009790;}.ab,.w{fill:#0056ec;}.x{stroke:#ef832b;}.x,.z{stroke-miterlimit:10;}.y{fill:#d8742a;}.z{stroke:#4a49ca;}.aa,.ab{stroke:none;}</style></defs><g transform="translate(-28.315 -81.501)"><ellipse class="a" cx="59.02" cy="5.515" rx="59.02" ry="5.515" transform="translate(202.171 583.276)"/><ellipse class="a" cx="59.02" cy="5.515" rx="59.02" ry="5.515" transform="translate(505.388 583.276)"/><g transform="translate(37.297 159.175)"><path class="b" d="M686.009,173.746c-7.375-45.335-43.78-41.334-76.443-41.265l-538.336,1.11c-50.816.105-45.9,73.467-6.109,73.384,22.877-.047,31.575,42.91-7.978,42.992-26.388.053-24.372,37.244-2.553,37.2" transform="translate(-34.196 -132.363)"/><path class="c" d="M56.649,234.923a7.314,7.314,0,1,1-8.439-5.98A7.315,7.315,0,0,1,56.649,234.923Z" transform="translate(-30.017 -81.507)"/><path class="c" d="M470.733,164.592a7.313,7.313,0,1,1-5.884-8.506A7.312,7.312,0,0,1,470.733,164.592Z" transform="translate(188.278 -119.921)"/></g><g transform="translate(28.315 104.938)"><g transform="translate(56.078 83.664)"><path class="d" d="M119.119,222.2a127.414,127.414,0,0,1-4.475,17.471c-4.047,12.355-9.636,24.251-15.287,36-2.947,6.139-14.905,20.342-21.319,23.045.748-16.02.809-34.728-1.054-50.9C75.2,232.232,80.8,220.427,74.694,205.98c-.779-1.848-1.588-3.7-2.4-5.544-3.039-6.872-6.048-13.775-6.994-21.182-1.222-9.392,1.7-20.1,9.82-24.984,5.849-3.512,13.47-3.329,19.716-.565s11.255,7.819,15.058,13.485C120.539,183.012,122.464,203.445,119.119,222.2Z" transform="translate(-65.035 -151.632)"/><path class="e" d="M81.887,163.865c11.959,16.886,12.995,36.56,14.032,57.226a110.343,110.343,0,0,1-14.14,59.594" transform="translate(-56.208 -145.184)"/></g><g transform="translate(35.242 324.591)"><path class="f" d="M97.407,398.658c-8.381-7.405-16.861-14.926-23.054-24.239-5.394-8.112-8.876-17.324-13.581-25.853-3.045-5.519-6.64-10.837-8.4-16.889s-1.341-13.219,2.96-17.828c4.485-4.808,12.2-5.545,18.291-3.068s10.745,7.6,14.3,13.129a62.573,62.573,0,0,1,9.192,24.326c1.191,7.822.887,15.814,2.1,23.633a79.123,79.123,0,0,0,6.668,20.954c2.8,6.054,9.891,16.846,11.7,23.052C112.568,418.384,100.979,401.816,97.407,398.658Z" transform="translate(-51.392 -309.394)"/><path class="g" d="M62.334,317.55c7.969,3.488,11.138,12.993,12.8,21.531,1.892,9.717,1.472,20.241,5.928,29.082,8.393,16.655,19.319,35.615,27.438,41.279" transform="translate(-45.624 -305.095)"/></g><g transform="translate(17.225 388.842)"><path class="d" d="M62.378,353.694c-6.955-2.746-16.243-3.874-20.7,2.127-3.734,5.026-1.8,12.15.779,17.856,2.176,4.815,4.943,9.713,9.534,12.33,3.137,1.788,6.813,2.326,10.4,2.753A249.139,249.139,0,0,0,92.528,390.5c11.674-.034,25.812,4.734,35.468,12.013C115.605,379.478,85.786,362.938,62.378,353.694Z" transform="translate(-39.594 -351.466)"/><path class="e" d="M46.523,362.731c8.853.377,17.787,1,26.284,3.513,8.69,2.57,42.116,17.909,47.34,24.438" transform="translate(-35.941 -345.528)"/></g><g transform="translate(0 232.971)"><path class="h" d="M144.188,360.227a58.91,58.91,0,0,0-41.209-26.307c-12.31-1.654-24.977.649-37.124-1.914a47.308,47.308,0,0,1-35.6-59.877c2.854-9.5,9.374-18.5,18.813-21.553a29.833,29.833,0,0,1,16.023-.162A44.53,44.53,0,0,1,78.6,256.254c9.5,6.015,17.176,15.276,22.949,25.1,5.238,8.935,18.164,22.851,26.954,31.9,5.157,5.287,8.9,8.9,8.9,8.9C143.443,329.655,140.621,351.29,144.188,360.227Z" transform="translate(-28.315 -249.401)"/><path class="g" d="M40.109,268.161c29.576,13.355,61.841,30.853,82.818,55.614" transform="translate(-22.097 -239.511)"/></g><g transform="translate(39.102 132.468)"><path class="i" d="M114.618,327.97s-44.081-35.728-53.374-74.082c9.5,6.015,17.176,15.276,22.949,25.1,5.238,8.935,18.164,22.851,26.954,31.9C112.185,315.694,113.337,321.321,114.618,327.97Z" transform="translate(-50.058 -146.532)"/><path class="i" d="M112.138,222.823c-4.047,12.355-9.636,24.251-15.287,36-2.947,6.139-14.905,20.342-21.319,23.045.748-16.02.809-34.728-1.054-50.9-1.787-15.577,3.818-27.382-2.291-41.829-.779-1.848-1.588-3.7-2.4-5.544.565.183,1.115.382,1.649.611,10.049,4.307,14.691,14.936,15.546,25.259.718,8.522-.825,17.058-1.97,25.534-.535,3.91-.962,7.911-.122,11.744a.36.36,0,0,1,.031.122c1.054,4.566,7.727,4.307,8.583-.321l2.673-14.187c.794-4.245,1.665-8.689,5.147-11.652a7.352,7.352,0,0,1,4.948-1.848A6.777,6.777,0,0,1,112.138,222.823Z" transform="translate(-45.553 -183.59)"/><path class="j" d="M118.485,353.941c-6.962-36.359-10.624-41.962-7.561-51.076,3.9-11.615,1.709-23.3,5.391-34.982s6.187-24.256,3.216-36.143c-.939-3.76-2.842-7.857-7.358-8.013a7.343,7.343,0,0,0-4.953,1.843c-3.48,2.966-4.36,7.408-5.154,11.652l-2.659,14.19c-.864,4.615-7.533,4.885-8.587.31l-.026-.115c-.854-3.842-.415-7.84.111-11.739,1.144-8.483,2.685-17.017,1.979-25.548-.855-10.322-5.5-20.953-15.556-25.248a17.76,17.76,0,0,0-11.341-.906c-10.495,2.692-13.21,12.949-11.672,21.705,1.084,6.164,3.975,11.829,6.59,17.515,6.385,13.883,1.7,26.617,2.585,41.873C65.93,311.366,118.485,353.941,118.485,353.941Z" transform="translate(-53.919 -181.461)"/><path class="g" d="M65.538,195.188C70.717,221.058,75.95,247.116,86,271.509c2.947,7.156,4.388,16.57,21.446,36.032" transform="translate(-47.794 -177.476)"/></g><g transform="translate(150.604 44.052)"><path class="d" d="M235.128,238.453c-5.36-6.124-10.308-12.355-15.516-18.356-3.375-3.894-6.857-7.7-10.644-11.3-1.878-1.8-3.818-3.543-5.864-5.238a164.668,164.668,0,0,0-40.027-24.45c-8.7-3.726-17.9-6.8-25.29-12.736-7.391-5.925-12.706-15.669-10.247-24.816,1.787-6.6,7.391-11.729,13.821-14.08,6.414-2.337,13.531-2.153,20.2-.718,18.631,4.016,34.193,17.41,44.776,33.246.183.275.382.565.565.855,7.758,11.835,13.179,25,17.9,38.408,1.512,4.307,2.947,8.644,4.368,12.966C231.31,218.692,237.877,232.054,235.128,238.453Z" transform="translate(-126.932 -125.694)"/><path class="e" d="M141.973,136.573c20.325,3.876,34.714,17.335,49.788,31.507a110.373,110.373,0,0,1,31.13,52.748" transform="translate(-119.003 -119.959)"/></g><g transform="translate(228.6 42.385)"><path class="i" d="M192.689,207.958a24.048,24.048,0,0,0,.29,6.353c-5.085-1.161-8.613-9.056-10.934-17.654a132.7,132.7,0,0,1-3.757-21.563,93.3,93.3,0,0,1,1.7-26.374c7.758,11.835,13.179,25,17.9,38.408q-2.428,7.216-4.154,14.6A42.435,42.435,0,0,0,192.689,207.958Z" transform="translate(-178.005 -111.889)"/><path class="h" d="M226.468,147.292c-1.72,7.622-6.325,14.207-10.38,20.888-2.141,3.52-4.136,7.136-6,10.8a164.241,164.241,0,0,0-13.526,36.994,30.025,30.025,0,0,0-.747,12.585c-10.021-2.288-14.012-30.766-14.693-39.233a92.307,92.307,0,0,1,7.671-44.827c2.741-6.13,6.277-12.147,11.725-16.072,5.434-3.925,13.137-5.3,18.894-1.881a15.4,15.4,0,0,1,6.779,9.375A23.273,23.273,0,0,1,226.468,147.292Z" transform="translate(-176.512 -124.602)"/><path class="g" d="M189.177,216.6c-6.231-15.649-2.445-48.773,7.55-69.589,3.012-6.272,7.3-12.153,13.308-15.658" transform="translate(-173.714 -121.045)"/></g><g transform="translate(256.925 53.25)"><path class="i" d="M218.184,143.384c-1.72,7.622-6.325,14.207-10.38,20.888-2.141,3.52-4.136,7.136-6,10.8a36.411,36.411,0,0,1-5.125-15.018c-.843-8.871,2.546-18.375,9.763-23.6a26.159,26.159,0,0,1,11.466-4.444A23.273,23.273,0,0,1,218.184,143.384Z" transform="translate(-196.552 -131.559)"/><path class="f" d="M274.3,209.825a32.313,32.313,0,0,1-2.595,8.433c-4.444,9.618-13.769,17.872-27.748,24.587,0,0-.779-15.214-.941-19.283-.681-17.434-19.607-27.084-31.577-39.8-6.1-6.487-10.719-14.677-11.579-23.549-.843-8.871,2.546-18.375,9.763-23.6,6.049-4.363,13.964-5.321,21.408-4.753,12,.956,24.117,5.985,31.577,15.359a13.819,13.819,0,0,1,.875,1.1c4.574,6.245,6.926,13.85,8.644,21.424C275.115,182.871,276.462,196.526,274.3,209.825Z" transform="translate(-194.873 -131.717)"/><path class="g" d="M209.581,141.05c13.1,6.774,26.22,14.966,33.849,27.585,10.641,17.605,8.321,40.514.115,59.376" transform="translate(-189.684 -126.797)"/></g><g transform="translate(551.042 115.178)"><path class="h" d="M393.6,300.925c8.349-13.744,4.085-31.423,6.991-47.241a52.2,52.2,0,0,1,18.679-31.12c6.075-4.827,14.609-8.274,21.473-4.656,1.487.783,3.254,1.886,4.687,1a3.745,3.745,0,0,0,1.4-2.569c1.739-8.543-2.367-17.874.99-25.92,1.807-4.333,5.545-7.569,9.5-10.091A51.83,51.83,0,0,1,482.93,172.3a14.377,14.377,0,0,1,7.049,1.072c3.881,1.946,5.655,6.779,5.134,11.089s-2.9,8.167-5.534,11.616c-8.77,11.464-21.617,21.359-23.31,35.691a9.305,9.305,0,0,0,.617,5.348c.8,1.565,2.3,2.683,3.141,4.23,2.7,4.963-2.517,10.591-7.613,13.031a43.93,43.93,0,0,1-14.839,4.107c-3.535.33-7.533.415-9.939,3.027-4.44,4.823.661,12.533-.27,19.022-.58,4.05-3.519,7.32-6.468,10.156a116.122,116.122,0,0,1-17.866,14.09c-5.188,3.323-10.676,6.258-15.273,10.357s-8.314,9.642-8.615,15.8" transform="translate(-389.144 -172.268)"/><path class="g" d="M399.268,283.554c1.364-6.663,4.464-12.822,7.53-18.891,4.8-9.484,9.684-19.106,16.925-26.884,5.5-5.906,12.2-10.577,17.8-16.4a60.994,60.994,0,0,0,10.052-13.955c1.446-2.763,2.7-5.666,4.649-8.1,2.318-2.888,5.487-4.945,8.245-7.416a35.343,35.343,0,0,0,8.738-12.052" transform="translate(-383.807 -168.264)"/></g><g transform="translate(545.706 211.048)"><path class="d" d="M515.336,277.37c-1.878,7.239-4.673,14.4-9.468,20.143a42.971,42.971,0,0,1-11.942,9.636,67.164,67.164,0,0,1-7.223,3.528,86.722,86.722,0,0,1-30.192,6.689c-15.088.565-30.6-2.764-45.082,1.542a44.419,44.419,0,0,0-17.791,10.308,43.283,43.283,0,0,0-7.987,10.095l1.97-12.523c3.65-13.47,7.376-27.183,14.829-38.988,4.811-7.651,11.057-14.309,17.7-20.433a147.647,147.647,0,0,1,35.384-24.74c10.507-5.1,22.174-8.69,33.781-7.269,11.591,1.4,22.984,8.735,26.6,19.838C518.238,262.328,517.23,270.116,515.336,277.37Z" transform="translate(-385.65 -235.045)"/><path class="e" d="M393.4,310.8a91.581,91.581,0,0,1,46.476-35.28c11.7-3.906,24.08-5.392,35.935-8.813s23.68-9.229,30.63-19.424" transform="translate(-381.564 -228.593)"/></g><g transform="translate(560.979 340.096)"><path class="h" d="M399.519,393.006c.66-16.841,9.366-32.392,19.94-45.518,8.819-10.948,19.461-20.968,32.6-25.956,4.117-1.564,8.638-2.613,12.914-1.561s8.153,4.71,8.231,9.113c.067,3.716-2.428,6.959-5.053,9.589-8.641,8.654-19.809,14.206-30.276,20.533-17.991,10.872-35.09,25.386-42.229,45.158" transform="translate(-395.651 -319.547)"/><path class="g" d="M402.543,374.978c10.994-24.525,39.454-46.451,58.227-49.191" transform="translate(-392.018 -316.258)"/></g><g transform="translate(557.972 389.897)"><path class="f" d="M393.684,389.206c-.15-2.822,9.056-10.2,11.13-12.083A106.623,106.623,0,0,1,444.4,354.5c5.841-1.834,12.045-3.164,17.886-1.756s11.2,6.2,11.776,12.5c.556,6.112-3.544,12.09-8.777,15.047s-11.351,3.4-17.185,3.065c-9.016-.525-17.866-2.766-26.916-2.7S399.429,381.645,393.684,389.206Z" transform="translate(-393.682 -352.158)"/><path class="g" d="M399.822,375.847c18.5-10.021,46.464-16.544,66.767-14.085" transform="translate(-390.445 -347.368)"/></g><g transform="translate(320.136 14.097)"><path class="i" d="M254.164,204.472a32.312,32.312,0,0,1-2.595,8.433A146.862,146.862,0,0,1,238,159.126a29.723,29.723,0,0,1,4.476-17.255,13.829,13.829,0,0,1,.875,1.1c4.574,6.245,6.926,13.85,8.644,21.424C254.975,177.518,256.322,191.174,254.164,204.472Z" transform="translate(-237.944 -87.211)"/><path class="j" d="M315.617,222.569c13.812-4.905,28.155-8.818,40.711-16.379a35.54,35.54,0,0,0,10.151-8.463c2.7-3.519,4.351-8.007,3.751-12.4-.611-4.465-3.468-8.741-2.506-13.144.634-2.9,2.812-5.168,4.476-7.63a24.338,24.338,0,0,0,3.123-20.275c-2.164-7.277-7.617-13.1-10.721-20.026a33.424,33.424,0,0,1-2.584-18.176c-11.587.154-22.161,6.483-33.553,8.595-8.714,1.617-17.779.738-26.415,2.723-15.753,3.619-28.628,17.481-31.078,33.457a22.954,22.954,0,0,0-20.244,6.784,29.794,29.794,0,0,0-7.947,21.776c3.56,57.16,36.285,86.978,36.285,86.978S310.351,224.44,315.617,222.569Z" transform="translate(-235.421 -106.079)"/><g transform="translate(31.679 13.671)"><path class="g" d="M270.316,217.45c-1.435-14.1,3.491-28.037,9.151-41.032,5.518-12.665,11.864-25.079,20.384-35.951s19.348-20.2,32.128-25.436" transform="translate(-252.691 -115.031)"/><path class="g" d="M278.5,120.694a113.68,113.68,0,0,0,2.839,39.938" transform="translate(-248.584 -112.046)"/><path class="g" d="M281.676,148.709c14.357-9.209,36.443-14.8,53.47-13.825" transform="translate(-246.57 -104.623)"/><path class="g" d="M258.688,145.438c17.283,7.289,17.995,32.7,18.456,39.923" transform="translate(-258.688 -99.002)"/><path class="g" d="M273.858,164.541c13.225-9.485,32.336-12.336,46.4-8.8" transform="translate(-250.691 -94.342)"/><path class="g" d="M299.088,116.421A20.873,20.873,0,0,0,294.52,131.2" transform="translate(-239.842 -114.298)"/><path class="g" d="M296.958,124.757c6.1-3.121,14.247-3.838,22.965-1.652" transform="translate(-238.514 -111.44)"/></g></g><g transform="translate(46.233)"><path class="k" d="M74.509,149.119c1.626-.086,12.7-8.292,16.971-11.057a11.669,11.669,0,0,0,3.257-2.753,4.112,4.112,0,0,0,.62-4.042,5.1,5.1,0,0,0-5.185-3.2c-5.521.011-7.436,1.825-10.12,4.6C71.176,141.844,74.509,149.119,74.509,149.119Z" transform="translate(-50.519 -80.391)"/><path class="k" d="M109.553,165.986c4.823,2.169,9.978,4.328,15.223,3.658,2.034-.26,4.255-1.185,4.933-3.122a4.559,4.559,0,0,0-1.532-4.713,10.889,10.889,0,0,0-4.745-2.14c-6.42-1.568-15.435-.7-21.792,1.106C101.639,160.776,106.674,164.693,109.553,165.986Z" transform="translate(-35.894 -64.162)"/><path class="k" d="M129.186,120.4c-2.152-1.358-4.528-3.176-4.526-5.721s2.663-4.5,5.215-4.508,4.92,1.379,6.837,3.062c8.117,7.124,7.106,15.25,7.106,15.25S131.583,121.914,129.186,120.4Z" transform="translate(-23.759 -89.824)"/><path class="k" d="M133.747,105.69c-1.889-.811-3.838-1.79-4.945-3.52a3.366,3.366,0,0,1-.513-2.853c.557-1.581,1.545-3,5.525-2.275,12.6,2.285,15.343,10.913,15.343,10.913S137.091,107.129,133.747,105.69Z" transform="translate(-21.918 -96.848)"/><path class="k" d="M155.985,121.427a19.911,19.911,0,0,0,13.457-6.9,12.321,12.321,0,0,0,2.7-5.008,5.478,5.478,0,0,0-1.477-5.269c-1.768-1.524-4.575-1.28-6.524.006a13.117,13.117,0,0,0-4.215,5.489C158.581,112.548,155.985,121.427,155.985,121.427Z" transform="translate(-7.246 -93.5)"/><path class="l" d="M117.093,306.7l-36.71-32.36c-6.522-5.75-13.179-11.666-17.31-19.315-8.879-16.444-3.76-37.811,8.23-52.146s29.555-22.8,47.2-28.958,36.009-10.481,52.829-18.627c10.548-5.11,21.154-12.721,24.047-24.079A24.025,24.025,0,0,0,173.527,101.3" transform="translate(-58.589 -94.501)"/><path class="l" d="M169.284,107.454c-3.343,10.267-16.367,16.513-22.31,25.407" transform="translate(-11.996 -91.257)"/><path class="l" d="M130.964,115.187c2.566,2.708,5.637,4.946,7.874,7.929,4.728,6.306,5.124,16.548-1.872,22.9" transform="translate(-20.436 -87.181)"/><path class="l" d="M87.817,152.824c10.794,8.318,24.986,13.862,38.6,14.392" transform="translate(-43.181 -67.34)"/><path class="l" d="M72.266,177.081c-4.972-14.658.444-32.217,12.808-41.528" transform="translate(-52.346 -76.445)"/></g><g transform="translate(459.315 29.9)"><path class="d" d="M330.173,124.474c-.586-1.814-.557-4.042.783-5.4a3.978,3.978,0,0,1,4.232-.947c10.734,4.72,9.574,21.467,9.574,21.467S334.58,138.125,330.173,124.474Z" transform="translate(-328.696 -115.672)"/><path class="d" d="M330.3,144.083c-6.944,12.55,17.738,11.593,26.638,4.2C356.934,148.284,336.274,133.28,330.3,144.083Z" transform="translate(-329.08 -103.91)"/><path class="d" d="M350.851,126.181c-1.675-2.3-2.271-5.718-.447-7.9a6.1,6.1,0,0,1,5.8-1.724,13.591,13.591,0,0,1,6.521,3.975c8.123,10.1,4.307,19.993,4.307,19.993S353.6,129.942,350.851,126.181Z" transform="translate(-318.428 -116.427)"/><path class="d" d="M414.609,145.512c-.6-1.955-.458-4.34,1.061-5.708a4.849,4.849,0,0,1,3.61-1.08,10.994,10.994,0,0,1,3.693,1.1,11.789,11.789,0,0,1,5.684,5.649c3.053,6.289.979,14.071.979,14.071S416.1,150.384,414.609,145.512Z" transform="translate(-284.167 -104.683)"/><path class="d" d="M401.563,159.57a15.854,15.854,0,0,0-16.365-2.634,8.391,8.391,0,0,0-3.5,2.628c-1.949,2.7-1.266,6.639.757,9.281s5.09,4.249,8.12,5.623c5.493,2.494,14.018,2.992,19.864,4.484C410.437,178.951,410.413,167.343,401.563,159.57Z" transform="translate(-301.954 -95.71)"/><path class="e" d="M335.084,123.954c3.632,11.886,13.909,20.855,25.351,25.707s24.045,6.132,36.447,6.935,24.952,1.2,36.945,4.458c11.69,3.173,23.33,9.781,28.346,20.806,6.106,13.418.7,29.463-7.872,41.456s-20.114,21.66-28.407,33.848c-3.809,5.6-6.988,12.148-6.219,18.874,1.026,8.964,8.58,15.568,15.6,21.238" transform="translate(-325.915 -112.46)"/><path class="e" d="M353.8,121.1c8.218,9.093,14.787,23.312,16.386,35.464" transform="translate(-316.047 -113.965)"/><path class="e" d="M335.707,145.319c4.7,1.248,9.462,2.5,14.323,2.515s10.495-2.68,13.99-6.06" transform="translate(-325.587 -103.066)"/><path class="e" d="M419.761,143.647A24.261,24.261,0,0,1,427.068,160c.229,6.116-3.164,13.529-7.237,18.1" transform="translate(-281.277 -102.078)"/><path class="e" d="M389.6,161.823a244.729,244.729,0,0,0,26.226,21.518c4.462,3.138,13.323,7.161,17.255,6.125" transform="translate(-297.179 -92.497)"/></g><g transform="translate(552.134 270.929)"><path class="i" d="M491.7,286.48a67.152,67.152,0,0,1-7.223,3.528,86.721,86.721,0,0,1-30.192,6.689c-15.088.565-30.6-2.764-45.082,1.542a44.418,44.418,0,0,0-17.791,10.308c-.5.244-1.008.519-1.512.809-1.206-10.217,24.266-23.534,32.009-27a92.282,92.282,0,0,1,44.822-7.819c6.689.535,13.546,1.848,19.059,5.651A20.394,20.394,0,0,1,491.7,286.48Z" transform="translate(-389.857 -274.256)"/><path class="h" d="M466.736,278.536c6.686.533,13.543,1.845,19.063,5.649s9.407,10.6,8.118,17.18c-1.5,7.666-9.426,12.654-17.179,13.6s-15.5-1.191-23.152-2.766A165.083,165.083,0,0,0,402,309.838a29.9,29.9,0,0,0-12.1,3.522c-1.2-10.223,24.279-23.533,32.021-27A92.3,92.3,0,0,1,466.736,278.536Z" transform="translate(-389.859 -272.147)"/><path class="g" d="M394.228,302.784c12.651-11.119,45.124-18.666,68.088-16.235,6.92.733,13.9,2.8,19.215,7.285" transform="translate(-387.556 -268.016)"/></g></g><path class="m" d="M378.754,215.311l123.524-.255a26.245,26.245,0,0,1,26.3,26.192h0a26.245,26.245,0,0,1-26.192,26.3l-84.494.174" transform="translate(184.736 70.404)"/><path class="m" d="M168.933,274.613l-86.387.179a14.816,14.816,0,0,0-14.784,14.845h0A14.816,14.816,0,0,0,82.607,304.42l25.187-.052" transform="translate(20.795 101.8)"/><g transform="translate(30.284 416.795)"><path class="b" d="M51.166,325.541c-29.593.061-30.212,44.2,7.445,44.126l554.939-1.145c23.294-.047,25.754-36.391-3.044-36.331-57.308.118-59.211-27.214-27.393-27.28" transform="translate(-29.604 -299.024)"/><path class="c" d="M53.272,319.716a7.314,7.314,0,1,1-8.439-5.98A7.314,7.314,0,0,1,53.272,319.716Z" transform="translate(-24.785 -294.427)"/><path class="n" d="M406.354,307.14a7.313,7.313,0,1,1-8.439-5.979A7.312,7.312,0,0,1,406.354,307.14Z" transform="translate(161.345 -301.056)"/></g><g transform="translate(125.696 161.848)"><path class="i" d="M569.229,501.355l-459.5.95A11.1,11.1,0,0,1,98.6,491.227l-.629-304.412a11.1,11.1,0,0,1,11.078-11.124l459.5-.948a11.1,11.1,0,0,1,11.122,11.078l.629,304.412A11.1,11.1,0,0,1,569.229,501.355Z" transform="translate(-88.975 -112.696)"/><g transform="translate(0 56.229)"><path class="o" d="M563.337,497.547l-459.5.948A11.1,11.1,0,0,1,92.71,487.418l-.629-304.412a11.1,11.1,0,0,1,11.078-11.124l459.5-.948a11.1,11.1,0,0,1,11.122,11.078l.629,304.412A11.1,11.1,0,0,1,563.337,497.547Z" transform="translate(-92.081 -170.933)"/><path class="d" d="M561.834,170.936,104.3,171.88a12.084,12.084,0,0,0-12.058,12.109l.021,10.507,481.7-.994-.021-10.507A12.083,12.083,0,0,0,561.834,170.936Z" transform="translate(-91.999 -170.931)"/><path class="a" d="M104.881,490.42l69.131-.144-.628-304.023-81.214.168.6,291.954A12.075,12.075,0,0,0,104.881,490.42Z" transform="translate(-92.034 -162.857)"/><g class="p" transform="translate(-92.042 -170.932)"><path class="aa" d="M563.411,497.548l-459.5.948a11.1,11.1,0,0,1-11.124-11.078l-.628-304.412a11.1,11.1,0,0,1,11.076-11.122l459.5-.948a11.1,11.1,0,0,1,11.124,11.076l.628,304.412A11.1,11.1,0,0,1,563.411,497.548Z"/><path class="ab" d="M 103.9023590087891 496.4960327148438 L 563.40673828125 495.5476684570313 C 565.8373413085938 495.5428466796875 568.1204833984375 494.5916442871094 569.835693359375 492.8692932128906 C 571.5509643554688 491.1468505859375 572.4926147460938 488.8594055175781 572.4871826171875 486.4280395507813 L 571.8594970703125 182.0154724121094 C 571.8546752929688 179.5883483886719 570.9059448242188 177.3076019287109 569.1880493164063 175.5932769775391 C 567.4703369140625 173.8790893554688 565.1879272460938 172.9350280761719 562.7611694335938 172.9350280761719 L 562.7398681640625 172.9350280761719 L 103.235481262207 173.8834075927734 C 100.8049163818359 173.8882141113281 98.521728515625 174.8394165039063 96.80648040771484 176.5616607666016 C 95.09123229980469 178.2839660644531 94.14960479736328 180.5708465576172 94.15504455566406 183.0015411376953 L 94.78266906738281 487.4141540527344 C 94.78754425048828 489.842041015625 95.73654174804688 492.123291015625 97.45497894287109 493.8377075195313 C 99.17317199707031 495.5519714355469 101.4563522338867 496.4960327148438 103.883918762207 496.4960327148438 L 103.9023590087891 496.4960327148438 M 103.8839263916016 498.4960632324219 C 97.76266479492188 498.4960632324219 92.79490661621094 493.5421752929688 92.78266906738281 487.4181518554688 L 92.15504455566406 183.0056610107422 C 92.14129638671875 176.8756561279297 97.10147857666016 171.8955993652344 103.2314834594727 171.8834075927734 L 562.7357177734375 170.9350280761719 C 562.7439575195313 170.9350128173828 562.7529296875 170.9350128173828 562.7611694335938 170.9350128173828 C 568.88134765625 170.9350128173828 573.8472900390625 175.8897094726563 573.8594970703125 182.011474609375 L 574.4871826171875 486.4239196777344 C 574.5009155273438 492.5554809570313 569.5406494140625 497.5354614257813 563.4107055664063 497.5476684570313 L 103.9064788818359 498.4960327148438 C 103.8989944458008 498.4960632324219 103.8914031982422 498.4960632324219 103.8839263916016 498.4960632324219 Z"/></g><path class="o" d="M2.786,0H59a2.787,2.787,0,0,1,2.787,2.787V6.252A2.787,2.787,0,0,1,59,9.039H2.787A2.787,2.787,0,0,1,0,6.252V2.786A2.786,2.786,0,0,1,2.786,0Z" transform="translate(12.768 295.403) rotate(-0.118)"/><rect class="o" width="60.954" height="60.954" rx="5.106" transform="translate(10.63 37.223) rotate(-0.118)"/><path class="a" d="M3.639,0H165.506a3.64,3.64,0,0,1,3.64,3.64V8.166a3.64,3.64,0,0,1-3.64,3.64H3.64A3.64,3.64,0,0,1,0,8.166V3.639A3.639,3.639,0,0,1,3.639,0Z" transform="matrix(1, -0.002, 0.002, 1, 94.48, 222.472)"/><rect class="a" width="136.001" height="11.806" rx="3.64" transform="translate(118.492 42.354) rotate(-0.118)"/><rect class="a" width="177.622" height="11.806" rx="3.64" transform="matrix(1, -0.002, 0.002, 1, 274.283, 168.737)"/><rect class="a" width="169.145" height="11.806" rx="3.64" transform="translate(94.53 246.881) rotate(-0.118)"/><rect class="a" width="169.145" height="11.806" rx="3.64" transform="translate(94.581 271.289) rotate(-0.118)"/><rect class="a" width="177.622" height="86.761" rx="6.012" transform="translate(274.373 212.264) rotate(-0.118)"/><path class="a" d="M112.225,180.142a3.893,3.893,0,1,1-3.9-3.885A3.892,3.892,0,0,1,112.225,180.142Z" transform="translate(-85.566 -168.126)"/><circle class="a" cx="3.893" cy="3.893" r="3.893" transform="translate(35.354 8.097)"/><path class="a" d="M133.807,180.1a3.893,3.893,0,1,1-3.9-3.885A3.893,3.893,0,0,1,133.807,180.1Z" transform="translate(-74.189 -168.15)"/><circle class="a" cx="11.256" cy="11.256" r="11.256" transform="translate(88.875 58.371) rotate(-84.28)"/><path class="o" d="M1.373,0H52.68a1.373,1.373,0,0,1,1.373,1.373V3.081A1.374,1.374,0,0,1,52.68,4.455H1.374A1.374,1.374,0,0,1,0,3.081V1.373A1.373,1.373,0,0,1,1.373,0Z" transform="translate(15.109 103.233) rotate(-0.118)"/><path class="o" d="M1.374,0H52.68a1.374,1.374,0,0,1,1.374,1.374V3.081A1.374,1.374,0,0,1,52.68,4.455H1.373A1.373,1.373,0,0,1,0,3.082V1.374A1.374,1.374,0,0,1,1.374,0Z" transform="matrix(1, -0.002, 0.002, 1, 15.129, 112.753)"/><path class="a" d="M185.195,283.469l-14.1.142.1,59.069-12.165.024a7.774,7.774,0,0,1-7.79-7.756l-.226-109.231a7.858,7.858,0,0,1,7.84-7.872l26.183-.067Z" transform="translate(-61.013 -146.239)"/><g class="q" transform="translate(89.989 71.622) rotate(-0.118)"><rect class="aa" width="134.816" height="124.861" rx="6.012"/><rect class="ac" x="0.5" y="0.5" width="133.816" height="123.861" rx="5.512"/></g></g><rect class="a" width="177.622" height="97.629" rx="6.012" transform="translate(267.337 82.889) rotate(12.735)"/><g transform="translate(78.103 397.824)"><path class="d" d="M173.1,422.327l-21.736.045-5.319-27.692,32.26-.067Z" transform="translate(-141.735 -394.613)"/><path class="a" d="M150.005,394.663c.006,2.259-.426,6.052,1.08,6.109s.881-3.6,2.6-3.5c1.095.063-.51,12.031,3.627,12.32,2.845.2,2.326-5.87,2.618-9.668.2-2.57,3.49-2.066,3.516-.365.031,1.9-.092,3.175,0,5.339.154,3.613,5.71,2.654,5.512-2.176s-.012-8.1-.012-8.1Z" transform="translate(-139.677 -394.608)"/><g transform="translate(0 0.252)"><path class="r" d="M148.349,411.306a5.813,5.813,0,0,1-1.284-.133,4.539,4.539,0,0,1-3.34-2.5c-2.216-4.7,3.618-13.5,3.845-13.893l.3,1.585c-.052.092-5.124,7.657-3.132,11.878a3.449,3.449,0,0,0,2.576,1.907,5,5,0,0,0,1.092.111c7.828-.014,21.211-14.606,21.357-14.774.547-.657,1.57-.038,1.206.516C170.362,396.705,156.764,411.288,148.349,411.306Z" transform="translate(-143.224 -394.778)"/></g></g><g transform="translate(250.165 0.976)"><path class="i" d="M317.366,157.639c-30.891-1.182-73.421,21.664-58.334,77.526-.327,4.723,2.5,8.094,5.508,7.172s.357-9.875.357-9.875c5.143-41.533,14.765-48.718,31.1-48.568l38.316-.079c9.47,1.4,26.684,8.019,29.266,41.265l9.539,1.762C373.86,202.826,368.046,159.577,317.366,157.639Z" transform="translate(-255.892 -122.71)"/><path class="s" d="M317.366,154.453c-30.891-1.182-73.421,21.664-58.334,77.526l5.866-2.7c5.143-41.533,14.765-48.718,31.1-48.568l38.316-.079c9.47,1.4,27.144,9.8,29.726,43.046l9.079-.018C373.86,199.64,368.046,156.391,317.366,154.453Z" transform="translate(-255.892 -124.39)"/><path class="t" d="M293.593,155.033l-4.588,10.085s.547,5.68,6.121,5.562,6.318-2.692,6.318-2.692l.727-11.579Z" transform="translate(-238.436 -124.061)"/><path class="t" d="M317.716,154.862c-5.231,9.247-7.549,12.124-14.387,13.514-8.856,1.8-18.789-4.172-14.172-18.9,3.764-12,9.462-10.156,15.044-9.7S323.366,144.871,317.716,154.862Z" transform="translate(-238.974 -132.3)"/><path class="r" d="M297.391,150.017a3.749,3.749,0,0,0-4.258,1.029,4.664,4.664,0,0,0-1.173,4.458,4.056,4.056,0,0,0-3.816,4.262c-1.461-3.412-.672-6.962-.961-10.453s.093-7.289,2.356-9.965a11.368,11.368,0,0,1,3.393-2.614,17.545,17.545,0,0,1,15.757-.223,9.559,9.559,0,0,0,7.089,1.243c6.748-1.631,10.7,2.932,6.642,7.207,1.3.47,2.731,1.051,3.32,2.3a1.037,1.037,0,0,1,.027,1.012,1.173,1.173,0,0,1-.618.383,7.353,7.353,0,0,1-3.551.283c.455.386,2.96.538,3.714,1.994,2.011,3.876-5.959,1.918-7.173,1.53,1.387.26,5.026,3.164,3.862,5.159-.231.392-5.145,3.257-10.311-2.744a9.422,9.422,0,0,0-4.481-3.158,7.053,7.053,0,0,0-4.209.652c-.987.371-3.506,1.9-4.229.991C297.979,152.365,299,150.819,297.391,150.017Z" transform="translate(-239.44 -134.752)"/><path class="t" d="M327.986,199.867c-1.368,4.713-2.753,5.18-1.093,5.931s3-1.891,3-1.891l7.663,1.524s-1.729-4.979-2.935-5.579S327.986,199.867,327.986,199.867Z" transform="translate(-218.863 -100.573)"/><path class="t" d="M263.814,203.433c1,2.486,1.277,2.5,2.671,5.492,2.666,5.713-3.578,14.745-7.454,4.884-1.063-2.7-1.083-7.672-1.083-7.672Z" transform="translate(-254.808 -98.547)"/></g><g transform="translate(296.432)"><path class="r" d="M301.128,137.221c2.949.283,5.724-.745,8.621-1.054,2.508-.267,5.469.1,7.086,2.285.383.518,1.229.066.886-.518-1.4-2.369-4.168-3.154-6.777-2.981-3.312.217-6.46,1.625-9.815,1.4-.564-.038-.55.817,0,.87Z" transform="translate(-278.533 -133.683)"/><path class="r" d="M308.76,134.762c-3.317.8-6.625-.956-9.974-.6a15.171,15.171,0,0,0-8.364,3.966c-.553.5.177,1.466.8,1.04,2.595-1.768,5.369-3.529,8.618-3.564,3.108-.034,6.164,1.394,9.223.263a.573.573,0,0,0-.3-1.1Z" transform="translate(-284.06 -134.113)"/><path class="r" d="M290.516,137.757a8.535,8.535,0,0,0-3.126,2.886,9.362,9.362,0,0,0-1.165,4.023,18.305,18.305,0,0,0,.409,4.85c.217,1.15.284,2.941,1.645,3.331.608.174.88-.637.409-.971-.438-.312-.519-.974-.625-1.458-.137-.634-.272-1.269-.385-1.909a16.548,16.548,0,0,1-.3-3.958,7.986,7.986,0,0,1,3.5-6.176c.367-.263.043-.857-.362-.617Z" transform="translate(-286.188 -132.222)"/><path class="r" d="M316.94,144.492a6.264,6.264,0,0,0-3-2.726,4.782,4.782,0,0,0-4.16-.082.457.457,0,0,0,.229.844c.594,0,1.193-.067,1.787-.046a5.724,5.724,0,0,1,1.7.342,5.406,5.406,0,0,1,2.758,2.071.4.4,0,0,0,.69-.4Z" transform="translate(-273.867 -130.357)"/></g><g transform="translate(94.536 190.225)"><path class="d" d="M203.116,295.917c16.2,5.95,30.262,24.534,27.035,38.038-3.645,15.255-14.17,21.835-14.17,21.835l-3.315-6.125s8.413-13.155,7.683-19.366c-1.171-9.949-13.734-16.594-13.734-16.594Z" transform="translate(-128.084 -239.042)"/><path class="r" d="M181.3,408.645s-9.948,4.016-12.434,6.284l19.7-.038-.014-6.261Z" transform="translate(-146.141 -179.625)"/><path class="r" d="M209,408.389s2.824,3.273,3.343,6.55l-13.444.027a15.744,15.744,0,0,1,2.508-6.564Z" transform="translate(-130.307 -179.752)"/><path class="u" d="M211.791,447.3l-9.178.015c.183-10.812-2.046-47.663-4.2-75.212-1.268-16.157-2.52-29.138-3.253-31.765l4.917-1.084,18.555-4.123C221.809,349.638,214.479,416.252,211.791,447.3Z" transform="translate(-132.278 -218.371)"/><path class="v" d="M188.105,338.425c-7.159,11.278-9.01,92.764-12.007,107.868l8.7.495a790.072,790.072,0,0,1,31.29-109.132Z" transform="translate(-142.326 -217.04)"/><path class="i" d="M209.714,337.65c-4.2,11.408-7.972,22.571-11.3,33.124-1.268-16.157-2.52-29.138-3.253-31.765l4.917-1.084Z" transform="translate(-132.278 -217.043)"/><path class="v" d="M188.105,338.425c-7.159,11.278-9.01,92.764-12.007,107.868l8.7.495a790.072,790.072,0,0,1,31.29-109.132Z" transform="translate(-142.326 -217.04)"/><path class="t" d="M187.923,279.766s-5.573,21.235,8.347,21.208l-.825,5.426,10.571,1.156-2.285-7.561s2.091-13.353,2.23-15.762C206.225,279.729,193.609,271.8,187.923,279.766Z" transform="translate(-136.674 -249.351)"/><g transform="translate(0 0)"><rect class="r" width="4.102" height="17.332" transform="translate(12.724 6.618) rotate(-0.113)"/><rect class="w" width="29.52" height="6.585" rx="1.954" transform="translate(0 0.058) rotate(-0.113)"/></g><path class="t" d="M162.317,281.067c-.111-3.932-3.354-2.9-1.567-9.316,1.1-3.968,9.294.635,8.274,3.386s-2.193,7.1-2.193,7.1Z" transform="translate(-150.7 -252.596)"/><path class="w" d="M210.9,305.262c-20.817,1.381-22.187,8.395-31.5,7.3-13.787-1.625-11.374-27.228-9.67-36.41l-8.234.017s-14.844,58.327,32.04,47.542c-1.8,10.217,9.858,26.9-1.446,47.152,17.8,4.833,34.4,6.02,48.623-.1-2.489-3.354,5.1-37.243-9.765-61.639C228.044,304.362,212.422,305.161,210.9,305.262Z" transform="translate(-151.202 -249.464)"/><path class="d" d="M210.9,305.262c-20.817,1.381-22.187,8.395-31.5,7.3-13.787-1.625-11.374-27.228-9.67-36.41l-8.234.017s-14.844,58.327,32.04,47.542c-1.8,10.217,9.858,26.9-1.446,47.152,17.8,4.833,34.4,6.02,48.623-.1-2.489-3.354,5.1-37.243-9.765-61.639C228.044,304.362,212.422,305.161,210.9,305.262Z" transform="translate(-151.202 -249.464)"/><path class="s" d="M193.578,285.576c1.356.347,2.937.609,3.662,1.762a4.28,4.28,0,0,1,.391,2.55,2.132,2.132,0,0,1,2.237-1.458,2.076,2.076,0,0,1,1.813,1.924,3.376,3.376,0,0,1-.3,1.289,15.427,15.427,0,0,1-1.55,2.947c1.7.626,3.126,5.6,3.977,7.146,2.859-.715,9.221-3.173,9.775-13.3.258-4.717-1.179-10.365-6.3-13.506-3.615-2.219-9.613-2.251-13.751-1.193-3.355.857-8.708,4.207-6.212,8.124C188.583,283.838,191.336,285,193.578,285.576Z" transform="translate(-136.748 -251.092)"/><path class="s" d="M204.809,277.139c1.938-.644,4.4-.3,5.559,1.316.909,1.263.826,2.92,1.119,4.427a3.448,3.448,0,0,0,.964,1.97,4.15,4.15,0,0,0,2.57.793c2.24.119,4.51-.165,6.718.211s4.468,1.622,5.1,3.687c.348,1.142.159,2.4.576,3.517.626,1.681,2.416,2.637,3.975,3.613a25.886,25.886,0,0,1,8.175,8.138,14.729,14.729,0,0,1,2.445,6.748c.156,2.4,1.886,5.568,1.425,7.932-.5,2.549-3,6-7.955,7.59-8.557,2.753-11.267,3.948-19.465-.925-.99-.588-2.921-2.587-3.815-3.3a4.361,4.361,0,0,1-1.391-2.216c-.683-2.353.107-4.888,1.335-7.029s2.885-4.033,4.136-6.161a7.715,7.715,0,0,0,1.3-4.168,2.243,2.243,0,0,0-.565-1.515,2.542,2.542,0,0,0-1.326-.6c-1.8-.353-3.781.02-5.412-.788a3.819,3.819,0,0,1-1.975-4.352c.321-1.1,1.156-2.03,1.393-3.15a4.293,4.293,0,0,0-2.072-4.213,12.077,12.077,0,0,0-4.826-1.588,5.569,5.569,0,0,1-2.382-.759,3.191,3.191,0,0,1-1.208-2.648C199.235,280.5,201.814,278.136,204.809,277.139Z" transform="translate(-130.15 -249.103)"/></g><path class="x" d="M201.915,282.449a5.115,5.115,0,0,1,4.6,5.03c-.043,1.917-1.174,3.607-2,5.336s-1.335,3.908-.228,5.473c.967,1.364,2.824,1.755,4.5,1.73,1.929-.029,4.209-.33,5.458,1.141,1.006,1.184.79,2.978.232,4.427s-1.4,2.833-1.51,4.381" transform="translate(-34.181 -55.917)"/><path class="x" d="M187.9,275.309a17.815,17.815,0,0,1,23,2.54" transform="translate(-41.569 -61.304)"/><g transform="translate(344.512 197.919)"><path class="t" d="M363.822,290.681l-3.442,6.92,8.411,3.439.9-7.967Z" transform="translate(-295.158 -249.498)"/><path class="t" d="M369.939,275.929c-19.077,8.3-11.261,28.431.351,26.067,5.652-1.15,8.514-19.349,8.514-19.349Z" transform="translate(-296.197 -257.274)"/><path class="k" d="M373.2,275.434a10.009,10.009,0,0,0-2.254-3.241A2.886,2.886,0,0,0,367.3,272c-1.283,1.193-.531,3.427.768,4.6-1.119.136-2.448-.637-3.271.131-.625.583-.408,1.616-.05,2.391a10.633,10.633,0,0,0,3.91,4.481c-.968.55-2.089,1.613-1.509,2.563.16.263.431.444.588.709.37.617.012,1.4-.36,2.014q-.9,1.489-1.944,2.889a1.7,1.7,0,0,1,2.734.473,2.909,2.909,0,0,1-.68,3.074,3.049,3.049,0,0,1-1.539.982c-.524.121-2.834,7.269-1.031,8.668,2.228,1.732,9.81.229,10.905-1.727a4.85,4.85,0,0,0,4.29,1.776c1.588-.315,2.8-2.274,1.943-3.645a4.462,4.462,0,0,0,5.383-6.46c.935-.283,1.122-1.549.884-2.494a5.765,5.765,0,0,0-3.948-4.058,1.954,1.954,0,0,0,1.779-1.921,4.017,4.017,0,0,0-1.066-2.624c-1.791-2.208-3.911-2.8-6.558-3.134C375.858,280.356,374.384,277.633,373.2,275.434Z" transform="translate(-293.122 -259.642)"/><path class="r" d="M362.772,407.778s-11.162,5.359-12.659,7.03c0,0,21.96.988,23.68-.049s-3.517-7-3.517-7Z" transform="translate(-300.57 -187.777)"/><path class="r" d="M389.365,404.346s-9.81,7.553-10.93,9.5c0,0,23.158-3.439,23.158-4.951s-4.888-6.116-4.888-6.116Z" transform="translate(-285.64 -190.405)"/><path class="y" d="M366.475,342.216c-.412,2.271-15.693,62.6,28.031,98.77l12.666-2.9s-14.74-13.827-21.687-38.707c-6.57-23.527-1.352-25.835,2.589-38.794,4.36-14.345,1.115-24.755,1.115-24.755Z" transform="translate(-293.482 -225.699)"/><path class="s" d="M354.836,340.353c-6.932,16.565-18.833,73.022,7.1,104.812l12.953-.027s-10.2-11.182-11.344-37.125,5.456-37.333,10.108-45.894,8.957-23.107,8.957-23.107Z" transform="translate(-302.74 -224.02)"/><path class="d" d="M346.517,272.639c-3.441,12.133-4.572,34.547,12.663,43.576l11.536-2.811s-20.8-10.9-16.341-38.46Z" transform="translate(-303.561 -259.008)"/><path class="d" d="M325.044,268.954l8.955-1.1s-1.078,37.6,42.35,40.769c33.15,2.417,35.755,64.626,35.755,64.626-10.689,7.2-28.626,9.375-51.61,7.727,0,0,1.471-44.381-2.179-56.531C358.315,324.442,322.232,313.089,325.044,268.954Z" transform="translate(-313.868 -261.533)"/><path class="t" d="M317.9,264.31c-1.516,1.756,4.812,3.984,10.948,6.825l7.859-.97a30.9,30.9,0,0,0-.006-3.205c-.1-1.637-.918-2.57-1.851-1.165s-4.905,1.88-6.778.6S319.415,262.554,317.9,264.31Z" transform="translate(-317.672 -263.713)"/><path class="t" d="M346.562,274.394c-2.879-2.831-2.115-2.659-2.115-2.659l8.783,1.985s1.932-4.285,3.567-4.406-1.232,2.954-.576,4.093-1.8,3.291-1.8,3.291Z" transform="translate(-303.606 -260.763)"/></g><path class="z" d="M373.408,276.506a9.394,9.394,0,0,1,5.846,1.988c1.556,1.41,2.178,4.009.869,5.649" transform="translate(56.222 -59.05)"/><path class="z" d="M379.132,287.165a3.7,3.7,0,0,1,2.115,2.619,3.5,3.5,0,0,1-1,2.717,10.342,10.342,0,0,1-2.384,1.782" transform="translate(58.573 -53.431)"/><path class="z" d="M365.513,293.741a10.89,10.89,0,0,0,12.558-1.539" transform="translate(52.06 -50.776)"/><path class="z" d="M379.418,278.426a3.44,3.44,0,0,1,1.148,3.934,10.074,10.074,0,0,1-2.465,3.619" transform="translate(58.696 -58.038)"/></g><g transform="translate(293.867 81.502)"><path class="n" d="M210.964,103.371l-3.583-8.748L241.94,81.5Z" transform="translate(-199.471 -81.501)"/><path class="c" d="M210.867,97.98,240.1,81.5l-20.351,20.67Z" transform="translate(-197.634 -81.501)"/><path class="c" d="M202.2,91.06,244.671,81.5,210.111,94.623Z" transform="translate(-202.202 -81.501)"/><path class="w" d="M211.467,92.292l-1.74,5.392L215,93.959Z" transform="translate(-198.235 -75.813)"/></g><path class="b" d="M213.957,95.114c-9.022-1.526-21.27,7.6-16,17.1,1.794,3.236,11.044,1.831,10.356-1.746-.328-1.712-2.425-2.439-4.157-2.24-10.085,1.156-10.487,9.607-10.04,11.761,2.308,11.116,19.346,7.356,25.074,5.788" transform="translate(87.342 7.087)"/></g></svg>