<svg xmlns="http://www.w3.org/2000/svg" width="245.068" height="149.067" viewBox="0 0 245.068 149.067"><defs><style>.a{fill:#191919;}</style></defs><g transform="translate(0 40.229)"><path class="a" d="M104.37,27.25H86.134a27.173,27.173,0,1,0-54.347,0H19.269L18,13.158a4.47,4.47,0,0,0-4.452-4.07H4.47a4.47,4.47,0,1,0,0,8.94h5c5.237,58.349,5.143,57.3,5.153,57.389a17.2,17.2,0,0,0,6.426,11.539,13.548,13.548,0,1,0,23.414,3.726H68.922a13.552,13.552,0,1,0,12.743-8.94H31.745a8.3,8.3,0,0,1-7.631-5.033l71.436-4.2a4.47,4.47,0,0,0,4.074-3.378L108.707,32.8a4.472,4.472,0,0,0-4.337-5.554ZM58.96,8.946A18.234,18.234,0,1,1,40.726,27.18,18.255,18.255,0,0,1,58.96,8.946ZM31.715,99.9a4.612,4.612,0,1,1,4.612-4.612A4.617,4.617,0,0,1,31.715,99.9Zm49.95,0a4.612,4.612,0,1,1,4.612-4.612A4.617,4.617,0,0,1,81.665,99.9ZM91.747,63.778,22.911,67.824,20.071,36.19H33.324a27.174,27.174,0,0,0,51.274,0H98.645Z" transform="translate(0 -0.006)"/><path class="a" d="M1.309,16.712a4.47,4.47,0,0,0,6.321,0l1.38-1.38,1.38,1.38a4.47,4.47,0,0,0,6.321-6.322l-1.38-1.38,1.38-1.38a4.47,4.47,0,1,0-6.321-6.321l-1.38,1.38L7.63,1.309A4.47,4.47,0,0,0,1.309,7.631l1.38,1.38-1.38,1.38a4.47,4.47,0,0,0,0,6.322Z" transform="matrix(0.695, 0.719, -0.719, 0.695, 59.183, 14.433)"/></g><g transform="translate(136.226 0)"><path class="a" d="M104.37,27.25H86.134a27.173,27.173,0,1,0-54.347,0H19.269L18,13.158a4.47,4.47,0,0,0-4.452-4.07H4.47a4.47,4.47,0,1,0,0,8.94h5c.291,3.241,5.14,57.276,5.153,57.389a17.2,17.2,0,0,0,6.426,11.539,13.548,13.548,0,1,0,23.414,3.726H68.922a13.552,13.552,0,1,0,12.743-8.94H31.745a8.3,8.3,0,0,1-7.632-5.033l71.436-4.2a4.47,4.47,0,0,0,4.074-3.378L108.706,32.8a4.472,4.472,0,0,0-4.337-5.554ZM58.96,8.946A18.234,18.234,0,1,1,40.726,27.18,18.255,18.255,0,0,1,58.96,8.946ZM31.715,99.9a4.612,4.612,0,1,1,4.612-4.612A4.617,4.617,0,0,1,31.715,99.9Zm49.95,0a4.612,4.612,0,1,1,4.612-4.612A4.617,4.617,0,0,1,81.665,99.9ZM91.747,63.778,22.911,67.824,20.071,36.19H33.323a27.174,27.174,0,0,0,51.274,0H98.645Z" transform="translate(0 -0.006)"/><path class="a" d="M228.451,97.236a4.457,4.457,0,0,0,3.161-1.309L245.234,82.3a4.47,4.47,0,1,0-6.322-6.321L225.29,89.606A4.475,4.475,0,0,0,228.451,97.236Z" transform="translate(-176.302 -58.781)"/></g></svg>